<svg width="112" height="40" viewBox="0 0 112 40" fill="none" xmlns="http://www.w3.org/2000/svg">
<path d="M23.6665 1.16455C26.2392 1.16456 28.3248 3.25017 28.3248 5.82289V11.6752H34.1771C36.7498 11.6752 38.8354 13.7608 38.8354 16.3335V23.6664C38.8354 26.2391 36.7498 28.3247 34.1771 28.3247H28.3248V34.177C28.3248 36.7498 26.2392 38.8354 23.6665 38.8354H16.3336C13.7609 38.8354 11.6753 36.7498 11.6753 34.177V28.3247H5.82296C3.25024 28.3247 1.16458 26.2391 1.16458 23.6664V16.3335C1.16458 13.7608 3.2502 11.6752 5.82292 11.6752H11.6753V5.82289C11.6753 3.25016 13.7609 1.16455 16.3336 1.16455H23.6665Z" fill="white"/>
<path d="M27.1602 5.82292C27.1602 3.90847 25.6204 2.35364 23.7117 2.32944L23.6665 2.32917H16.3336C14.4041 2.32917 12.8399 3.89337 12.8399 5.82292V11.6752C12.8399 12.3184 12.3185 12.8398 11.6753 12.8398H5.82292C3.89338 12.8398 2.32917 14.404 2.32917 16.3336V23.6664L2.32944 23.7116C2.35363 25.6203 3.90849 27.1602 5.82297 27.1602H11.6753C12.3185 27.1602 12.8399 27.6816 12.8399 28.3248V34.1771L12.8401 34.2223C12.8643 36.131 14.4191 37.6708 16.3336 37.6708H23.6665L23.7117 37.6706C25.6053 37.6466 27.136 36.1159 27.16 34.2223L27.1602 34.1771V28.3248C27.1602 27.6816 27.6816 27.1602 28.3248 27.1602H34.1771L34.2223 27.1599C36.116 27.1359 37.6466 25.6053 37.6706 23.7116L37.6708 23.6664V16.3336C37.6708 14.4191 36.131 12.8643 34.2223 12.8401L34.1771 12.8398H28.3248C27.6816 12.8398 27.1602 12.3184 27.1602 11.6752V5.82292ZM29.4894 10.5106H34.1771C37.393 10.5106 40 13.1177 40 16.3336V23.6664L39.9995 23.7417C39.9596 26.8978 37.4086 29.4489 34.2524 29.4889L34.1771 29.4894H29.4894V34.1771L29.489 34.2523C29.449 37.4085 26.8979 39.9596 23.7417 39.9995L23.6665 40H16.3336C13.1177 40 10.5107 37.393 10.5107 34.1771V29.4894H5.82297C2.60707 29.4894 1.40573e-07 26.8824 0 23.6664V16.3336C-1.13052e-07 13.1177 2.60703 10.5107 5.82292 10.5106H10.5107V5.82292C10.5107 2.60701 13.1177 0 16.3336 0H23.6665L23.7417 0.000454916C26.9229 0.0407529 29.4894 2.63213 29.4894 5.82292V10.5106Z" fill="#323F5F"/>
<path d="M23.8943 3.14502C25.2321 3.14502 26.3167 4.22954 26.3167 5.56735V13.6528H34.4021C35.7399 13.6528 36.8244 14.7373 36.8244 16.0751V23.8637C36.8244 25.2016 35.7399 26.2861 34.4021 26.2861H26.3167V34.3715C26.3167 35.7093 25.2321 36.7938 23.8943 36.7938H16.1057C14.7679 36.7938 13.6834 35.7093 13.6834 34.3715V26.2861H5.59793C4.26011 26.2861 3.1756 25.2016 3.1756 23.8637V16.0751C3.1756 14.7373 4.26011 13.6528 5.59793 13.6528H13.6834V5.56735C13.6834 4.22954 14.7679 3.14502 16.1057 3.14502H23.8943Z" fill="white"/>
<path d="M25.1517 5.53442C25.1347 4.86559 24.5956 4.32651 23.9268 4.30956L23.8943 4.30915H16.1057C15.4111 4.30915 14.848 4.87226 14.848 5.5669V13.6523C14.848 14.2955 14.3266 14.8169 13.6834 14.8169H5.59794C4.9033 14.8169 4.34018 15.38 4.34018 16.0747V23.8633C4.34018 24.5579 4.9033 25.121 5.59794 25.121H13.6834C14.3266 25.121 14.848 25.6424 14.848 26.2856V34.3711L14.8484 34.4035C14.8656 35.0831 15.4219 35.6288 16.1057 35.6288H23.8943L23.9268 35.6284C24.5956 35.6115 25.1347 35.0724 25.1517 34.4035L25.1521 34.3711V26.2856C25.1521 25.6424 25.6735 25.121 26.3167 25.121H34.4021C35.0858 25.121 35.6422 24.5754 35.6594 23.8958L35.6598 23.8633V16.0747C35.6598 15.3909 35.1142 14.8345 34.4345 14.8173L34.4021 14.8169H26.3167C25.6735 14.8169 25.1521 14.2955 25.1521 13.6523V5.5669L25.1517 5.53442ZM27.4812 12.4878H34.4021C36.3831 12.4878 37.989 14.0937 37.989 16.0747V23.8633C37.989 25.8288 36.4081 27.4251 34.4484 27.4499L34.4021 27.4502H27.4812V34.3711L27.481 34.4174C27.4563 36.3616 25.8849 37.9331 23.9407 37.9577L23.8943 37.958H16.1057C14.1247 37.958 12.5188 36.352 12.5188 34.3711V27.4502H5.59794C3.63241 27.4502 2.03611 25.8693 2.01129 23.9096L2.01102 23.8633V16.0747C2.01102 14.0937 3.61694 12.4878 5.59794 12.4878H12.5188V5.5669C12.5188 3.5859 14.1247 1.97998 16.1057 1.97998H23.8943C25.8753 1.97998 27.4812 3.5859 27.4812 5.5669V12.4878Z" fill="#7DEEFE"/>
<path d="M15.7961 19.7522C15.7961 21.3596 14.4931 22.6626 12.8857 22.6626C11.2784 22.6626 9.97534 21.3596 9.97534 19.7522C9.97534 18.1448 11.2784 16.8418 12.8857 16.8418C14.4931 16.8418 15.7961 18.1448 15.7961 19.7522Z" fill="#323F5F"/>
<path d="M13.6402 18.7607C13.6402 19.3084 13.1962 19.7524 12.6486 19.7524C12.1009 19.7524 11.6569 19.3084 11.6569 18.7607C11.6569 18.213 12.1009 17.769 12.6486 17.769C13.1962 17.769 13.6402 18.213 13.6402 18.7607Z" fill="white"/>
<path d="M30.0246 19.7522C30.0246 21.3596 28.7216 22.6626 27.1142 22.6626C25.5069 22.6626 24.2038 21.3596 24.2038 19.7522C24.2038 18.1448 25.5069 16.8418 27.1142 16.8418C28.7216 16.8418 30.0246 18.1448 30.0246 19.7522Z" fill="#323F5F"/>
<path d="M27.8688 18.7607C27.8688 19.3084 27.4248 19.7524 26.8771 19.7524C26.3294 19.7524 25.8854 19.3084 25.8854 18.7607C25.8854 18.213 26.3294 17.769 26.8771 17.769C27.4248 17.769 27.8688 18.213 27.8688 18.7607Z" fill="white"/>
<path d="M21.7916 19.7778C22.4147 19.4243 22.7565 19.8438 22.7565 21.0091C22.7565 22.1653 21.8804 24.4277 19.9592 24.463L19.9136 24.4634C17.9607 24.4634 17.0708 22.1744 17.0708 21.0091C17.0708 19.8438 17.4125 19.4243 18.0357 19.7778C18.6588 20.1313 19.5371 20.1342 19.9136 20.1342L19.9899 20.134C20.3989 20.1324 21.2074 20.1092 21.7916 19.7778Z" fill="#323F5F"/>
<path d="M19.9136 21.8296C20.9705 21.8296 21.8389 22.5019 21.9367 23.3613C21.4799 23.9777 20.8259 24.447 19.9592 24.463L19.9136 24.4634C19.0241 24.4634 18.3552 23.9885 17.8904 23.3613C17.9883 22.5019 18.8567 21.8296 19.9136 21.8296Z" fill="#FF9180"/>
<path d="M18.3404 22.4492C18.7132 22.0718 19.2781 21.8311 19.9106 21.8311C20.8578 21.8311 21.6537 22.3711 21.8791 23.1018C21.3267 22.4492 19.5577 22.0023 18.3404 22.4492Z" fill="#E97158"/>
<path d="M108.451 27.7353L105.526 22.929L103.73 24.6282V27.262C103.73 27.9012 103.56 28.3948 103.22 28.7427C102.889 29.0826 102.504 29.2525 102.067 29.2525C101.558 29.2525 101.157 29.0826 100.866 28.7427C100.574 28.4029 100.429 27.9012 100.429 27.2377V13.1101C100.429 12.3737 100.57 11.8154 100.854 11.4351C101.137 11.0467 101.541 10.8525 102.067 10.8525C102.577 10.8525 102.982 11.0265 103.281 11.3744C103.58 11.7224 103.73 12.2362 103.73 12.9159V20.9507L107.456 17.0425C107.917 16.557 108.269 16.2253 108.512 16.0472C108.755 15.8692 109.05 15.7802 109.398 15.7802C109.811 15.7802 110.155 15.9137 110.43 16.1808C110.705 16.4397 110.842 16.7674 110.842 17.1639C110.842 17.6493 110.393 18.2967 109.495 19.1058L107.735 20.7201L111.134 26.0604C111.385 26.4569 111.563 26.7603 111.668 26.9707C111.781 27.173 111.838 27.3672 111.838 27.5533C111.838 28.0792 111.692 28.4959 111.401 28.8034C111.118 29.1028 110.741 29.2525 110.272 29.2525C109.867 29.2525 109.556 29.1432 109.337 28.9248C109.119 28.7063 108.824 28.3098 108.451 27.7353Z" fill="#323F5F"/>
<path d="M88.1824 17.613V18.0135C88.765 17.2448 89.4002 16.6825 90.0879 16.3264C90.7838 15.9623 91.5808 15.7803 92.479 15.7803C93.3528 15.7803 94.1337 15.9704 94.8214 16.3507C95.5092 16.731 96.023 17.2691 96.3628 17.965C96.5813 18.3695 96.7229 18.8065 96.7876 19.2758C96.8524 19.7451 96.8847 20.3438 96.8847 21.0721V27.2378C96.8847 27.9012 96.731 28.4029 96.4235 28.7428C96.1241 29.0826 95.7317 29.2525 95.2462 29.2525C94.7527 29.2525 94.3521 29.0786 94.0446 28.7306C93.7372 28.3827 93.5834 27.8851 93.5834 27.2378V21.7153C93.5834 20.623 93.4297 19.7896 93.1222 19.2151C92.8228 18.6325 92.22 18.3412 91.3138 18.3412C90.7231 18.3412 90.185 18.5192 89.6995 18.8752C89.2141 19.2232 88.858 19.7046 88.6315 20.3196C88.4696 20.8131 88.3887 21.7356 88.3887 23.0868V27.2378C88.3887 27.9093 88.2309 28.4151 87.9154 28.7549C87.6079 29.0866 87.2074 29.2525 86.7138 29.2525C86.2364 29.2525 85.844 29.0786 85.5365 28.7306C85.229 28.3827 85.0753 27.8851 85.0753 27.2378V17.6615C85.0753 17.0304 85.2128 16.5611 85.488 16.2536C85.7631 15.9381 86.1393 15.7803 86.6167 15.7803C86.908 15.7803 87.171 15.8491 87.4056 15.9866C87.6403 16.1242 87.8264 16.3305 87.9639 16.6056C88.1096 16.8807 88.1824 17.2165 88.1824 17.613Z" fill="#323F5F"/>
<path d="M74.7587 29.6652L75.0621 28.9248L70.984 18.6568C70.7332 18.0661 70.6078 17.6373 70.6078 17.3702C70.6078 17.087 70.6806 16.8241 70.8262 16.5813C70.9719 16.3386 71.1701 16.1444 71.4209 15.9987C71.6799 15.8531 71.9469 15.7803 72.222 15.7803C72.6994 15.7803 73.0595 15.934 73.3022 16.2415C73.545 16.5409 73.7594 16.9738 73.9455 17.5402L76.7492 25.6963L79.4072 18.1106C79.6176 17.4957 79.8077 17.0142 79.9776 16.6663C80.1476 16.3184 80.3256 16.0837 80.5117 15.9623C80.7059 15.841 80.9769 15.7803 81.3249 15.7803C81.5757 15.7803 81.8144 15.8491 82.041 15.9866C82.2756 16.1161 82.4536 16.2941 82.575 16.5206C82.7045 16.7472 82.7692 16.9859 82.7692 17.2367C82.7368 17.3905 82.6842 17.6089 82.6114 17.8921C82.5386 18.1753 82.4496 18.4626 82.3444 18.7539L78.0236 30.0657C77.6514 31.061 77.2872 31.8418 76.9312 32.4082C76.5752 32.9746 76.1018 33.4075 75.5112 33.7069C74.9286 34.0143 74.1397 34.1681 73.1444 34.1681C72.1735 34.1681 71.4452 34.0629 70.9597 33.8525C70.4742 33.6421 70.2315 33.2578 70.2315 32.6995C70.2315 32.3192 70.3448 32.0238 70.5713 31.8135C70.806 31.6112 71.1499 31.51 71.603 31.51C71.781 31.51 71.955 31.5343 72.1249 31.5829C72.3353 31.6314 72.5173 31.6557 72.6711 31.6557C73.0514 31.6557 73.3508 31.599 73.5692 31.4858C73.7877 31.3725 73.9819 31.1742 74.1518 30.891C74.3298 30.6159 74.5321 30.2073 74.7587 29.6652Z" fill="#323F5F"/>
<path d="M61.8326 26.1454L58.9561 15.4768L56.0432 26.1454C55.8166 26.9545 55.6346 27.5371 55.497 27.8931C55.3676 28.241 55.137 28.5566 54.8052 28.8398C54.4735 29.1149 54.0325 29.2525 53.4823 29.2525C53.0372 29.2525 52.6691 29.1675 52.3778 28.9976C52.0946 28.8358 51.864 28.6052 51.686 28.3058C51.5079 27.9983 51.3623 27.6382 51.249 27.2256C51.1357 26.8048 51.0346 26.4164 50.9456 26.0604L47.9841 14.081C47.8061 13.3852 47.7171 12.8552 47.7171 12.4911C47.7171 12.0298 47.8789 11.6415 48.2026 11.3259C48.5262 11.0103 48.9268 10.8525 49.4042 10.8525C50.0596 10.8525 50.5006 11.0629 50.7271 11.4837C50.9537 11.9044 51.1519 12.5153 51.3218 13.3164L53.6522 23.7058L56.2617 13.9839C56.4559 13.2395 56.6298 12.6731 56.7836 12.2847C56.9373 11.8963 57.1881 11.5605 57.5361 11.2773C57.884 10.9941 58.3573 10.8525 58.9561 10.8525C59.563 10.8525 60.0323 11.0022 60.364 11.3016C60.7039 11.5929 60.9385 11.9125 61.068 12.2604C61.1974 12.6084 61.3714 13.1829 61.5899 13.9839L64.2236 23.7058L66.554 13.3164C66.6673 12.7743 66.7724 12.3495 66.8695 12.042C66.9747 11.7345 67.1487 11.4594 67.3914 11.2167C67.6423 10.9739 68.0023 10.8525 68.4716 10.8525C68.9409 10.8525 69.3374 11.0103 69.6611 11.3259C69.9928 11.6334 70.1587 12.0218 70.1587 12.4911C70.1587 12.8228 70.0697 13.3528 69.8917 14.081L66.9302 26.0604C66.7279 26.8695 66.558 27.4643 66.4205 27.8446C66.291 28.2168 66.0644 28.5445 65.7408 28.8277C65.4252 29.1109 64.9761 29.2525 64.3936 29.2525C63.8433 29.2525 63.4024 29.1149 63.0706 28.8398C62.7389 28.5647 62.5083 28.2572 62.3788 27.9174C62.2493 27.5695 62.0673 26.9788 61.8326 26.1454Z" fill="#323F5F"/>
</svg>
