<?xml version="1.0" encoding="UTF-8" standalone="no"?>
<!-- Created with Inkscape (http://www.inkscape.org/) -->

<svg
   version="1.1"
   id="svg2781"
   xml:space="preserve"
   width="682.66669"
   height="682.66669"
   viewBox="0 0 682.66669 682.66669"
   xmlns="http://www.w3.org/2000/svg"
   xmlns:svg="http://www.w3.org/2000/svg"><defs
     id="defs2785"><clipPath
       clipPathUnits="userSpaceOnUse"
       id="clipPath2795"><path
         d="M 0,512 H 512 V 0 H 0 Z"
         id="path2793" /></clipPath></defs><g
     id="g2787"
     transform="matrix(1.3333333,0,0,-1.3333333,0,682.66667)"><g
       id="g2789"><g
         id="g2791"
         clip-path="url(#clipPath2795)"><g
           id="g2797"
           transform="translate(200.4121,429.7139)"><path
             d="m 0,0 c -1.167,14.991 -13.302,27.147 -28.291,28.339 -11.512,0.915 -21.823,-4.487 -27.858,-13.104 -6.036,8.617 -16.346,14.019 -27.859,13.104 -14.989,-1.192 -27.124,-13.348 -28.29,-28.339 -0.743,-9.541 2.851,-18.256 9.016,-24.39 h -0.001 l 38.838,-39.723 c 4.551,-4.655 12.041,-4.655 16.592,0 L -9.016,-24.39 H -9.017 C -2.851,-18.256 0.742,-9.541 0,0 Z"
             style="fill:none;stroke:#000000;stroke-width:15;stroke-linecap:round;stroke-linejoin:round;stroke-miterlimit:10;stroke-dasharray:none;stroke-opacity:1"
             id="path2799" /></g><g
           id="g2801"
           transform="translate(183.5088,503.1675)"><path
             d="m 0,0 h -146.716 c -16.178,0 -29.293,-13.115 -29.293,-29.293 v -124.124 c 0,-16.178 13.115,-29.293 29.293,-29.293 h 71.214 l 36.256,-46.82 36.257,46.82 h 71.214 c 16.177,0 29.293,13.115 29.293,29.293 V -29.293 C 97.518,-13.115 84.402,0 68.225,0 H 34"
             style="fill:none;stroke:#000000;stroke-width:15;stroke-linecap:round;stroke-linejoin:round;stroke-miterlimit:10;stroke-dasharray:none;stroke-opacity:1"
             id="path2803" /></g><g
           id="g2805"
           transform="translate(367.21,269.145)"><path
             d="m 0,0 c -7.402,0 -22.542,8.511 -23.446,20.792 l -1.716,23.293 C -26.239,58.71 -14.664,71.168 0,71.168 14.664,71.168 26.238,58.71 25.161,44.085 L 23.446,20.792 C 22.541,8.511 7.401,0 0,0 Z"
             style="fill:none;stroke:#000000;stroke-width:15;stroke-linecap:round;stroke-linejoin:round;stroke-miterlimit:10;stroke-dasharray:none;stroke-opacity:1"
             id="path2807" /></g><g
           id="g2809"
           transform="translate(354.3604,273.9907)"><path
             d="m 0,0 v -8.727 c 0,-1.196 -0.97,-2.166 -2.166,-2.166 h -21.929 c -8.361,0 -15.139,-6.778 -15.139,-15.139 V -54.383 H 64.933 v 28.351 c 0,8.361 -6.779,15.139 -15.14,15.139 H 27.864 c -1.196,0 -2.166,0.97 -2.166,2.166 V 0"
             style="fill:none;stroke:#000000;stroke-width:15;stroke-linecap:round;stroke-linejoin:round;stroke-miterlimit:10;stroke-dasharray:none;stroke-opacity:1"
             id="path2811" /></g><g
           id="g2813"
           transform="translate(82.7334,104.8594)"><path
             d="m 0,0 h 29.239 c 1.054,0 1.908,0.854 1.908,1.908 v 61.024 c 0,1.053 -0.854,1.908 -1.908,1.908 H 0 c -1.054,0 -1.908,-0.855 -1.908,-1.908 V 1.908 C -1.908,0.854 -1.054,0 0,0 Z"
             style="fill:none;stroke:#000000;stroke-width:15;stroke-linecap:round;stroke-linejoin:round;stroke-miterlimit:10;stroke-dasharray:none;stroke-opacity:1"
             id="path2815" /></g><g
           id="g2817"
           transform="translate(113.8809,108.938)"><path
             d="m 0,0 8.896,-0.002 c 3.986,0 7.791,-1.508 10.822,-4.096 7.447,-6.359 17.111,-10.198 27.672,-10.198 h 35.836 c 5.85,0 10.594,4.743 10.594,10.594 v 47.033 c 0,5.851 -4.744,10.594 -10.594,10.594 H 64.738 c -2.31,0 -4.184,1.874 -4.184,4.185 v 25.646 c 0,6.517 -5.283,11.8 -11.8,11.8 -6.517,0 -11.8,-5.283 -11.8,-11.8 v -0.245 c 0,-5.956 -2.366,-11.667 -6.577,-15.879 C 23.368,60.624 13.862,56.686 3.95,56.686 L 0,56.684"
             style="fill:none;stroke:#000000;stroke-width:15;stroke-linecap:round;stroke-linejoin:round;stroke-miterlimit:10;stroke-dasharray:none;stroke-opacity:1"
             id="path2819" /></g><g
           id="g2821"
           transform="translate(504.5,290.79)"><path
             d="M 0,0 V 51.503 C 0,67.744 -13.165,80.909 -29.406,80.909 H -223.474"
             style="fill:none;stroke:#000000;stroke-width:15;stroke-linecap:round;stroke-linejoin:round;stroke-miterlimit:10;stroke-dasharray:none;stroke-opacity:1"
             id="path2823" /></g><g
           id="g2825"
           transform="translate(229.9189,320.4575)"><path
             d="m 0,0 v -102.767 c 0,-16.241 13.166,-29.406 29.406,-29.406 h 71.489 l 36.396,-47.001 36.396,47.001 h 71.488 c 16.241,0 29.406,13.165 29.406,29.406 v 38.1"
             style="fill:none;stroke:#000000;stroke-width:15;stroke-linecap:round;stroke-linejoin:round;stroke-miterlimit:10;stroke-dasharray:none;stroke-opacity:1"
             id="path2827" /></g><g
           id="g2829"
           transform="translate(88.8574,55.6528)"><path
             d="M 0,0 H 19.149 L 55.405,-46.82 91.662,0 h 71.214 c 16.178,0 29.293,13.115 29.293,29.293 v 103.338"
             style="fill:none;stroke:#000000;stroke-width:15;stroke-linecap:round;stroke-linejoin:round;stroke-miterlimit:10;stroke-dasharray:none;stroke-opacity:1"
             id="path2831" /></g><g
           id="g2833"
           transform="translate(229.9189,238.3628)"><path
             d="m 0,0 h -193.126 c -16.179,0 -29.293,-13.115 -29.293,-29.293 v -124.124 c 0,-16.178 13.114,-29.293 29.293,-29.293 h 17.064"
             style="fill:none;stroke:#000000;stroke-width:15;stroke-linecap:round;stroke-linejoin:round;stroke-miterlimit:10;stroke-dasharray:none;stroke-opacity:1"
             id="path2835" /></g></g></g></g></svg>
