<svg preserveAspectRatio="none" width="100%" height="100%" overflow="visible" style="display: block;" viewBox="0 0 80 80" fill="none" xmlns="http://www.w3.org/2000/svg">
<g id="healthcare_1431236" clip-path="url(#clip0_0_412)">
<path id="Vector" d="M76.2002 41.7322C75.3537 41.5704 74.534 42.1252 74.3716 42.9724L74.3637 43.0139C74.2007 43.8611 74.7561 44.6802 75.6039 44.8425C75.7028 44.862 75.8023 44.8712 75.8999 44.8712C76.6342 44.8712 77.2891 44.3506 77.4325 43.6029L77.4404 43.5614C77.6034 42.7136 77.048 41.8951 76.2002 41.7322Z" fill="var(--fill-0, #00BFDA)"/>
<path id="Vector_2" d="M76.6507 24.7993C74.5517 24.3629 71.9815 25.4224 71.3516 28.2447L69.1696 38.0182C67.5723 37.5049 65.7486 37.9535 64.5822 39.2999L61.7337 42.5909C59.6689 44.9762 59.6689 44.9762 57.5132 45.5499C57.0096 45.6836 56.3834 45.8502 55.6229 46.073C46.8284 48.6505 43.3781 56.7339 43.0052 63.3709C41.8174 63.9415 40.9959 65.1567 40.9959 66.5599V69.2717C40.9959 71.2224 42.5822 72.8087 44.5329 72.8087H58.8614C60.8115 72.8087 62.3984 71.2224 62.3984 69.2717V66.5599C62.3984 65.8922 62.2116 65.2666 61.8888 64.7332L68.3121 61.2835C68.3188 61.2798 68.3249 61.2761 68.3316 61.2725C73.9395 58.156 74.9014 56.7541 76.2509 49.7344C76.4138 48.8873 75.859 48.0682 75.0119 47.9052C74.1647 47.7429 73.3456 48.2971 73.1826 49.1449C71.9638 55.4852 71.4169 55.9826 66.824 58.5357L58.4684 63.023H46.1619C46.6172 57.5481 49.5005 51.1236 56.5024 49.0722C57.2251 48.8598 57.8049 48.7054 58.317 48.5693C61.0538 47.8411 61.5525 47.5756 64.0964 44.6362L66.9455 41.3452C67.3746 40.8496 68.1284 40.7953 68.624 41.225C69.2374 41.7554 68.9139 42.6282 68.6258 43.0603C67.1432 45.2862 65.6821 47.4096 64.2691 49.4628C63.5465 50.5133 62.8244 51.5631 62.0957 52.6306C61.6092 53.3434 61.7929 54.3157 62.5058 54.8022C63.2187 55.288 64.1904 55.1049 64.6768 54.392C65.4031 53.3276 66.1234 52.2808 66.8436 51.2341C68.2626 49.1711 69.7305 47.0379 71.2265 44.7925C72.1341 43.4295 72.3147 41.8396 71.8161 40.5102L74.4021 28.9252C74.6865 27.6502 75.7949 27.8132 76.0147 27.8589C76.3821 27.9352 77.2122 28.2355 76.9924 29.375L75.2218 38.5632C75.0589 39.411 75.6131 40.2301 76.4602 40.3931C77.3074 40.5554 78.1271 40.0018 78.29 39.1547L80.0607 29.9665C80.6027 27.1522 78.7551 25.2369 76.6507 24.7993ZM59.2734 69.2717C59.2734 69.4951 59.0842 69.6837 58.8608 69.6837H44.5323C44.3089 69.6837 44.1203 69.4951 44.1203 69.2717V66.5599C44.1203 66.3365 44.3089 66.1479 44.5323 66.1479H58.8578H58.862H58.8633C59.0854 66.1498 59.2734 66.3378 59.2734 66.5599V69.2717Z" fill="var(--fill-0, #00BFDA)"/>
<path id="Vector_3" d="M37.307 63.3703C36.9346 56.7333 33.4837 48.6505 24.6892 46.073C23.9287 45.8502 23.3025 45.6836 22.799 45.5499C20.6432 44.9762 20.6432 44.9762 18.5784 42.5909L15.7299 39.2999C14.5635 37.9535 12.7398 37.5049 11.1419 38.0182L8.96053 28.2441C8.33065 25.4218 5.76047 24.3641 3.66209 24.7993C1.557 25.2369 -0.290526 27.1522 0.252074 29.9665C0.415037 30.8136 1.23474 31.3678 2.0819 31.2049C2.92906 31.0413 3.48326 30.2222 3.3203 29.375C3.10057 28.2355 3.93065 27.9346 4.29747 27.8589C4.51658 27.8132 5.62619 27.6502 5.91062 28.9252L8.49667 40.5103C7.9974 41.8396 8.17867 43.4295 9.08626 44.7918C10.5822 47.0379 12.0501 49.1711 13.4692 51.2341C14.1894 52.2802 14.9096 53.327 15.6359 54.3914C16.1224 55.1043 17.094 55.288 17.8069 54.8016C18.5198 54.3151 18.7035 53.3434 18.2171 52.6306C17.4883 51.5624 16.7657 50.5126 16.0436 49.4628C14.6307 47.4096 13.1695 45.2862 11.6863 43.0597C11.3989 42.6282 11.0754 41.7554 11.6882 41.2244C12.1844 40.7953 12.9376 40.849 13.3672 41.3452L16.2164 44.6362C18.7603 47.5756 19.2589 47.8411 21.9957 48.5693C22.5072 48.7054 23.0871 48.8598 23.8103 49.0722C30.8122 51.1236 33.6949 57.5481 34.1502 63.023H21.8438L13.4887 58.5357C8.89583 55.9826 8.34896 55.4852 7.13009 49.1442L5.35947 39.9554C5.1959 39.1083 4.37681 38.5547 3.52965 38.717C2.68248 38.8806 2.12768 39.6997 2.29125 40.5469L4.06187 49.7345C5.41135 56.7541 6.37326 58.156 11.9811 61.2725C11.9872 61.2761 11.994 61.2798 12.0007 61.2835L18.424 64.7332C18.1005 65.2666 17.9143 65.8922 17.9143 66.5599V69.2717C17.9143 71.2224 19.5013 72.8087 21.4513 72.8087H35.7799C37.7299 72.8087 39.3168 71.2224 39.3168 69.2717V66.5599C39.3168 65.1567 38.4947 63.9415 37.307 63.3703ZM36.1919 69.2717C36.1919 69.4951 36.0033 69.6837 35.7799 69.6837H21.4513C21.2279 69.6837 21.0387 69.4951 21.0387 69.2717V66.5599C21.0387 66.3372 21.2267 66.1498 21.4489 66.1479H21.4495H21.4544H35.7799C36.0033 66.1479 36.1919 66.3365 36.1919 66.5599V69.2717Z" fill="var(--fill-0, #00BFDA)"/>
<path id="Vector_4" d="M3.27025 37.3779C4.11741 37.2156 4.67283 36.3965 4.50987 35.5493L4.50193 35.5078C4.33958 34.6607 3.52049 34.1052 2.67333 34.2682C1.82555 34.4306 1.27075 35.249 1.4331 36.0968L1.44103 36.1383C1.58508 36.886 2.23937 37.4066 2.97362 37.4066C3.07128 37.4066 3.17076 37.3969 3.27025 37.3779Z" fill="var(--fill-0, #00BFDA)"/>
<path id="Vector_5" d="M26.6155 31.1444H33.3855V37.915C33.3855 39.9249 35.0212 41.5607 37.0311 41.5607H43.281C45.2909 41.5607 46.9261 39.9249 46.9261 37.915V31.1444H53.6967C55.7071 31.1444 57.3423 29.5093 57.3423 27.4988V21.2495C57.3423 19.239 55.7071 17.6039 53.6967 17.6039H46.9261V10.8333C46.9261 8.82338 45.2909 7.18765 43.281 7.18765H37.0311C35.0212 7.18765 33.3855 8.82338 33.3855 10.8333V17.6039H26.6155C24.605 17.6039 22.9699 19.239 22.9699 21.2495V27.4988C22.9699 29.5093 24.605 31.1444 26.6155 31.1444ZM26.0949 21.2495C26.0949 20.9669 26.3329 20.7282 26.6155 20.7282H34.948C35.811 20.7282 36.5105 20.0288 36.5105 19.1664V10.8333C36.5105 10.5513 36.7491 10.3126 37.0311 10.3126H43.281C43.563 10.3126 43.8017 10.5513 43.8017 10.8333V19.1664C43.8017 20.0288 44.5011 20.7282 45.3642 20.7282H53.6967C53.9792 20.7282 54.2173 20.9669 54.2173 21.2495V27.4988C54.2173 27.7814 53.9792 28.0195 53.6967 28.0195H45.3642C44.5011 28.0195 43.8017 28.7195 43.8017 29.582V37.915C43.8017 38.1976 43.563 38.4357 43.281 38.4357H37.0311C36.7491 38.4357 36.5105 38.1976 36.5105 37.915V29.582C36.5105 28.7195 35.811 28.0195 34.948 28.0195H26.6155C26.3329 28.0195 26.0949 27.7814 26.0949 27.4988V21.2495Z" fill="var(--fill-0, #00BFDA)"/>
</g>
<defs>
<clipPath id="clip0_0_412">
<rect width="80" height="80" fill="white"/>
</clipPath>
</defs>
</svg>
