<svg preserveAspectRatio="none" width="100%" height="100%" overflow="visible" style="display: block;" viewBox="0 0 79.9998 72.8181" fill="none" xmlns="http://www.w3.org/2000/svg">
<g id="Group">
<path id="Vector" d="M17.0846 19.1363H41.6704C42.3181 19.1363 42.8431 18.6113 42.8431 17.9637C42.8431 17.3161 42.3181 16.791 41.6704 16.791H17.0846C16.437 16.791 15.912 17.3161 15.912 17.9637C15.912 18.6113 16.437 19.1363 17.0846 19.1363Z" fill="var(--fill-0, #00BFDA)"/>
<path id="Vector_2" d="M1.17266 55.3468C1.82028 55.3468 2.34532 54.8217 2.34532 54.1741V29.3693H37.7388C38.3864 29.3693 38.9115 28.8442 38.9115 28.1966C38.9115 27.549 38.3864 27.0239 37.7388 27.0239H2.34532V24.9549C2.34532 21.7465 4.9555 19.1363 8.16389 19.1363H12.0873C12.7349 19.1363 13.26 18.6113 13.26 17.9637C13.26 17.3161 12.7349 16.791 12.0873 16.791H8.16389C3.66229 16.791 0 20.4533 0 24.9549V54.1741C0 54.8219 0.525038 55.3468 1.17266 55.3468Z" fill="var(--fill-0, #00BFDA)"/>
<path id="Vector_3" d="M75.4377 44.4668C74.7901 44.4668 74.2651 44.9918 74.2651 45.6395V64.6543C74.2651 67.8627 71.6549 70.4728 68.4467 70.4728H8.16389C4.9555 70.4729 2.34532 67.8627 2.34532 64.6543V59.1713C2.34532 58.5237 1.82028 57.9986 1.17266 57.9986C0.525038 57.9986 0 58.5237 0 59.1713V64.6543C0 69.1559 3.66229 72.8181 8.16389 72.8181H68.4465C72.9481 72.8181 76.6102 69.1558 76.6102 64.6543V45.6395C76.6104 44.9918 76.0854 44.4668 75.4377 44.4668Z" fill="var(--fill-0, #00BFDA)"/>
<path id="Vector_4" d="M42.5431 28.801C42.6235 33.672 44.5824 38.264 48.059 41.7313C51.5354 45.1983 56.1328 47.1451 61.0042 47.2128C61.0939 47.214 61.1831 47.2147 61.2726 47.2147C66.2277 47.2145 70.8883 45.3053 74.4211 41.8211C78.0185 38.2732 79.9998 33.5371 79.9998 28.485C79.9998 26.3421 79.6393 24.2381 78.9283 22.2311C78.7121 21.6207 78.0417 21.3009 77.4314 21.5173C76.821 21.7336 76.5014 22.4037 76.7177 23.0143C77.3393 24.769 77.6544 26.6097 77.6544 28.485C77.6544 32.9045 75.9212 37.0476 72.7742 40.1512C69.6278 43.2541 65.4631 44.9331 61.0365 44.8676C56.7782 44.8085 52.7574 43.1049 49.7149 40.0707C46.6724 37.0365 44.9582 33.0203 44.8878 28.7622C44.8096 24.0342 46.7766 19.503 50.2837 16.3309C50.3752 16.2482 50.4956 16.2027 50.623 16.2027H71.9166C72.0441 16.2027 72.1648 16.2484 72.2564 16.3312C73.0893 17.0845 73.8475 17.9265 74.5102 18.8337C74.8922 19.3567 75.626 19.4711 76.1488 19.0888C76.6718 18.7069 76.7861 17.9733 76.404 17.4503C75.6471 16.4139 74.7809 15.4522 73.8296 14.5918C73.3058 14.1182 72.6265 13.8572 71.9166 13.8572H71.517V10.247C71.517 4.59682 66.9202 0 61.2698 0C55.6195 0 51.0227 4.59682 51.0227 10.247V13.8572H50.6229C49.913 13.8572 49.2338 14.1179 48.7103 14.5913C44.7019 18.2175 42.4538 23.3966 42.5431 28.801ZM64.4813 13.8574H58.0591V10.2472C58.0591 8.4766 59.4996 7.03611 61.2703 7.03611C63.041 7.03611 64.4815 8.4766 64.4815 10.2472V13.8574H64.4813ZM53.3685 10.247C53.3685 5.89003 56.9132 2.34532 61.2703 2.34532C65.6274 2.34532 69.1721 5.89003 69.1721 10.247V13.8572H66.8268V10.247C66.8268 7.18324 64.3342 4.69063 61.2703 4.69063C58.2064 4.69063 55.7138 7.18324 55.7138 10.247V13.8572H53.3685V10.247Z" fill="var(--fill-0, #00BFDA)"/>
<path id="Vector_5" d="M7.48391 22.4541C6.83629 22.4541 6.31125 22.9791 6.31125 23.6267C6.31125 24.2743 6.83629 24.7994 7.48391 24.7994H8.46347C9.11109 24.7994 9.63612 24.2743 9.63612 23.6267C9.63612 22.9791 9.11109 22.4541 8.46347 22.4541H7.48391Z" fill="var(--fill-0, #00BFDA)"/>
<path id="Vector_6" d="M12.4338 23.6267C12.4338 24.2743 12.9588 24.7994 13.6064 24.7994H14.586C15.2336 24.7994 15.7587 24.2743 15.7587 23.6267C15.7587 22.9791 15.2336 22.4541 14.586 22.4541H13.6064C12.9588 22.4541 12.4338 22.9791 12.4338 23.6267Z" fill="var(--fill-0, #00BFDA)"/>
<path id="Vector_7" d="M19.7291 22.4541C19.0815 22.4541 18.5565 22.9791 18.5565 23.6267C18.5565 24.2743 19.0815 24.7994 19.7291 24.7994H20.7087C21.3563 24.7994 21.8813 24.2743 21.8813 23.6267C21.8813 22.9791 21.3563 22.4541 20.7087 22.4541H19.7291Z" fill="var(--fill-0, #00BFDA)"/>
<path id="Vector_8" d="M25.8516 22.4541C25.204 22.4541 24.679 22.9791 24.679 23.6267C24.679 24.2743 25.204 24.7994 25.8516 24.7994H37.7388C38.3864 24.7994 38.9115 24.2743 38.9115 23.6267C38.9115 22.9791 38.3864 22.4541 37.7388 22.4541H25.8516Z" fill="var(--fill-0, #00BFDA)"/>
<path id="Vector_9" d="M56.635 35.3463C57.095 35.9745 57.8054 36.3348 58.5841 36.3348H63.9561C64.7348 36.3348 65.4452 35.9745 65.9052 35.3463C66.3652 34.718 66.4944 33.9321 66.2594 33.1897L65.2177 29.9001C66.0111 28.9171 66.4065 27.6812 66.3319 26.4131C66.182 23.8599 64.1439 21.8149 61.5914 21.6567C60.175 21.5686 58.8282 22.0535 57.7979 23.0218C56.7819 23.9767 56.1994 25.3235 56.1994 26.7172C56.1994 27.8738 56.5979 29.002 57.3226 29.9L56.2808 33.1897C56.046 33.9321 56.175 34.718 56.635 35.3463ZM58.5169 33.8975L59.5794 30.542C59.8071 29.8228 59.6521 29.04 59.1648 28.4479C58.7592 27.9556 58.5447 27.3569 58.5447 26.7172C58.5447 25.9572 58.8499 25.2516 59.4042 24.7308C59.915 24.2507 60.5718 23.9918 61.2698 23.9918C61.3284 23.9918 61.3872 23.9937 61.4463 23.9973C62.7939 24.0809 63.9116 25.2025 63.9907 26.5506C64.0315 27.244 63.8124 27.9185 63.374 28.4498C62.8873 29.0397 62.7328 29.8217 62.9609 30.5417L64.0235 33.8973C64.0273 33.9094 64.0343 33.9316 64.0132 33.9605C63.9921 33.9894 63.9688 33.9894 63.9563 33.9894H58.5842C58.5717 33.9894 58.5484 33.9894 58.5273 33.9605C58.5061 33.9317 58.5131 33.9095 58.5169 33.8975Z" fill="var(--fill-0, #00BFDA)"/>
<path id="Vector_10" d="M11.8899 38.1109C11.8899 37.4633 11.3649 36.9383 10.7173 36.9383C10.0697 36.9383 9.54463 37.4633 9.54463 38.1109V44.6863C9.54463 45.3339 10.0697 45.8589 10.7173 45.8589C11.3649 45.8589 11.8899 45.3339 11.8899 44.6863V38.1109Z" fill="var(--fill-0, #00BFDA)"/>
<path id="Vector_11" d="M32.422 38.1109C32.422 37.4633 31.8969 36.9383 31.2493 36.9383C30.6017 36.9383 30.0767 37.4633 30.0767 38.1109V44.6863C30.0767 45.3339 30.6017 45.8589 31.2493 45.8589C31.8969 45.8589 32.422 45.3339 32.422 44.6863V38.1109Z" fill="var(--fill-0, #00BFDA)"/>
<path id="Vector_12" d="M24.6887 40.6437C24.6887 38.6006 23.0265 36.9383 20.9833 36.9383C18.94 36.9383 17.2778 38.6005 17.2778 40.6437V42.1536C17.2778 44.1967 18.94 45.8591 20.9833 45.8591C23.0265 45.8591 24.6887 44.1969 24.6887 42.1536V40.6437ZM22.3434 42.1536C22.3434 42.9035 21.7333 43.5138 20.9833 43.5138C20.2332 43.5138 19.6231 42.9037 19.6231 42.1536V40.6437C19.6231 39.8938 20.2332 39.2836 20.9833 39.2836C21.7333 39.2836 22.3434 39.8937 22.3434 40.6437V42.1536Z" fill="var(--fill-0, #00BFDA)"/>
<path id="Vector_13" d="M10.7173 53.4277C10.0697 53.4277 9.54468 53.9528 9.54468 54.6004V61.1757C9.54468 61.8233 10.0697 62.3484 10.7173 62.3484C11.365 62.3484 11.89 61.8233 11.89 61.1757V54.6004C11.89 53.9526 11.365 53.4277 10.7173 53.4277Z" fill="var(--fill-0, #00BFDA)"/>
<path id="Vector_14" d="M31.2493 53.4277C30.6017 53.4277 30.0767 53.9528 30.0767 54.6004V61.1757C30.0767 61.8233 30.6017 62.3484 31.2493 62.3484C31.8969 62.3484 32.422 61.8233 32.422 61.1757V54.6004C32.422 53.9526 31.8969 53.4277 31.2493 53.4277Z" fill="var(--fill-0, #00BFDA)"/>
<path id="Vector_15" d="M20.9834 53.4277C18.9403 53.4277 17.278 55.0899 17.278 57.1332V58.6431C17.278 60.6862 18.9402 62.3484 20.9834 62.3484C23.0266 62.3484 24.6888 60.6862 24.6888 58.6431V57.1332C24.6887 55.0899 23.0265 53.4277 20.9834 53.4277ZM22.3434 58.6429C22.3434 59.3928 21.7333 60.0029 20.9832 60.0029C20.2332 60.0029 19.6231 59.3928 19.6231 58.6429V57.133C19.6231 56.3831 20.2332 55.7729 20.9832 55.7729C21.7333 55.7729 22.3434 56.383 22.3434 57.133V58.6429Z" fill="var(--fill-0, #00BFDA)"/>
<path id="Vector_16" d="M49.9314 54.6004V61.1757C49.9314 61.8233 50.4564 62.3484 51.1041 62.3484C51.7517 62.3484 52.2767 61.8233 52.2767 61.1757V54.6004C52.2767 53.9528 51.7517 53.4277 51.1041 53.4277C50.4564 53.4277 49.9314 53.9526 49.9314 54.6004Z" fill="var(--fill-0, #00BFDA)"/>
<path id="Vector_17" d="M37.1324 57.1332V58.6431C37.1324 60.6862 38.7946 62.3484 40.8379 62.3484C42.8811 62.3484 44.5433 60.6862 44.5433 58.6431V57.1332C44.5433 55.0901 42.8811 53.4277 40.8379 53.4277C38.7946 53.4277 37.1324 55.0901 37.1324 57.1332ZM42.198 57.1332V58.6431C42.198 59.393 41.5879 60.0031 40.8379 60.0031C40.0879 60.0031 39.4778 59.393 39.4778 58.6431V57.1332C39.4778 56.3833 40.0879 55.7731 40.8379 55.7731C41.5879 55.7731 42.198 56.3833 42.198 57.1332Z" fill="var(--fill-0, #00BFDA)"/>
<path id="Vector_18" d="M57.6646 57.1332V58.6431C57.6646 60.6862 59.3268 62.3484 61.37 62.3484C63.4132 62.3484 65.0754 60.6862 65.0754 58.6431V57.1332C65.0754 55.0901 63.4132 53.4277 61.37 53.4277C59.3268 53.4277 57.6646 55.0901 57.6646 57.1332ZM62.7301 57.1332V58.6431C62.7301 59.393 62.12 60.0031 61.37 60.0031C60.62 60.0031 60.0099 59.393 60.0099 58.6431V57.1332C60.0099 56.3833 60.62 55.7731 61.37 55.7731C62.12 55.7731 62.7301 56.3833 62.7301 57.1332Z" fill="var(--fill-0, #00BFDA)"/>
</g>
</svg>
