<svg preserveAspectRatio="none" width="100%" height="100%" overflow="visible" style="display: block;" viewBox="0 0 79.6543 66.8939" fill="none" xmlns="http://www.w3.org/2000/svg">
<g id="Group">
<path d="M58.9904 55.8679H4.12761C2.40023 55.8679 1 54.4677 1 52.7403V4.12761C1 2.40023 2.40023 1 4.12761 1H75.5267C77.2541 1 78.6543 2.40023 78.6543 4.12761V52.7405C78.6543 54.4679 77.2541 55.8681 75.5267 55.8681H64.6201" stroke="#00BFDA" stroke-width="2" stroke-miterlimit="10" stroke-linecap="round" stroke-linejoin="round"/>
<path d="M48.4094 55.8679L51.537 65.8937" stroke="#00BFDA" stroke-width="2" stroke-miterlimit="10" stroke-linecap="round" stroke-linejoin="round"/>
<path d="M28.1171 65.8937L31.2448 55.8679" stroke="#00BFDA" stroke-width="2" stroke-miterlimit="10" stroke-linecap="round" stroke-linejoin="round"/>
<path d="M22.4554 65.8937H57.1987" stroke="#00BFDA" stroke-width="2" stroke-miterlimit="10" stroke-linecap="round" stroke-linejoin="round"/>
<path d="M1 47.9735H78.3415" stroke="#00BFDA" stroke-width="2" stroke-miterlimit="10" stroke-linecap="round" stroke-linejoin="round"/>
<path d="M53.5513 21.4447C52.4163 21.4447 51.4028 21.9636 50.7338 22.7766C50.638 22.8931 50.4603 22.8931 50.3645 22.7766C49.6956 21.9634 48.6821 21.4447 47.5469 21.4447C45.5325 21.4447 43.8995 23.0778 43.8995 25.0921C43.8995 27.1072 45.5772 28.2698 47.0545 29.3163C48.1004 30.0572 49.1739 30.762 50.2628 31.4388C50.4375 31.5473 50.6583 31.5475 50.8333 31.4396C51.9037 30.7803 55.6476 28.4326 56.3656 27.4128C56.8363 26.7441 57.1989 25.9738 57.1989 25.0921C57.1987 23.0776 55.5658 21.4447 53.5513 21.4447Z" stroke="#00BFDA" stroke-width="2" stroke-miterlimit="10" stroke-linecap="round" stroke-linejoin="round"/>
<path d="M41.8672 16.5079H64.1195C64.746 16.5079 65.2537 17.0157 65.2537 17.6422V47.9736H14.4006V36.2857" stroke="#00BFDA" stroke-width="2" stroke-miterlimit="10" stroke-linecap="round" stroke-linejoin="round"/>
<path d="M23.2076 42.9537H30.387" stroke="#00BFDA" stroke-width="2" stroke-miterlimit="10" stroke-linecap="round" stroke-linejoin="round"/>
<path d="M36.2375 37.865H43.4168" stroke="#00BFDA" stroke-width="2" stroke-miterlimit="10" stroke-linecap="round" stroke-linejoin="round"/>
<path d="M36.2375 42.9537H43.4168" stroke="#00BFDA" stroke-width="2" stroke-miterlimit="10" stroke-linecap="round" stroke-linejoin="round"/>
<path d="M49.2673 37.865H56.4466" stroke="#00BFDA" stroke-width="2" stroke-miterlimit="10" stroke-linecap="round" stroke-linejoin="round"/>
<path d="M49.2673 42.9537H56.4466" stroke="#00BFDA" stroke-width="2" stroke-miterlimit="10" stroke-linecap="round" stroke-linejoin="round"/>
<path d="M16.9638 28.5228C14.8508 29.7255 13.1981 31.6438 12.3346 33.9478" stroke="#00BFDA" stroke-width="2" stroke-miterlimit="10" stroke-linecap="round" stroke-linejoin="round"/>
<path d="M31.9173 33.9478C31.0213 31.5567 29.2751 29.581 27.0466 28.3896" stroke="#00BFDA" stroke-width="2" stroke-miterlimit="10" stroke-linecap="round" stroke-linejoin="round"/>
<path d="M28.3803 22.8074V24.2849C28.3803 27.7123 25.6019 30.4907 22.1745 30.4907C18.7471 30.4907 15.9687 27.7123 15.9687 24.2849V22.8878" stroke="#00BFDA" stroke-width="2" stroke-miterlimit="10" stroke-linecap="round" stroke-linejoin="round"/>
<path d="M22.1261 37.6155C30.366 37.6155 37.0458 30.9357 37.0458 22.6958C37.0458 14.4558 30.366 7.77596 22.1261 7.77596C13.8861 7.77596 7.20627 14.4558 7.20627 22.6958C7.20627 30.9357 13.8861 37.6155 22.1261 37.6155Z" stroke="#00BFDA" stroke-width="2" stroke-miterlimit="10" stroke-linecap="round" stroke-linejoin="round"/>
<path d="M28.3803 22.8074V20.7765C28.3803 17.3491 25.6019 14.5707 22.1745 14.5707C18.7471 14.5707 15.9687 17.3491 15.9687 20.7765V22.8074" stroke="#00BFDA" stroke-width="2" stroke-miterlimit="10" stroke-linecap="round" stroke-linejoin="round"/>
<path d="M15.9687 22.3663C19.9705 22.3663 21.4621 20.9909 21.9565 20.3069C22.0602 20.1633 22.2887 20.1633 22.3925 20.3069C22.8868 20.9909 24.3786 22.3663 28.3803 22.3663" stroke="#00BFDA" stroke-width="2" stroke-miterlimit="10" stroke-linecap="round" stroke-linejoin="round"/>
</g>
</svg>
