<svg preserveAspectRatio="none" width="100%" height="100%" overflow="visible" style="display: block;" viewBox="0 0 80.6562 65.8131" fill="none" xmlns="http://www.w3.org/2000/svg">
<g id="Group">
<path id="Union" d="M11.1543 0C11.9827 4.20039e-05 12.6543 0.671599 12.6543 1.5C12.6543 2.3284 11.9827 2.99996 11.1543 3H7.42285C4.97458 3 3.00017 4.9749 3 7.39844V27.0469C3.00017 29.4704 4.97458 31.4453 7.42285 31.4453H18.0547C18.9124 31.4455 19.6468 32.0052 19.9004 32.793L20.0176 33.1758C20.3064 34.176 20.442 35.0969 20.4873 35.9062C21.3082 34.9482 21.6433 33.8522 21.7773 33.0576C21.936 32.117 22.751 31.4453 23.6875 31.4453H33.5273C34.3663 28.2722 37.2645 25.9375 40.7041 25.9375H44.375V7.39844C44.3748 4.97495 42.4004 3.00008 39.9521 3H16.9102C16.0817 3 15.4102 2.32843 15.4102 1.5C15.4102 0.671573 16.0817 0 16.9102 0H39.9521C44.0458 8.21662e-05 47.3748 3.30669 47.375 7.39844V25.9375H73.2334L73.6152 25.9473C77.5321 26.1451 80.6561 29.372 80.6562 33.3359V45.4111C80.6562 46.2396 79.9847 46.9111 79.1562 46.9111C78.3279 46.911 77.6562 46.2395 77.6562 45.4111V33.3359C77.6561 30.9882 75.8034 29.0615 73.4619 28.9434L73.2334 28.9375H40.7041C38.2558 28.9375 36.2814 30.9124 36.2812 33.3359V52.9844C36.2815 55.4078 38.256 57.3828 40.7041 57.3828H56.9688C57.9052 57.3828 58.7202 58.0545 58.8789 58.9951L58.9189 59.2129C59.0753 59.9827 59.4199 60.9705 60.168 61.8438C60.219 60.9321 60.3859 59.8791 60.7559 58.7305L60.8086 58.5859C61.1013 57.8751 61.7973 57.383 62.6016 57.3828H73.2334C75.6817 57.3828 77.6561 55.4079 77.6562 52.9844V50.9053C77.6564 50.077 78.3279 49.4053 79.1562 49.4053C79.9846 49.4053 80.6561 50.077 80.6562 50.9053V52.9844C80.6561 57.0762 77.3271 60.3828 73.2334 60.3828H63.4072C63.1058 61.6405 63.1204 62.6812 63.2012 63.3818C63.4131 65.2176 61.4235 66.4175 59.8975 65.4951V65.4941C57.5381 64.0678 56.5389 61.9526 56.1162 60.3828H40.7041C36.6106 60.3828 33.2815 57.0761 33.2812 52.9844V34.4453H24.54C24.1173 36.0151 23.1181 38.1303 20.7588 39.5566V39.5576C19.2327 40.48 17.2432 39.2801 17.4551 37.4443C17.5358 36.7437 17.5505 35.703 17.249 34.4453H7.42285C3.32915 34.4453 0.000169384 31.1387 0 27.0469V7.39844C0.000169387 3.30664 3.32915 0 7.42285 0H11.1543ZM49.4248 30.625C50.9063 30.6252 52.159 31.8127 52.1592 33.3359V52.9844C52.159 54.5079 50.9062 55.6951 49.4248 55.6953H40.7041C39.2224 55.6953 37.9688 54.5078 37.9688 52.9844V33.3359C37.9689 31.8123 39.2225 30.625 40.7041 30.625H49.4248ZM63.1406 49.7266C63.9691 49.7266 64.6406 50.3981 64.6406 51.2266C64.6406 52.055 63.9691 52.7266 63.1406 52.7266H56.9688C56.1403 52.7266 55.4688 52.055 55.4688 51.2266C55.4688 50.3981 56.1403 49.7266 56.9688 49.7266H63.1406ZM40.9688 52.6953H49.1592V33.625H40.9688V52.6953ZM71.0615 43.5547C71.89 43.5547 72.5615 44.2263 72.5615 45.0547C72.5615 45.8831 71.89 46.5547 71.0615 46.5547H56.9688C56.1403 46.5547 55.4688 45.8831 55.4688 45.0547C55.4688 44.2263 56.1403 43.5547 56.9688 43.5547H71.0615ZM71.0615 38.5547C71.89 38.5547 72.5615 39.2263 72.5615 40.0547C72.5615 40.8831 71.89 41.5547 71.0615 41.5547H56.9688C56.1403 41.5547 55.4688 40.8831 55.4688 40.0547C55.4688 39.2263 56.1403 38.5547 56.9688 38.5547H71.0615ZM63.1406 33.5547C63.9691 33.5547 64.6406 34.2263 64.6406 35.0547C64.6406 35.8831 63.9691 36.5547 63.1406 36.5547H56.9688C56.1403 36.5547 55.4688 35.8831 55.4688 35.0547C55.4688 34.2263 56.1403 33.5547 56.9688 33.5547H63.1406ZM23.6875 24.9463C24.5159 24.9463 25.1875 25.6179 25.1875 26.4463V26.7637C25.1872 27.5919 24.5158 28.2637 23.6875 28.2637C22.8592 28.2637 22.1878 27.5919 22.1875 26.7637V26.4463C22.1875 25.6179 22.8591 24.9463 23.6875 24.9463ZM24.1641 5.42969C27.5077 5.66031 30.2065 8.35864 30.4375 11.7021L30.4512 11.998C30.5318 15.037 28.6039 17.6385 25.9023 18.5742C25.4886 18.7176 25.1877 19.1287 25.1875 19.6123V21.5713C25.1875 22.3997 24.5158 23.0712 23.6875 23.0713C22.8592 23.0711 22.1875 22.3996 22.1875 21.5713V19.6123C22.1877 17.8965 23.256 16.3159 24.9209 15.7393C26.4763 15.2003 27.5659 13.6732 27.4443 11.9092C27.3166 10.0598 25.8074 8.55061 23.958 8.42285C21.7537 8.27108 19.9211 10.0111 19.9209 12.1797C19.9208 13.008 19.2492 13.6797 18.4209 13.6797C17.5927 13.6795 16.921 13.0079 16.9209 12.1797C16.9211 8.28483 20.214 5.15755 24.1641 5.42969Z" fill="var(--fill-0, #00BFDA)"/>
</g>
</svg>
