<svg preserveAspectRatio="none" width="100%" height="100%" overflow="visible" style="display: block;" viewBox="0 0 80 80" fill="none" xmlns="http://www.w3.org/2000/svg">
<g id="gdpr_1425766 1">
<path id="Vector" d="M71.9837 38.9059C71.3764 38.9059 70.8847 39.3971 70.8847 40.0044V59.4318H57.4735C60.1948 54.1402 61.8551 48.3185 62.3069 42.4109C62.3917 41.3056 61.7657 40.2617 60.7493 39.8145C59.2733 39.1636 57.7873 38.5857 56.2925 38.0808C56.5837 37.5886 56.7479 37.0167 56.7479 36.4149C56.7479 34.6931 55.4009 33.2575 53.68 33.1474L52.409 33.0685C52.3356 33.0639 52.2701 33.0167 52.2425 32.9497L51.1009 30.1905C51.0725 30.1217 51.0849 30.0441 51.134 29.9886L51.9756 29.0342C53.1163 27.7417 53.0548 25.774 51.8353 24.5549C50.6157 23.3353 48.6485 23.2739 47.3565 24.4141L46.4093 25.2489C46.3703 25.2718 46.2882 25.2892 46.2286 25.2892V9.09446H52.3196C52.5269 10.1164 53.025 11.0896 53.8162 11.8804C55.9577 14.0223 59.443 14.0223 61.585 11.8804C63.7264 9.73842 63.7264 6.25353 61.585 4.11114C59.443 1.9692 55.9577 1.9692 53.8162 4.11114C53.025 4.90187 52.5265 5.87606 52.3196 6.89703H45.1301C44.5233 6.89703 44.0312 7.38871 44.0312 7.99598V24.3926L43.4413 24.1481C43.3735 24.1201 43.3262 24.0541 43.3216 23.9816L43.2423 22.7079C43.1322 20.9884 41.6975 19.6418 39.9748 19.6418C38.2525 19.6418 36.8174 20.9884 36.7078 22.7097L36.628 23.9811C36.6234 24.0541 36.5766 24.1197 36.5092 24.1476L35.9184 24.3926V7.99598C35.9184 7.38917 35.4268 6.89703 34.8199 6.89703H32.9431C32.3368 6.89703 31.8446 7.38917 31.8446 7.99598C31.8446 8.60232 32.3368 9.09446 32.9431 9.09446H33.7215V25.2892C33.6618 25.2892 33.5793 25.2718 33.5398 25.2489L32.5936 24.4141C31.3016 23.2739 29.3339 23.3353 28.1144 24.5549C26.8948 25.774 26.8333 27.7417 27.9736 29.0337L28.8161 29.9886C28.8652 30.0441 28.8776 30.1217 28.8491 30.1909L27.7121 32.9392C27.6814 32.9869 27.5851 33.0548 27.53 33.0695L26.2678 33.1474C24.5483 33.2575 23.2021 34.6926 23.2021 36.4149C23.2021 37.2033 23.4842 37.9317 23.9552 38.5C22.3155 39.1118 20.6942 39.8149 19.0926 40.6093C18.1266 41.0882 17.545 42.1302 17.6464 43.2012C18.1839 48.8803 19.8058 54.3787 22.4082 59.4318H9.09334V29.5584C10.1042 29.3474 11.0674 28.8512 11.8513 28.0678C13.9927 25.9258 13.9927 22.4405 11.8513 20.299C9.70886 18.1566 6.22397 18.1566 4.08204 20.299C1.9401 22.4405 1.9401 25.9258 4.08204 28.0678C4.8801 28.8654 5.86438 29.3658 6.89591 29.569V60.5302C6.89591 61.1371 7.38759 61.6292 7.99439 61.6292H23.6186C24.5937 63.2895 25.6798 64.8953 26.8709 66.435C27.2425 66.9143 27.9323 67.0028 28.412 66.6313C28.8918 66.2598 28.9803 65.57 28.6088 65.0902C23.7534 58.8162 20.6112 51.2126 19.8342 42.9939C19.8181 42.8224 19.9117 42.6554 20.0681 42.5774C32.8197 36.2539 46.7758 36.059 59.8636 41.8243C60.0283 41.8973 60.1296 42.0656 60.1168 42.2426C59.0738 55.8483 51.55 67.9252 40.172 75.2399C40.0312 75.3312 39.8487 75.3312 39.7079 75.2399C36.739 73.3319 34.0086 71.0826 31.591 68.554C31.1722 68.1151 30.4765 68.0995 30.038 68.5192C29.599 68.9384 29.5839 69.6337 30.0031 70.0726C32.54 72.726 35.4052 75.0862 38.5195 77.0883C38.9506 77.3658 39.4455 77.5043 39.9399 77.5043C40.4344 77.5043 40.9288 77.3658 41.3604 77.0883C47.2207 73.3204 52.2228 68.227 55.8251 62.3598C55.9737 62.1177 56.1205 61.8732 56.2645 61.6287H71.9837C72.59 61.6287 73.0821 61.1366 73.0821 60.5298V40.0044C73.0821 39.3971 72.59 38.9059 71.9837 38.9059ZM55.3697 5.66507C56.6548 4.37991 58.7454 4.37991 60.0315 5.66507C61.3157 6.95023 61.3157 9.04126 60.0315 10.3264C58.7463 11.6116 56.6548 11.6116 55.3697 10.3264C54.0845 9.04126 54.0845 6.95023 55.3697 5.66507ZM5.63597 21.8525C6.92067 20.5673 9.0117 20.5673 10.2973 21.8525C11.5825 23.1377 11.5825 25.2282 10.2973 26.5134C9.0117 27.7986 6.92113 27.7986 5.63597 26.5134C4.35081 25.2291 4.35081 23.1377 5.63597 21.8525ZM26.4082 37.4895C25.8422 37.4533 25.3991 36.9814 25.3991 36.4154C25.3991 35.8489 25.8422 35.377 26.4063 35.3407L27.6782 35.2618C28.5414 35.2077 29.4069 34.5885 29.7385 33.7895L30.8787 31.0321C31.2309 30.1827 31.0722 29.2259 30.4636 28.5352L29.6215 27.5802C29.2468 27.1555 29.2674 26.5097 29.6678 26.1084C30.0692 25.708 30.715 25.6873 31.1397 26.0621L32.0951 26.9051C32.7441 27.4766 33.7948 27.6509 34.5906 27.3197C35.1424 27.0913 36.4427 26.5538 37.3499 26.1781C38.187 25.8309 38.7649 25.0223 38.8208 24.1183L38.9006 22.8487C38.9364 22.2827 39.4084 21.8397 39.9743 21.8397C40.5408 21.8397 41.0128 22.2827 41.049 22.8469L41.1279 24.1183C41.1847 25.0223 41.7622 25.8309 42.6002 26.1786C42.7593 26.2446 45.1975 27.2532 45.3572 27.3193C46.1548 27.6504 47.2046 27.4766 47.855 26.9042L48.8099 26.0621C49.2342 25.6873 49.8809 25.708 50.2809 26.1084C50.6822 26.5097 50.7028 27.1555 50.3281 27.5802L49.4851 28.5356C48.8769 29.2259 48.7178 30.1827 49.07 31.0312L50.2116 33.7909C50.5593 34.628 51.3674 35.2054 52.2714 35.2614L53.5415 35.3407C54.1074 35.377 54.5501 35.8489 54.5501 36.4149C54.5501 36.8167 54.3285 37.1767 53.9882 37.3616C51.4092 36.6222 48.8086 36.0975 46.197 35.7893C45.8823 32.6337 43.2116 30.1611 39.9743 30.1611C36.6752 30.1611 33.965 32.7287 33.7361 35.9709C31.4195 36.3135 29.1248 36.8304 26.8599 37.5175L26.4082 37.4895ZM39.6189 35.4742C38.4021 35.5003 37.1903 35.5737 35.9826 35.6934C36.3243 33.8001 37.9842 32.3585 39.9748 32.3585C41.9246 32.3585 43.5574 33.7414 43.9445 35.5783C42.5048 35.4779 41.0623 35.4426 39.6189 35.4742Z" fill="var(--fill-0, #00BFDA)"/>
<path id="Vector_2" d="M75.869 20.299C73.727 18.1566 70.2417 18.1566 68.0998 20.299C65.9578 22.4405 65.9578 25.9258 68.0998 28.0677C68.89 28.8585 69.8642 29.3566 70.8857 29.5639V35.243C70.8857 35.8493 71.3773 36.3415 71.9841 36.3415C72.5914 36.3415 73.0831 35.8493 73.0831 35.243V29.5639C74.1045 29.3566 75.0787 28.8585 75.869 28.0677C78.0109 25.9258 78.0109 22.4405 75.869 20.299ZM74.315 26.5133C73.0299 27.7985 70.9389 27.7985 69.6537 26.5133C68.3685 25.2291 68.3685 23.1376 69.6537 21.8525C70.9389 20.5673 73.0299 20.5673 74.315 21.8525C75.6002 23.1376 75.6002 25.2291 74.315 26.5133Z" fill="var(--fill-0, #00BFDA)"/>
<path id="Vector_3" d="M26.1334 11.8807C26.9241 11.09 27.4227 10.1163 27.6296 9.09483H28.2552C28.8624 9.09483 29.3541 8.60315 29.3541 7.99634C29.3541 7.38954 28.8624 6.8974 28.2552 6.8974H27.6296C27.4227 5.87643 26.9241 4.90269 26.1334 4.11197C23.9915 1.97049 20.5061 1.97049 18.3642 4.11197C16.2223 6.2539 16.2223 9.73925 18.3642 11.8807C20.5061 14.0227 23.9915 14.0227 26.1334 11.8807ZM19.9181 5.66544C21.2028 4.38028 23.2943 4.38028 24.5799 5.66544C25.8646 6.9506 25.8646 9.04163 24.5799 10.3268C23.2943 11.6119 21.2033 11.6119 19.9181 10.3268C18.633 9.04163 18.633 6.9506 19.9181 5.66544Z" fill="var(--fill-0, #00BFDA)"/>
<path id="Vector_4" d="M39.3043 72.3174C39.4941 72.4522 39.7175 72.5197 39.94 72.5197C40.1629 72.5197 40.3853 72.4522 40.5757 72.3174C49.6809 65.8572 56.2054 55.8493 57.7093 44.186C57.774 43.6861 57.4896 43.2059 57.0199 43.022C51.6481 40.9227 46.1364 39.8586 40.6371 39.8586C34.5824 39.8586 28.6184 41.1405 22.9113 43.6705C22.46 43.8709 22.1972 44.3475 22.2692 44.8355C23.9218 56.0144 30.1623 65.8324 39.3043 72.3174ZM24.5758 45.3451C29.7646 43.1619 35.1639 42.0556 40.6371 42.0556C45.586 42.0556 50.5515 42.9655 55.4096 44.7612C54.6482 49.7697 52.8994 54.5265 50.207 58.9122C47.583 63.1864 44.044 67.0281 39.9395 70.0645C35.8597 67.0465 32.34 63.235 29.7293 59.0002C27.1704 54.8489 25.3964 50.1449 24.5758 45.3451Z" fill="var(--fill-0, #00BFDA)"/>
<path id="Vector_5" d="M43.7835 61.6875C44.7128 61.6875 45.4687 60.9316 45.4687 60.0024V57.6586C45.4687 55.7263 44.4656 54.0238 42.9529 53.0441C43.6051 52.3286 44.0032 51.3769 44.0032 50.3343C44.0032 48.113 42.1961 46.3055 39.9748 46.3055C37.7536 46.3055 35.946 48.113 35.946 50.3343C35.946 51.3769 36.3446 52.3286 36.9968 53.0441C35.4846 54.0238 34.4815 55.7263 34.4815 57.6586V60.0024C34.4815 60.9316 35.2374 61.6875 36.1657 61.6875H43.7835ZM38.1439 50.3343C38.1439 49.3244 38.9649 48.5034 39.9748 48.5034C40.9844 48.5034 41.8063 49.3244 41.8063 50.3343C41.8063 51.3443 40.9844 52.1653 39.9748 52.1653C38.9649 52.1653 38.1439 51.3443 38.1439 50.3343ZM36.6785 57.6586C36.6785 55.841 38.1572 54.3627 39.9748 54.3627C41.7925 54.3627 43.2708 55.841 43.2708 57.6586V59.4901H36.6785V57.6586Z" fill="var(--fill-0, #00BFDA)"/>
</g>
</svg>
