<svg preserveAspectRatio="none" width="100%" height="100%" overflow="visible" style="display: block;" viewBox="0 0 111.116 40" fill="none" xmlns="http://www.w3.org/2000/svg">
<g id="Group">
<path id="Vector" d="M33.539 35.4472H35.0819C36.5013 35.4472 37.4271 36.4316 37.4271 37.6622C37.4271 38.8927 36.4396 39.8772 35.0819 39.8772H33.539V35.4472ZM35.0819 39.4464C36.1928 39.4464 36.9333 38.7082 36.9333 37.6622C36.9333 36.6778 36.1928 35.878 35.0819 35.878H34.0326V39.385H35.0819V39.4464Z" fill="var(--fill-0, #8D96F4)"/>
<path id="Vector_2" d="M39.8989 35.4472H40.3927V39.9386H39.8989V35.4472Z" fill="var(--fill-0, #8D96F4)"/>
<path id="Vector_3" d="M42.7369 37.7235C42.7369 36.4929 43.6627 35.3855 44.9586 35.3855C45.6993 35.3855 46.193 35.6316 46.625 36.0008L46.3164 36.3699C45.9461 36.0624 45.5759 35.8777 44.9586 35.8777C43.9712 35.8777 43.2307 36.739 43.2307 37.7235C43.2307 38.7695 43.9095 39.5692 45.0204 39.5692C45.5141 39.5692 46.0079 39.3847 46.3164 39.1387V38.0311H44.9586V37.5389H46.8102V39.3232C46.3782 39.6923 45.7609 40 45.0204 40C43.6009 40 42.7369 38.954 42.7369 37.7235Z" fill="var(--fill-0, #8D96F4)"/>
<path id="Vector_4" d="M49.2764 35.4472H49.7702V39.9386H49.2764V35.4472Z" fill="var(--fill-0, #8D96F4)"/>
<path id="Vector_5" d="M53.5338 35.9394H52.0526V35.4472H55.5704V35.9394H54.0893V39.9386H53.5955L53.5338 35.9394Z" fill="var(--fill-0, #8D96F4)"/>
<path id="Vector_6" d="M58.8397 35.4472H59.3334L61.37 39.9386H60.8147L60.3209 38.7696H57.914L57.3584 39.9386H56.8031L58.8397 35.4472ZM60.1357 38.2774L59.1483 36.0009L58.0992 38.2774H60.1357Z" fill="var(--fill-0, #8D96F4)"/>
<path id="Vector_7" d="M63.5333 35.4472H64.0271V39.4463H66.5573V39.9386H63.5333V35.4472Z" fill="var(--fill-0, #8D96F4)"/>
<path id="Vector_8" d="M72.7312 35.4472H73.2249V37.416H75.817V35.4472H76.3107V39.9386H75.817V37.9081H73.2249V39.9386H72.7312V35.4472Z" fill="var(--fill-0, #8D96F4)"/>
<path id="Vector_9" d="M78.8332 35.4472H82.0425V35.8778H79.327V37.416H81.7957V37.8467H79.327V39.3848H82.1042V39.8156H78.8332V35.4472Z" fill="var(--fill-0, #8D96F4)"/>
<path id="Vector_10" d="M86.0578 35.4472H86.5516L88.5881 39.9386H88.0327L87.539 38.7696H85.132L84.5767 39.9386H84.0829L86.0578 35.4472ZM87.2922 38.2774L86.3046 36.0009L85.2555 38.2774H87.2922Z" fill="var(--fill-0, #8D96F4)"/>
<path id="Vector_11" d="M90.7458 35.4472H91.2395V39.4463H93.7698V39.9386H90.7458V35.4472Z" fill="var(--fill-0, #8D96F4)"/>
<path id="Vector_12" d="M96.5511 35.9394H95.0699V35.4472H98.5877V35.9394H97.1066V39.9386H96.6128V35.9394H96.5511Z" fill="var(--fill-0, #8D96F4)"/>
<path id="Vector_13" d="M100.746 35.4472H101.239V37.416H103.832V35.4472H104.325V39.9386H103.832V37.9081H101.239V39.9386H100.746V35.4472Z" fill="var(--fill-0, #8D96F4)"/>
<path id="Vector_14" d="M111.116 30.5872V27.2646C111.116 26.6494 110.376 26.3418 109.944 26.834L107.043 30.1564C106.673 30.5872 106.981 31.2638 107.537 31.2638H110.437C110.808 31.2638 111.116 30.9563 111.116 30.5872Z" fill="url(#paint0_linear_0_749)"/>
<path id="Vector_15" d="M53.595 21.0499V20.4961C53.595 14.8972 58.1003 10.3443 63.7164 10.4058C70.0115 10.5289 73.1591 15.5125 73.1591 21.2959C73.1591 21.6651 73.1591 21.9728 73.0973 22.3419C73.0973 22.465 72.9738 22.588 72.8504 22.588H58.2236C58.7174 25.9104 61.0626 27.6946 64.0251 27.6946C66.2468 27.6946 67.7897 26.8949 69.3943 25.4182C69.456 25.3568 69.5795 25.3568 69.6413 25.4182L72.1098 27.6332C72.1715 27.6946 72.1715 27.8177 72.1098 27.8793C70.1966 30.0943 67.6046 31.5708 63.9633 31.5708C58.1003 31.5094 53.595 27.2641 53.595 21.0499ZM68.3452 19.5117C68.4685 19.5117 68.5302 19.4501 68.5302 19.3271C68.16 16.4354 66.432 14.2204 63.4078 14.2204C60.6306 14.2204 58.6557 16.3124 58.1619 19.3271C58.1619 19.4501 58.2236 19.5117 58.3471 19.5117H68.3452Z" fill="var(--fill-0, #393392)"/>
<path id="Vector_16" d="M76.5564 13.4211L80.2594 10.837C80.5062 10.6524 80.7532 10.837 80.7532 11.0831V14.4671C83.3452 11.883 85.4436 11.0831 88.7762 10.2218C88.8997 10.1602 89.0231 10.2833 89.0231 10.4063L89.0849 11.5138C89.0849 12.0675 89.0231 12.6213 88.8379 13.1135C88.1591 14.5901 86.9248 14.6516 85.2584 15.8206C82.9749 17.4203 80.7532 19.6968 80.7532 23.4499V30.9562C80.7532 31.0176 80.6915 31.1407 80.568 31.1407H76.2479C76.1861 31.1407 76.0626 31.0792 76.0626 30.9562V14.221C76.1244 13.9133 76.3096 13.6057 76.5564 13.4211Z" fill="var(--fill-0, #393392)"/>
<path id="Vector_17" d="M52.6732 11.0826C52.6732 10.9595 52.6115 10.898 52.4881 10.898H51.3155H47.304V5.79131C47.304 5.48368 46.9953 5.36063 46.7485 5.54522L42.9838 8.86763C42.7986 9.05221 42.6751 9.29832 42.6751 9.60595V14.8357V25.4797C42.6751 29.9096 45.0821 31.3862 48.4766 31.3862C50.1429 31.3862 51.3771 31.017 52.5497 30.4018C52.6115 30.3404 52.6732 30.2788 52.6732 30.2173V26.8948C52.6732 26.7717 52.5497 26.6487 52.4264 26.7103C51.6241 27.0794 50.76 27.2641 49.8342 27.2641C48.2913 27.2641 47.3656 26.5256 47.3656 24.7414V14.8357H48.8468C50.3897 14.8357 52.5497 13.1745 52.6732 11.0826Z" fill="var(--fill-0, #393392)"/>
<path id="Vector_18" d="M95.999 14.0363C99.2083 14.8977 99.9489 16.1897 99.9489 18.9584V19.3275C98.406 18.8353 96.8013 18.4662 94.3327 18.4662C89.6423 18.4662 86.1245 20.6196 86.1245 25.111V25.2341C86.1245 29.2948 89.5188 31.4482 93.3451 31.4482C96.4311 31.4482 98.5293 30.1561 99.8871 28.5565V30.8946C99.8871 30.956 99.9489 31.0791 100.072 31.0791H104.331C104.392 31.0791 104.516 31.0176 104.516 30.8946V19.0814C104.516 13.6671 100.196 10.5293 94.7647 9.91403C93.7154 9.79099 92.296 9.79099 90.8149 9.85251C90.6914 9.85251 90.6296 9.97556 90.6296 10.0986L90.7531 11.2061C90.8149 12.8058 92.4811 13.3595 93.9624 13.6671C95.7521 14.0363 95.999 14.0363 95.999 14.0363ZM100.01 23.7574C100.01 26.28 97.727 28.0028 94.6412 28.0028C92.4812 28.0028 90.7531 26.9568 90.7531 24.9879V24.9265C90.7531 22.9576 92.4811 21.7886 95.3818 21.7886C97.0482 21.7886 98.591 22.0963 99.7019 22.4654C99.8871 22.527 100.01 22.7115 100.01 22.8961V23.7574Z" fill="var(--fill-0, #393392)"/>
<path id="Vector_19" d="M24.4649 24.0644H11.7513C11.5045 24.0644 11.2576 24.1875 11.0725 24.372L7.43121 28.7403C5.51802 31.0784 4.77742 31.0784 2.4322 31.0784H0.333851C0.0252734 31.0784 -0.0981604 30.7708 0.0869978 30.5246L21.3173 5.48343L21.9346 4.80665C22.922 3.51459 24.4031 2.28407 26.3163 2.28407H29.3405V30.8939C29.3405 30.9553 29.2787 31.0784 29.1553 31.0784H24.8351C24.7734 31.0784 24.6501 31.0169 24.6501 30.8939V24.1875C24.6501 24.1259 24.5883 24.0644 24.4649 24.0644ZM24.6501 19.3268L24.7734 8.37517C24.7734 8.1906 24.5883 8.12906 24.4649 8.25212L15.3309 19.2037C15.2075 19.3268 15.3309 19.5114 15.4543 19.5114H24.4649C24.5883 19.5114 24.6501 19.45 24.6501 19.3268Z" fill="var(--fill-0, #393392)"/>
<path id="Vector_20" d="M33.9709 4.68386L37.6739 0.130921C37.859 -0.115184 38.291 0.00786851 38.291 0.3155V30.894C38.291 30.9556 38.2294 31.0786 38.1059 31.0786H33.7858C33.724 31.0786 33.6006 31.0172 33.6006 30.894V5.54523C33.6006 5.2376 33.724 4.92997 33.9709 4.68386Z" fill="var(--fill-0, #393392)"/>
</g>
<defs>
<linearGradient id="paint0_linear_0_749" x1="106.862" y1="28.927" x2="111.116" y2="28.927" gradientUnits="userSpaceOnUse">
<stop stop-color="#F28D98"/>
<stop offset="1" stop-color="#EF6E7B"/>
</linearGradient>
</defs>
</svg>
