<svg preserveAspectRatio="none" width="100%" height="100%" overflow="visible" style="display: block;" viewBox="0 0 171.125 24.0003" fill="none" xmlns="http://www.w3.org/2000/svg">
<g id="Group">
<path id="Vector" d="M35.9682 23.651H33.2671V22.204C32.4167 23.3017 31.1662 24.0003 29.4154 24.0003C25.964 24.0003 23.2629 21.3058 23.2629 17.5636C23.2629 13.8213 25.964 11.127 29.4154 11.127C31.1662 11.127 32.4167 11.8255 33.2671 12.9232V11.4264H35.9682V23.651ZM26.064 17.5137C26.064 19.6592 27.4646 21.4555 29.7657 21.4555C31.9665 21.4555 33.4672 19.759 33.4672 17.5137C33.4672 15.2684 31.9665 13.5719 29.7657 13.5719C27.4646 13.5719 26.064 15.3681 26.064 17.5137Z" fill="var(--fill-0, #582C83)"/>
<path id="Vector_2" d="M47.0224 13.8207H42.3204V19.1596C42.3204 20.8062 43.1708 21.4549 44.2712 21.4549C45.1216 21.4549 46.022 21.1056 46.7223 20.6066L47.7727 22.7521C46.7723 23.4008 45.5218 23.9496 44.0211 23.9496C41.22 23.9496 39.6193 22.4528 39.6193 19.2095V13.8207H37.1683V11.3757H39.6193V7.6834H42.3204V11.3757H47.0224V13.8207Z" fill="var(--fill-0, #582C83)"/>
<path id="Vector_3" d="M51.5781 12.8227C52.5785 11.4255 54.0791 11.0264 55.3296 11.0264C58.2309 11.0264 60.3318 13.0223 60.3318 15.9163V23.6003H57.6306V16.8144C57.6306 14.7686 56.5802 13.621 54.7794 13.621C53.0287 13.621 51.5781 14.7686 51.5781 16.8643V23.6502H48.8769V5.18848H51.5781V12.8227Z" fill="var(--fill-0, #582C83)"/>
<path id="Vector_4" d="M74.0353 17.464C74.0353 17.8133 73.9853 18.1626 73.9853 18.462H64.8815C65.2316 20.6574 66.7822 21.6054 68.533 21.6054C69.7835 21.6054 71.0841 21.1064 72.0845 20.3081L73.4351 22.2042C71.9344 23.5015 70.2337 23.9506 68.3829 23.9506C64.6814 23.9506 62.0803 21.4058 62.0803 17.5139C62.0803 13.6719 64.5813 11.0773 68.1828 11.0773C71.6843 11.0274 74.0353 13.6719 74.0353 17.464ZM64.9315 16.4661H71.2841C70.9841 14.57 69.8835 13.4224 68.1828 13.4224C66.2821 13.4224 65.1816 14.6698 64.9315 16.4661Z" fill="var(--fill-0, #582C83)"/>
<path id="Vector_5" d="M87.39 15.9175V23.6015H84.6892V16.8156C84.6892 14.7698 83.6385 13.6222 81.8377 13.6222C80.087 13.6222 78.6363 14.7698 78.6363 16.8655V23.6514H75.9352V11.3769H78.5863V12.8738C79.5867 11.4267 81.0874 11.0775 82.3379 11.0775C85.2894 11.0276 87.39 13.0734 87.39 15.9175Z" fill="var(--fill-0, #582C83)"/>
<path id="Vector_6" d="M101.797 23.6509H99.096V22.204C98.2456 23.3016 96.9945 24.0002 95.2439 24.0002C91.7924 24.0002 89.0916 21.3058 89.0916 17.5636C89.0916 13.8213 91.7924 11.127 95.2439 11.127C96.9945 11.127 98.2456 11.8255 99.096 12.9232V11.4263H101.797V23.6509ZM91.893 17.5137C91.893 19.6592 93.2937 21.4555 95.5947 21.4555C97.795 21.4555 99.2955 19.759 99.2955 17.5137C99.2955 15.2684 97.795 13.5719 95.5947 13.5719C93.2937 13.5719 91.893 15.3681 91.893 17.5137Z" fill="var(--fill-0, #582C83)"/>
<path id="Vector_7" d="M106.05 13.6708C107.001 12.0742 108.701 11.3756 110.352 11.3756C113.403 11.3756 115.454 13.2218 115.454 16.2156V23.6003H114.003V16.7146C114.003 14.2696 112.602 12.8227 110.152 12.8227C107.901 12.8227 106.1 14.4692 106.1 16.8144V23.6502H104.65V5.18848H106.1V13.6708H106.05Z" fill="var(--fill-0, #582C83)"/>
<path id="Vector_8" d="M129.108 17.5632C129.108 17.7628 129.108 17.9624 129.058 18.1619H118.954C119.154 20.9561 121.155 22.5529 123.606 22.5529C125.307 22.5529 126.608 21.9042 127.707 20.8564L128.508 21.8542C126.958 23.401 125.307 23.8501 123.556 23.8501C120.005 23.8501 117.504 21.3054 117.504 17.663C117.504 14.0205 120.105 11.4259 123.506 11.4259C126.657 11.376 129.058 13.9207 129.108 17.5632ZM119.004 16.8646H127.657C127.458 14.3698 125.757 12.6733 123.456 12.6733C120.955 12.6733 119.254 14.4197 119.004 16.8646Z" fill="var(--fill-0, #582C83)"/>
<path id="Vector_9" d="M142.666 23.651H141.216V21.3558C140.265 22.8527 138.614 23.8507 136.413 23.8507C133.012 23.8507 130.361 21.2061 130.361 17.6635C130.361 14.0709 133.012 11.4264 136.413 11.4264C138.614 11.4264 140.215 12.4243 141.216 13.9212V11.626H142.666V23.651ZM131.911 17.6135C131.911 20.308 133.862 22.4535 136.614 22.4535C139.364 22.4535 141.315 20.3579 141.315 17.6135C141.315 14.8692 139.364 12.7736 136.614 12.7736C133.862 12.7736 131.911 14.8692 131.911 17.6135Z" fill="var(--fill-0, #582C83)"/>
<path id="Vector_10" d="M147.114 5.18848H145.664V23.6003H147.114V5.18848Z" fill="var(--fill-0, #582C83)"/>
<path id="Vector_11" d="M158.369 12.9232H152.817V19.4596C152.817 21.5054 153.918 22.4035 155.518 22.4035C156.569 22.4035 157.519 22.0542 158.219 21.5054L158.92 22.6032C158.069 23.3017 156.869 23.8007 155.418 23.8007C152.917 23.8007 151.367 22.4035 151.367 19.5096V12.9232H148.566V11.576H151.316V7.63418H152.767V11.576H158.32V12.9232H158.369Z" fill="var(--fill-0, #582C83)"/>
<path id="Vector_12" d="M161.722 13.6708C162.672 12.0742 164.373 11.3756 166.024 11.3756C169.075 11.3756 171.125 13.2218 171.125 16.2156V23.6003H169.675V16.7146C169.675 14.2696 168.274 12.8227 165.824 12.8227C163.572 12.8227 161.772 14.4692 161.772 16.8144V23.6502H160.321V5.18848H161.772V13.6708H161.722Z" fill="var(--fill-0, #582C83)"/>
<path id="Vector_13" d="M8.9111 11.3764C8.9111 11.3764 6.56014 8.53231 6.51011 5.38882C6.46009 2.24535 8.71101 0 8.71101 0C8.71101 0 11.062 2.8441 11.112 5.98758C11.1621 9.13107 8.9111 11.3764 8.9111 11.3764Z" fill="var(--fill-0, #B5C428)"/>
<path id="Vector_14" d="M21.5124 7.78421C21.5124 7.78421 21.7625 14.121 18.6112 18.4621C15.4598 22.8031 10.0576 23.5016 10.0576 23.5016C10.0576 23.5016 9.80746 17.1647 12.9588 12.8238C16.1101 8.48276 21.5124 7.78421 21.5124 7.78421ZM12.7087 7.03576C12.7087 7.884 13.359 8.53266 14.2093 8.53266C15.0597 8.53266 15.71 7.884 15.71 7.03576C15.71 6.18752 15.0597 5.53887 14.2093 5.53887C13.359 5.53887 12.7087 6.18752 12.7087 7.03576Z" fill="var(--fill-0, #7A9A01)"/>
<path id="Vector_15" d="M8.80776 17.8627C8.80776 17.8128 8.80776 17.8128 8.80776 17.8128C8.80776 16.5654 8.60768 12.7733 6.60686 10.0289C4.15584 6.73578 0.00408299 6.18691 0.00408299 6.18691C0.00408299 6.18691 -0.195995 11.0269 2.20502 14.3699C3.95575 16.7151 6.50683 17.713 7.85737 18.0623V23.3014C7.85737 23.5509 8.05746 23.7505 8.30759 23.7505C8.55772 23.7505 8.75781 23.5509 8.75781 23.3014V18.0124C8.80776 17.9625 8.80776 17.9126 8.80776 17.8627Z" fill="var(--fill-0, #B5C428)"/>
</g>
</svg>
