<svg preserveAspectRatio="none" width="100%" height="100%" overflow="visible" style="display: block;" viewBox="0 0 57.1119 80.0002" fill="none" xmlns="http://www.w3.org/2000/svg">
<g id="Group">
<path d="M55.9363 58.0642C55.287 58.0642 54.7608 58.5905 54.7608 59.2397V74.7966C54.7608 76.3694 53.4812 77.6489 51.9084 77.6489H5.20328C3.63063 77.6489 2.35109 76.3694 2.35109 74.7966V5.20344C2.35109 3.63062 3.63047 2.35109 5.20328 2.35109H13.7597C14.4089 2.35109 14.9352 1.82484 14.9352 1.17563C14.9352 0.526406 14.4089 0 13.7597 0H5.20328C2.33422 0 0 2.33422 0 5.20344V74.7967C0 77.6659 2.33422 80.0002 5.20328 80.0002H51.9084C54.7777 80.0002 57.1119 77.6659 57.1119 74.7967V59.2398C57.1119 58.5906 56.5856 58.0642 55.9363 58.0642Z" fill="#00BFDA"/>
<path d="M51.9084 0H19.1517C18.5025 0 17.9762 0.52625 17.9762 1.17547C17.9762 1.82469 18.5025 2.35094 19.1517 2.35094H51.9084C53.4811 2.35094 54.7608 3.63047 54.7608 5.20328V53.5964C54.7608 54.2456 55.287 54.7719 55.9363 54.7719C56.5855 54.7719 57.1117 54.2456 57.1117 53.5964V5.20344C57.1119 2.33422 54.7777 0 51.9084 0Z" fill="#00BFDA"/>
<path d="M50.6064 66.3709V8.65266C50.6064 7.57234 49.7275 6.69344 48.6472 6.69344H8.46453C7.38422 6.69344 6.50531 7.57234 6.50531 8.65266V66.3708C6.50531 67.4511 7.38422 68.33 8.46453 68.33H48.6472C49.7277 68.3302 50.6064 67.4512 50.6064 66.3709ZM48.2555 65.9791H8.85641V9.04453H48.2555V65.9791Z" fill="#00BFDA"/>
<path d="M28.5559 75.3881C29.8382 75.3881 30.8777 74.3487 30.8777 73.0664C30.8777 71.7842 29.8382 70.7447 28.5559 70.7447C27.2737 70.7447 26.2342 71.7842 26.2342 73.0664C26.2342 74.3487 27.2737 75.3881 28.5559 75.3881Z" fill="#00BFDA"/>
<path d="M44.2623 40.845H39.7314L37.7958 35.7919C37.6216 35.3372 37.185 35.0369 36.698 35.0369C36.2109 35.0369 35.7744 35.337 35.6002 35.7919L32.9414 42.7327L28.8267 31.9914C28.6525 31.5367 28.2159 31.2364 27.7289 31.2364C27.2419 31.2364 26.8053 31.5366 26.6311 31.9914L21.0805 46.4817L19.2131 41.6069C19.0389 41.1522 18.6023 40.8519 18.1153 40.8519H13.0881C12.4389 40.8519 11.9127 41.3781 11.9127 42.0273C11.9127 42.6766 12.4389 43.2028 13.0881 43.2028H17.3069L19.9827 50.1884C20.1569 50.6431 20.5934 50.9434 21.0805 50.9434C21.5675 50.9434 22.0041 50.6433 22.1783 50.1884L27.7289 35.6981L31.8436 46.4394C32.0178 46.8941 32.4544 47.1944 32.9414 47.1944C33.4284 47.1944 33.865 46.8942 34.0392 46.4394L36.698 39.4986L37.8252 42.4411C37.9994 42.8958 38.4359 43.1961 38.923 43.1961H44.2623C44.9116 43.1961 45.4378 42.6698 45.4378 42.0206C45.4378 41.3713 44.9116 40.845 44.2623 40.845Z" fill="#00BFDA"/>
<path d="M13.4869 28.7134H43.438C44.3539 28.7134 45.0992 27.9683 45.0992 27.0522V23.937C45.0992 23.0211 44.3539 22.2758 43.438 22.2758H37.3686V16.26C37.3686 15.3441 36.6233 14.5988 35.7073 14.5988H28.9481C28.0322 14.5988 27.2869 15.3439 27.2869 16.26V18.4209H21.8887C21.7739 17.6162 21.082 16.995 20.2462 16.995H13.487C12.5711 16.995 11.8258 17.7402 11.8258 18.6563V27.0523C11.8258 27.9683 12.5709 28.7134 13.4869 28.7134ZM42.7481 24.6269V26.3623H37.3686V24.6269H42.7481ZM29.638 16.95H35.0175V26.3625H29.638V19.5966V16.95ZM27.2869 26.3623H21.9073V20.7719H27.2869V26.3623ZM14.1767 19.3461H19.5562V19.5966V26.3625H14.1767V19.3461Z" fill="#00BFDA"/>
<path d="M15.7623 62.7072C18.4523 62.7072 20.6408 60.5187 20.6408 57.8287C20.6408 55.1387 18.4523 52.9503 15.7623 52.9503C13.0723 52.9503 10.8839 55.1387 10.8839 57.8287C10.8839 60.5187 13.0723 62.7072 15.7623 62.7072ZM15.7623 55.3014C17.1559 55.3014 18.2897 56.4352 18.2897 57.8287C18.2897 59.2223 17.1559 60.3561 15.7623 60.3561C14.3688 60.3561 13.235 59.2223 13.235 57.8287C13.235 56.4352 14.3688 55.3014 15.7623 55.3014Z" fill="#00BFDA"/>
<path d="M32.8727 52.9503C30.1827 52.9503 27.9942 55.1387 27.9942 57.8287C27.9942 60.5187 30.1827 62.7072 32.8727 62.7072C35.5627 62.7072 37.7511 60.5187 37.7511 57.8287C37.7511 55.1387 35.5625 52.9503 32.8727 52.9503ZM32.8727 60.3561C31.4791 60.3561 30.3453 59.2223 30.3453 57.8287C30.3453 56.4352 31.4791 55.3014 32.8727 55.3014C34.2663 55.3014 35.4 56.4352 35.4 57.8287C35.4 59.2223 34.2663 60.3561 32.8727 60.3561Z" fill="#00BFDA"/>
<path d="M24.8828 54.5373H22.3844C21.7352 54.5373 21.2089 55.0636 21.2089 55.7128C21.2089 56.362 21.7352 56.8883 22.3844 56.8883H24.8828C25.532 56.8883 26.0583 56.362 26.0583 55.7128C26.0584 55.0636 25.5322 54.5373 24.8828 54.5373Z" fill="#00BFDA"/>
<path d="M24.8828 59.2002H22.3844C21.7352 59.2002 21.2089 59.7264 21.2089 60.3756C21.2089 61.0248 21.7352 61.5511 22.3844 61.5511H24.8828C25.532 61.5511 26.0583 61.0248 26.0583 60.3756C26.0584 59.7266 25.5322 59.2002 24.8828 59.2002Z" fill="#00BFDA"/>
<path d="M41.9931 54.5373H39.4947C38.8455 54.5373 38.3192 55.0636 38.3192 55.7128C38.3192 56.362 38.8455 56.8883 39.4947 56.8883H41.9931C42.6423 56.8883 43.1686 56.362 43.1686 55.7128C43.1687 55.0636 42.6425 54.5373 41.9931 54.5373Z" fill="#00BFDA"/>
<path d="M41.9931 59.2002H39.4947C38.8455 59.2002 38.3192 59.7264 38.3192 60.3756C38.3192 61.0248 38.8455 61.5511 39.4947 61.5511H41.9931C42.6423 61.5511 43.1686 61.0248 43.1686 60.3756C43.1687 59.7266 42.6425 59.2002 41.9931 59.2002Z" fill="#00BFDA"/>
</g>
</svg>
