<svg preserveAspectRatio="none" width="100%" height="100%" overflow="visible" style="display: block;" viewBox="0 0 79.6877 60.9375" fill="none" xmlns="http://www.w3.org/2000/svg">
<g id="Group">
<path d="M69.0469 60.9375H31.6406C30.9933 60.9375 30.4688 60.413 30.4688 59.7656C30.4688 59.1183 30.9933 58.5938 31.6406 58.5938H69.0469C73.6217 58.5938 77.3438 54.8719 77.3438 50.2969V10.6406C77.3438 6.06578 73.6219 2.34375 69.0469 2.34375H47.5992L42.0638 13.4147C41.8652 13.8116 41.4595 14.0625 41.0156 14.0625H10.6406C6.06562 14.0625 2.34375 17.7844 2.34375 22.3594V50.2969C2.34375 54.8719 6.06562 58.5938 10.6406 58.5938H22.2656C22.913 58.5938 23.4375 59.1183 23.4375 59.7656C23.4375 60.413 22.913 60.9375 22.2656 60.9375H10.6406C4.77344 60.9375 0 56.1641 0 50.2969V22.3594C0 16.4922 4.77344 11.7188 10.6406 11.7188H40.2916L45.827 0.647813C46.0256 0.250938 46.4313 0 46.8752 0H69.047C74.9142 0 79.6877 4.77344 79.6877 10.6406V50.2969C79.6875 56.1641 74.9141 60.9375 69.0469 60.9375Z" fill="#00BFDA"/>
</g>
</svg>
