<svg xmlns="http://www.w3.org/2000/svg" viewBox="105.80278717041017 135.14999999999998 363.3944396972656 304.69999465942385"> <g transform="rotate(360 287.49982908902643 259.15)"><svg xmlns="http://www.w3.org/2000/svg" xmlns:xlink="http://www.w3.org/1999/xlink" version="1.1" id="Layer_1" x="233.501" y="205.15" viewBox="273 273 478 478.0101318359375" xml:space="preserve" height="108" width="107.99765817805287" preserveAspectRatio="xMinYMin" enable-background="new 0 0 1024 1024" style="overflow: visible;"><ellipse class="st0" cx="548.37" cy="505.94" rx="20.55" ry="30.47" style="fill: #4cad56; fill-opacity: 1;"></ellipse><ellipse class="st0" cx="475.63" cy="505.94" rx="20.55" ry="30.47" style="fill: #4cad56; fill-opacity: 1;"></ellipse><path class="st0" d="M726.84,453.84c-15.58-15.58-36.29-24.16-58.32-24.16h-74.21v-74.21c0-22.03-8.58-42.74-24.16-58.32   C554.58,281.58,533.87,273,511.84,273s-42.74,8.58-58.32,24.16c-15.58,15.58-24.16,36.29-24.16,58.32v74.21h-73.25   c-21.86,0-42.99,8.4-58.55,23.76c-15.83,15.62-24.56,36.5-24.56,58.72c0,22.03,8.58,42.74,24.16,58.32   c15.58,15.58,36.29,24.16,58.32,24.16h33.75c4.7,0,8.85-2.39,11.29-6.02c1.46-2.17,2.31-4.77,2.31-7.58l0,0   c0-2.85-0.87-5.49-2.37-7.67c-2.45-3.58-6.56-5.93-11.23-5.93h-33.21c-30.56,0-55.74-24.57-55.82-55.13   c-0.09-30.56,24.75-55.44,55.29-55.44h101.07V356.01c0-30.56,24.57-55.74,55.13-55.82c30.56-0.09,55.44,24.75,55.44,55.29v101.4   h100.86c30.56,0,55.74,24.57,55.82,55.13c0.09,30.56-24.75,55.44-55.29,55.44h-33.91c-3.75,0-7.15,1.52-9.61,3.98   c-2.46,2.46-3.98,5.86-3.98,9.61l0,0c0,3.75,1.52,7.15,3.98,9.61s5.86,3.98,9.61,3.98h33.91c22.03,0,42.74-8.58,58.32-24.16   c15.58-15.58,24.16-36.29,24.16-58.32C751,490.13,742.42,469.42,726.84,453.84z" style="fill: #4cad56; fill-opacity: 1;"></path><path class="st1" d="M580.86,567.45h-0.14c-3.11,0-5.98,1.05-8.27,2.81c-3.24,2.49-5.32,6.39-5.32,10.79v86.94   c0,30.56-24.57,55.74-55.13,55.82c-30.56,0.09-55.44-24.75-55.44-55.29v-87.47c0-1.88-0.38-3.67-1.07-5.29   c-2.06-4.88-6.9-8.3-12.53-8.3l0,0c-3.13,0-6.02,1.06-8.32,2.84c-3.21,2.49-5.28,6.38-5.28,10.76v87.47   c0,22.03,8.58,42.74,24.16,58.32c15.58,15.58,36.29,24.16,58.32,24.16s42.74-8.58,58.32-24.16c15.58-15.58,24.16-36.29,24.16-58.32   l0.14-87.45c0.01-3.54-1.34-6.76-3.55-9.18C588.42,569.16,584.84,567.45,580.86,567.45z" style="fill: #4cad56; fill-opacity: 1;"></path></svg></g> <svg y="334.1499938964844" viewBox="0.5755555629730225 3.5 223.39443969726562 35.70000076293945" x="175.80278717041017" height="35.70000076293945" width="223.39443969726562" style="overflow: visible;"><g fill="#4cad56" fill-opacity="1" style=""><path d="M9.35 30.84L9.35 30.84Q8.79 30.84 8.38 30.50Q7.98 30.17 7.84 29.61L7.84 29.61L0.70 5.64Q0.42 4.69 0.77 4.10Q1.12 3.50 1.93 3.50L1.93 3.50Q2.38 3.50 2.78 3.76Q3.19 4.03 3.40 4.66L3.40 4.66L9.77 26.81L8.96 26.81L14.95 5.11Q15.05 4.69 15.45 4.41Q15.86 4.13 16.38 4.13L16.38 4.13Q16.84 4.13 17.26 4.39Q17.68 4.66 17.82 5.15L17.82 5.15L23.84 26.81L23.07 26.81L29.47 4.48Q29.72 3.50 30.94 3.50L30.94 3.50Q31.75 3.50 32.03 4.13Q32.30 4.76 32.06 5.64L32.06 5.64L24.96 29.58Q24.75 30.17 24.36 30.50Q23.98 30.84 23.42 30.84L23.42 30.84Q22.89 30.84 22.49 30.49Q22.09 30.14 21.91 29.61L21.91 29.61L15.96 7.53L16.80 7.53L10.85 29.58Q10.68 30.14 10.27 30.49Q9.87 30.84 9.35 30.84ZM37.91 39.20L37.91 39.20Q37.63 39.20 37.21 39.03L37.21 39.03Q35.91 38.43 36.51 37.17L36.51 37.17L47.60 12.50Q48.20 11.27 49.46 11.83L49.46 11.83Q50.75 12.36 50.19 13.65L50.19 13.65L39.03 38.29Q38.68 39.20 37.91 39.20ZM41.86 30.17L41.86 30.17Q41.30 30.45 40.81 30.28Q40.32 30.10 40.01 29.51L40.01 29.51L32.17 13.65Q31.89 13.06 32.08 12.57Q32.27 12.08 32.83 11.80L32.83 11.80Q33.43 11.55 33.92 11.73Q34.41 11.90 34.69 12.46L34.69 12.46L42.35 28.35Q42.63 28.91 42.54 29.42Q42.46 29.93 41.86 30.17ZM70.00 30.84L70.00 30.84Q69.34 30.84 68.92 30.42Q68.50 30.00 68.50 29.37L68.50 29.37L68.50 20.44Q68.50 18.31 67.71 16.96Q66.92 15.61 65.56 14.93Q64.19 14.25 62.44 14.25L62.44 14.25Q60.80 14.25 59.48 14.89Q58.17 15.54 57.40 16.64Q56.63 17.75 56.63 19.18L56.63 19.18L54.60 19.18Q54.67 16.98 55.77 15.24Q56.88 13.51 58.73 12.50Q60.59 11.48 62.86 11.48L62.86 11.48Q65.31 11.48 67.25 12.51Q69.20 13.55 70.33 15.54Q71.47 17.54 71.47 20.44L71.47 20.44L71.47 29.37Q71.47 30.00 71.05 30.42Q70.63 30.84 70.00 30.84ZM55.16 30.84L55.16 30.84Q54.46 30.84 54.06 30.43Q53.66 30.03 53.66 29.37L53.66 29.37L53.66 13.20Q53.66 12.50 54.06 12.09Q54.46 11.69 55.16 11.69L55.16 11.69Q55.83 11.69 56.23 12.09Q56.63 12.50 56.63 13.20L56.63 13.20L56.63 29.37Q56.63 30.03 56.23 30.43Q55.83 30.84 55.16 30.84ZM91.56 13.83L79.98 24.26L78.19 22.30L89.78 11.83Q90.23 11.41 90.74 11.45Q91.25 11.48 91.67 11.94L91.67 11.94Q92.09 12.39 92.05 12.90Q92.02 13.41 91.56 13.83L91.56 13.83ZM78.86 30.84L78.86 30.84Q78.23 30.84 77.82 30.43Q77.42 30.03 77.42 29.40L77.42 29.40L77.42 4.94Q77.42 4.31 77.82 3.90Q78.23 3.50 78.86 3.50L78.86 3.50Q79.52 3.50 79.92 3.90Q80.33 4.31 80.33 4.94L80.33 4.94L80.33 29.40Q80.33 30.03 79.92 30.43Q79.52 30.84 78.86 30.84ZM91.67 30.66L91.67 30.66Q91.18 31.08 90.63 31.03Q90.09 30.98 89.71 30.49L89.71 30.49L82.11 21.14L84.18 19.25L91.88 28.74Q92.26 29.19 92.23 29.72Q92.19 30.24 91.67 30.66ZM109.52 30.84L109.52 30.84Q108.85 30.84 108.43 30.42Q108.01 30.00 108.01 29.33L108.01 29.33L108.01 5.01Q108.01 4.34 108.43 3.92Q108.85 3.50 109.52 3.50L109.52 3.50Q110.18 3.50 110.60 3.92Q111.02 4.34 111.02 5.01L111.02 5.01L111.02 15.65L127.86 15.65L127.86 5.01Q127.86 4.34 128.28 3.92Q128.69 3.50 129.36 3.50L129.36 3.50Q129.99 3.50 130.41 3.92Q130.83 4.34 130.83 5.01L130.83 5.01L130.83 29.33Q130.83 30.00 130.41 30.42Q129.99 30.84 129.36 30.84L129.36 30.84Q128.69 30.84 128.28 30.42Q127.86 30.00 127.86 29.33L127.86 29.33L127.86 18.34L111.02 18.34L111.02 29.33Q111.02 30.00 110.60 30.42Q110.18 30.84 109.52 30.84ZM146.27 31.01L146.27 31.01Q143.40 31.01 141.19 29.77Q138.99 28.53 137.73 26.32Q136.47 24.12 136.47 21.28L136.47 21.28Q136.47 18.41 137.66 16.22Q138.85 14.04 140.93 12.78Q143.01 11.52 145.74 11.52L145.74 11.52Q148.40 11.52 150.38 12.72Q152.36 13.93 153.42 16.07Q154.49 18.20 154.49 20.93L154.49 20.93Q154.49 21.53 154.11 21.89Q153.72 22.26 153.13 22.26L153.13 22.26L138.50 22.26L138.50 19.85L153.30 19.85L151.80 20.90Q151.83 18.97 151.10 17.43Q150.36 15.89 149.00 15.02Q147.63 14.14 145.74 14.14L145.74 14.14Q143.75 14.14 142.26 15.05Q140.77 15.96 139.98 17.59Q139.20 19.22 139.20 21.28L139.20 21.28Q139.20 23.35 140.11 24.96Q141.02 26.57 142.61 27.48Q144.20 28.39 146.27 28.39L146.27 28.39Q147.46 28.39 148.70 27.97Q149.94 27.55 150.68 26.92L150.68 26.92Q151.10 26.60 151.64 26.58Q152.18 26.57 152.53 26.88L152.53 26.88Q153.06 27.34 153.07 27.86Q153.09 28.39 152.60 28.77L152.60 28.77Q151.45 29.75 149.66 30.38Q147.88 31.01 146.27 31.01ZM166.64 31.01L166.64 31.01Q163.98 31.01 161.88 29.73Q159.78 28.46 158.55 26.25Q157.33 24.05 157.33 21.28L157.33 21.28Q157.33 18.48 158.60 16.28Q159.88 14.07 162.09 12.79Q164.29 11.52 167.06 11.52L167.06 11.52Q169.79 11.52 171.97 12.79Q174.16 14.07 175.44 16.28Q176.72 18.48 176.75 21.28L176.75 21.28L175.56 21.88Q175.56 24.47 174.39 26.53Q173.22 28.60 171.20 29.80Q169.19 31.01 166.64 31.01ZM167.06 28.35L167.06 28.35Q169.02 28.35 170.54 27.42Q172.06 26.50 172.95 24.89Q173.85 23.28 173.85 21.28L173.85 21.28Q173.85 19.25 172.95 17.66Q172.06 16.07 170.54 15.12Q169.02 14.18 167.06 14.18L167.06 14.18Q165.13 14.18 163.57 15.12Q162.02 16.07 161.11 17.66Q160.20 19.25 160.20 21.28L160.20 21.28Q160.20 23.28 161.11 24.89Q162.02 26.50 163.57 27.42Q165.13 28.35 167.06 28.35ZM175.25 30.84L175.25 30.84Q174.62 30.84 174.18 30.43Q173.74 30.03 173.74 29.37L173.74 29.37L173.74 23.59L174.41 20.55L176.75 21.28L176.75 29.37Q176.75 30.03 176.33 30.43Q175.91 30.84 175.25 30.84ZM186.59 30.84L186.27 30.84Q184.80 30.84 183.68 30.05Q182.56 29.26 181.93 27.86Q181.30 26.46 181.30 24.64L181.30 24.64L181.30 4.97Q181.30 4.31 181.70 3.90Q182.11 3.50 182.77 3.50L182.77 3.50Q183.40 3.50 183.80 3.90Q184.21 4.31 184.21 4.97L184.21 4.97L184.21 24.64Q184.21 26.08 184.78 27.00Q185.36 27.93 186.27 27.93L186.27 27.93L187.15 27.93Q187.71 27.93 188.06 28.33Q188.41 28.74 188.41 29.37L188.41 29.37Q188.41 30.03 187.90 30.43Q187.39 30.84 186.59 30.84L186.59 30.84ZM200.10 30.84L199.40 30.84Q197.58 30.84 196.14 29.96Q194.71 29.09 193.88 27.55Q193.06 26.01 193.06 24.08L193.06 24.08L193.06 7.07Q193.06 6.44 193.46 6.02Q193.87 5.60 194.53 5.60L194.53 5.60Q195.16 5.60 195.58 6.02Q196.00 6.44 196.00 7.07L196.00 7.07L196.00 24.08Q196.00 25.73 196.96 26.81Q197.93 27.90 199.40 27.90L199.40 27.90L200.45 27.90Q201.01 27.90 201.39 28.32Q201.78 28.74 201.78 29.37L201.78 29.37Q201.78 30.03 201.30 30.43Q200.83 30.84 200.10 30.84L200.10 30.84ZM199.64 14.95L191.00 14.95Q190.40 14.95 190.02 14.58Q189.63 14.21 189.63 13.69L189.63 13.69Q189.63 13.13 190.02 12.76Q190.40 12.39 191.00 12.39L191.00 12.39L199.64 12.39Q200.24 12.39 200.62 12.76Q201.01 13.13 201.01 13.69L201.01 13.69Q201.01 14.21 200.62 14.58Q200.24 14.95 199.64 14.95L199.64 14.95ZM207.66 23.28L207.66 23.28Q206.96 23.28 206.55 22.86Q206.15 22.44 206.15 21.81L206.15 21.81L206.15 5.01Q206.15 4.31 206.55 3.90Q206.96 3.50 207.66 3.50L207.66 3.50Q208.32 3.50 208.72 3.90Q209.13 4.31 209.13 5.01L209.13 5.01L209.13 21.81Q209.13 22.44 208.72 22.86Q208.32 23.28 207.66 23.28ZM222.50 30.84L222.50 30.84Q221.83 30.84 221.41 30.42Q220.99 30.00 220.99 29.37L220.99 29.37L220.99 20.44Q220.99 18.31 220.20 16.96Q219.42 15.61 218.05 14.93Q216.69 14.25 214.94 14.25L214.94 14.25Q213.29 14.25 211.98 14.89Q210.67 15.54 209.90 16.64Q209.13 17.75 209.13 19.18L209.13 19.18L207.10 19.18Q207.17 16.98 208.27 15.24Q209.37 13.51 211.23 12.50Q213.08 11.48 215.36 11.48L215.36 11.48Q217.81 11.48 219.75 12.51Q221.69 13.55 222.83 15.54Q223.97 17.54 223.97 20.44L223.97 20.44L223.97 29.37Q223.97 30.00 223.55 30.42Q223.13 30.84 222.50 30.84ZM207.66 30.84L207.66 30.84Q206.96 30.84 206.55 30.43Q206.15 30.03 206.15 29.37L206.15 29.37L206.15 13.20Q206.15 12.50 206.55 12.09Q206.96 11.69 207.66 11.69L207.66 11.69Q208.32 11.69 208.72 12.09Q209.13 12.50 209.13 13.20L209.13 13.20L209.13 29.37Q209.13 30.03 208.72 30.43Q208.32 30.84 207.66 30.84Z" transform="translate(0, 0)"></path></g></svg></svg>