<?xml version="1.0" encoding="UTF-8" standalone="no"?>
<!-- Created with Inkscape (http://www.inkscape.org/) -->

<svg
   version="1.1"
   id="svg9"
   xml:space="preserve"
   width="682.66669"
   height="682.66669"
   viewBox="0 0 682.66669 682.66669"
   xmlns="http://www.w3.org/2000/svg"
   xmlns:svg="http://www.w3.org/2000/svg"><defs
     id="defs13"><clipPath
       clipPathUnits="userSpaceOnUse"
       id="clipPath23"><path
         d="M 0,512 H 512 V 0 H 0 Z"
         id="path21" /></clipPath></defs><g
     id="g15"
     transform="matrix(1.3333333,0,0,-1.3333333,0,682.66667)"><g
       id="g17"><g
         id="g19"
         clip-path="url(#clipPath23)"><g
           id="g25"
           transform="translate(372.8882,504.5)"><path
             d="m 0,0 h -233.776 c -5.129,0 -9.409,-3.883 -9.939,-8.984 -4.226,-40.6 -36.774,-72.866 -77.716,-77.031 -5.108,-0.52 -9,-4.806 -9,-9.941 V -207.82 c 0,-134.471 88.267,-248.512 210.475,-288.201 1.991,-0.647 4.145,-0.647 6.136,0 122.208,39.689 210.475,153.73 210.475,288.201 v 111.864 c 0,5.135 -3.892,9.421 -9.001,9.941 C 46.712,-81.85 14.165,-49.584 9.939,-8.984 9.408,-3.883 5.128,0 0,0 Z"
             style="fill:none;stroke:#000000;stroke-width:15;stroke-linecap:round;stroke-linejoin:round;stroke-miterlimit:10;stroke-dasharray:none;stroke-opacity:1"
             id="path27" /></g><g
           id="g29"
           transform="translate(365.8979,121.4136)"><path
             d="m 0,0 c -29.363,-33.179 -66.996,-59.004 -108.498,-74.363 -0.902,-0.334 -1.898,-0.334 -2.8,0 -48.126,17.811 -91.05,49.695 -121.909,90.801 -34.655,46.163 -52.973,101.084 -52.973,158.829 v 87.138 c 0,1.732 1.122,3.248 2.763,3.802 36.476,12.321 65.391,41 77.814,77.178 0.561,1.632 2.071,2.744 3.796,2.744 h 183.818 c 1.725,0 3.236,-1.112 3.796,-2.744 12.423,-36.178 41.339,-64.857 77.814,-77.178 1.641,-0.554 2.763,-2.07 2.763,-3.802 V 175.267 C 66.384,122.369 51.012,71.84 21.791,28.243"
             style="fill:none;stroke:#000000;stroke-width:15;stroke-linecap:round;stroke-linejoin:round;stroke-miterlimit:10;stroke-dasharray:none;stroke-opacity:1"
             id="path31" /></g><g
           id="g33"
           transform="translate(335.29,300.6299)"><path
             d="m 0,0 v 46.44 c 0,43.72 -35.57,79.29 -79.29,79.29 -15.622,0 -30.204,-4.542 -42.494,-12.374 m -24.668,-24.81 C -154.133,76.337 -158.58,61.898 -158.58,46.44 V 0 m 30,2.01 v 44.43 c 0,27.23 22.07,49.29 49.29,49.29 13.61,0 25.93,-5.52 34.85,-14.43 C -35.52,72.38 -30,60.05 -30,46.44 V 2.01"
             style="fill:none;stroke:#000000;stroke-width:15;stroke-linecap:round;stroke-linejoin:round;stroke-miterlimit:10;stroke-dasharray:none;stroke-opacity:1"
             id="path35" /></g><g
           id="g37"
           transform="translate(324.5,155.6348)"><path
             d="m 0,0 h -137 c -16.568,0 -30,13.432 -30,30 v 87 c 0,16.569 13.432,30 30,30 H 0 c 16.568,0 30,-13.431 30,-30 V 30 C 30,13.432 16.568,0 0,0 Z"
             style="fill:none;stroke:#000000;stroke-width:15;stroke-linecap:round;stroke-linejoin:round;stroke-miterlimit:10;stroke-dasharray:none;stroke-opacity:1"
             id="path39" /></g><g
           id="g41"
           transform="translate(275.5,244.1782)"><path
             d="m 0,0 c 0,11.15 -9.357,20.114 -20.647,19.467 -9.56,-0.547 -17.443,-8.176 -18.276,-17.716 -0.436,-4.982 1.008,-9.616 3.697,-13.278 0.486,-0.662 0.726,-1.473 0.726,-2.293 v -20.766 c 0,-8.285 6.716,-15 15,-15 8.284,0 15,6.715 15,15 v 20.765 c 0,0.819 0.237,1.629 0.722,2.288 C -1.404,-8.303 0,-4.316 0,0 Z"
             style="fill:none;stroke:#000000;stroke-width:15;stroke-linecap:round;stroke-linejoin:round;stroke-miterlimit:10;stroke-dasharray:none;stroke-opacity:1"
             id="path43" /></g></g></g></g></svg>
