<?xml version="1.0" encoding="UTF-8" standalone="no"?>
<!-- Created with Inkscape (http://www.inkscape.org/) -->

<svg
   version="1.1"
   id="svg381"
   xml:space="preserve"
   width="682.66669"
   height="682.66669"
   viewBox="0 0 682.66669 682.66669"
   xmlns="http://www.w3.org/2000/svg"
   xmlns:svg="http://www.w3.org/2000/svg"><defs
     id="defs385"><clipPath
       clipPathUnits="userSpaceOnUse"
       id="clipPath395"><path
         d="M 0,512 H 512 V 0 H 0 Z"
         id="path393" /></clipPath></defs><g
     id="g387"
     transform="matrix(1.3333333,0,0,-1.3333333,0,682.66667)"><g
       id="g389"><g
         id="g391"
         clip-path="url(#clipPath395)"><g
           id="g397"
           transform="translate(117.9648,154.8511)"><path
             d="m 0,0 -42.813,37.011 c -32.568,28.154 1.944,53.282 18.492,38.344 L 46.284,15.938 C 63.692,1.277 75.77,0.777 84.21,-45.229"
             style="fill:none;stroke:#000000;stroke-width:15;stroke-linecap:round;stroke-linejoin:round;stroke-miterlimit:10;stroke-dasharray:none;stroke-opacity:1"
             id="path399" /></g><g
           id="g401"
           transform="translate(122.0186,242.2007)"><path
             d="M 0,0 C -1.527,7.664 3.471,15.188 11.134,16.743 18.797,18.297 26.349,13.272 27.932,5.275 L 42.23,-71.412"
             style="fill:none;stroke:#000000;stroke-width:15;stroke-linecap:round;stroke-linejoin:round;stroke-miterlimit:10;stroke-dasharray:none;stroke-opacity:1"
             id="path403" /></g><g
           id="g405"
           transform="translate(63.9072,224.1812)"><path
             d="m 0,0 -19.99,108.035 c -1.666,8.191 3.692,16.27 11.911,17.908 8.19,1.666 16.242,-3.693 17.964,-12.272 L 29.736,6.025"
             style="fill:none;stroke:#000000;stroke-width:15;stroke-linecap:round;stroke-linejoin:round;stroke-miterlimit:10;stroke-dasharray:none;stroke-opacity:1"
             id="path407" /></g><g
           id="g409"
           transform="translate(80.8438,299.5361)"><path
             d="m 0,0 c 0.139,6.969 5.108,13.188 12.217,14.632 8.19,1.639 16.242,-3.72 17.964,-12.272 L 49.005,-99.816"
             style="fill:none;stroke:#000000;stroke-width:15;stroke-linecap:round;stroke-linejoin:round;stroke-miterlimit:10;stroke-dasharray:none;stroke-opacity:1"
             id="path411" /></g><g
           id="g413"
           transform="translate(208.6992,49.3984)"><path
             d="m 0,0 26.46,16.298 c 4.97,3.082 6.664,9.579 3.665,14.605 L 12.994,59.529 C 9.996,64.526 3.415,66.192 -1.61,63.194 L -85.265,13.133 c -4.997,-2.999 -6.663,-9.579 -3.665,-14.577 l 17.131,-28.626 c 2.999,-5.025 9.551,-6.663 14.576,-3.665 l 28.154,16.715"
             style="fill:none;stroke:#000000;stroke-width:15;stroke-linecap:round;stroke-linejoin:round;stroke-miterlimit:10;stroke-dasharray:none;stroke-opacity:1"
             id="path415" /></g><g
           id="g417"
           transform="translate(45.333,324.5527)"><path
             d="M 0,0 C -1.805,10.19 -8.219,18.964 -18.574,19.103 -28.931,19.241 -39.231,10.745 -37.677,0.527 l 12.523,-81.324 c 1.887,-12.356 7.717,-45.396 12.577,-65.388 3.276,-13.465 14.937,-33.318 25.377,-42.869 l 29.429,-26.932 c 18.576,-17.02 25.627,-25.267 37.789,-44.897"
             style="fill:none;stroke:#000000;stroke-width:15;stroke-linecap:round;stroke-linejoin:round;stroke-miterlimit:10;stroke-dasharray:none;stroke-opacity:1"
             id="path419" /></g><g
           id="g421"
           transform="translate(394.0557,154.8511)"><path
             d="M 0,0 42.813,37.011 C 75.381,65.165 40.87,90.293 24.322,75.355 L -46.283,15.938 C -63.691,1.277 -75.77,0.777 -84.21,-45.229"
             style="fill:none;stroke:#000000;stroke-width:15;stroke-linecap:round;stroke-linejoin:round;stroke-miterlimit:10;stroke-dasharray:none;stroke-opacity:1"
             id="path423" /></g><g
           id="g425"
           transform="translate(390.002,242.2007)"><path
             d="m 0,0 c 1.527,7.664 -3.47,15.188 -11.133,16.743 -7.663,1.554 -15.216,-3.471 -16.826,-11.468 l -14.27,-76.687"
             style="fill:none;stroke:#000000;stroke-width:15;stroke-linecap:round;stroke-linejoin:round;stroke-miterlimit:10;stroke-dasharray:none;stroke-opacity:1"
             id="path427" /></g><g
           id="g429"
           transform="translate(448.1133,224.1812)"><path
             d="m 0,0 19.991,108.035 c 1.638,8.191 -3.72,16.27 -11.911,17.908 -8.19,1.666 -16.242,-3.693 -17.964,-12.272 L -29.735,6.025"
             style="fill:none;stroke:#000000;stroke-width:15;stroke-linecap:round;stroke-linejoin:round;stroke-miterlimit:10;stroke-dasharray:none;stroke-opacity:1"
             id="path431" /></g><g
           id="g433"
           transform="translate(431.1768,299.5361)"><path
             d="M 0,0 C -0.139,6.969 -5.108,13.188 -12.216,14.632 -20.406,16.271 -28.458,10.912 -30.18,2.36 L -49.004,-99.816"
             style="fill:none;stroke:#000000;stroke-width:15;stroke-linecap:round;stroke-linejoin:round;stroke-miterlimit:10;stroke-dasharray:none;stroke-opacity:1"
             id="path435" /></g><g
           id="g437"
           transform="translate(466.6885,324.5527)"><path
             d="M 0,0 C 1.805,10.19 8.218,18.964 18.546,19.103 28.902,19.241 39.231,10.745 37.648,0.527 L 25.154,-80.797 C 23.267,-93.153 17.436,-126.193 12.577,-146.185 9.273,-159.65 -2.36,-179.503 -12.8,-189.054 l -29.43,-26.932 c -18.575,-17.02 -25.627,-25.267 -37.816,-44.897"
             style="fill:none;stroke:#000000;stroke-width:15;stroke-linecap:round;stroke-linejoin:round;stroke-miterlimit:10;stroke-dasharray:none;stroke-opacity:1"
             id="path439" /></g><g
           id="g441"
           transform="translate(303.3213,49.3984)"><path
             d="m 0,0 -26.46,16.298 c -4.97,3.082 -6.663,9.579 -3.664,14.605 l 17.13,28.626 c 2.999,4.997 9.579,6.663 14.577,3.665 L 85.237,13.133 c 5.026,-2.999 6.692,-9.579 3.665,-14.577 L 71.799,-30.07 c -2.998,-5.025 -9.551,-6.663 -14.604,-3.665 L 29.042,-17.02"
             style="fill:none;stroke:#000000;stroke-width:15;stroke-linecap:round;stroke-linejoin:round;stroke-miterlimit:10;stroke-dasharray:none;stroke-opacity:1"
             id="path443" /></g><g
           id="g445"
           transform="translate(258.7588,251.5576)"><path
             d="m 0,0 c -0.777,0.028 -1.582,0.694 -3.165,1.972 l -36.732,36.4 -4.998,4.97 c -12.355,12.8 -12.355,33.735 0,46.534 11.217,11.606 29.32,8.719 41.314,-2.082 2.221,-1.999 2.998,-2.999 3.581,-2.999 0.611,0 1.389,1 3.609,2.999 11.967,10.801 30.098,13.688 41.315,2.082 12.354,-12.799 12.354,-33.734 0,-46.534 L 39.926,38.372 3.166,1.972 C 1.583,0.694 0.806,0.028 0,0 Z"
             style="fill:none;stroke:#000000;stroke-width:15;stroke-linecap:round;stroke-linejoin:round;stroke-miterlimit:10;stroke-dasharray:none;stroke-opacity:1"
             id="path447" /></g><g
           id="g449"
           transform="translate(218.001,290.79)"><path
             d="m 0,0 h -54.225 c -4.692,0 -6.33,1.194 -5.552,5.664 l 7.913,45.369 c 5.664,32.263 39.759,41.481 66.273,48.173 m 52.726,0 c 26.514,-6.692 60.61,-15.91 66.246,-48.173 l 7.94,-45.369 C 142.099,1.194 140.461,0 135.769,0 H 81.544"
             style="fill:none;stroke:#000000;stroke-width:15;stroke-linecap:round;stroke-linejoin:round;stroke-miterlimit:10;stroke-dasharray:none;stroke-opacity:1"
             id="path451" /></g><g
           id="g453"
           transform="translate(245.9043,382.6377)"><path
             d="m 0,0 c -21.185,7.858 -38.481,30.986 -38.481,49.395 v 9.939 c 0,37.262 25.654,55.864 51.335,55.864 25.683,0 51.366,-18.602 51.366,-55.864 V 49.395 C 64.22,30.986 46.895,7.858 25.737,0 16.492,-3.415 9.218,-3.415 0,0 Z"
             style="fill:none;stroke:#000000;stroke-width:15;stroke-linecap:round;stroke-linejoin:round;stroke-miterlimit:10;stroke-dasharray:none;stroke-opacity:1"
             id="path455" /></g><g
           id="g457"
           transform="translate(209.5605,459.52)"><path
             d="m 0,0 c 0,0 37.898,10.412 61.109,-6.664 23.184,-17.075 39.399,-8.274 39.399,-8.274"
             style="fill:none;stroke:#000000;stroke-width:15;stroke-linecap:round;stroke-linejoin:round;stroke-miterlimit:10;stroke-dasharray:none;stroke-opacity:1"
             id="path459" /></g></g></g></g></svg>
