<svg id="Capa_1" enable-background="new 0 0 511.767 511.767" height="512" viewBox="0 0 511.767 511.767" width="512" xmlns="http://www.w3.org/2000/svg"><g><path d="m181.277 275.175c7.686 5.52 13.664 13.163 17.286 22.104l8.115 20.027c-6.704 4.388-11.145 11.96-11.145 20.553 0 12.182 8.92 22.316 20.57 24.225 2.823 19.446 19.599 34.432 39.814 34.432 20.216 0 36.991-14.987 39.814-34.432 11.65-1.909 20.57-12.043 20.57-24.225 0-8.593-4.441-16.165-11.145-20.553l8.113-20.022c3.593-8.868 9.733-16.63 17.757-22.447 33.176-24.052 52.983-62.845 52.983-103.77 0-34.568-13.561-66.97-38.184-91.237-24.619-24.262-57.222-37.377-91.817-36.841-33.431.487-64.938 13.896-88.715 37.753s-37.08 55.409-37.458 88.843c-.474 41.744 19.504 81.218 53.442 105.59zm74.64 106.342c-11.801 0-21.737-8.143-24.484-19.104h48.969c-2.748 10.961-12.684 19.104-24.485 19.104zm35.832-34.105h-3.093-65.477-3.093c-5.268 0-9.553-4.285-9.553-9.553s4.285-9.553 9.553-9.553h71.663c5.267 0 9.552 4.285 9.552 9.553s-4.285 9.553-9.552 9.553zm-115.832-256.081c21-21.071 48.811-32.913 78.309-33.344 30.535-.412 59.334 11.106 81.069 32.527 21.74 21.425 33.713 50.033 33.713 80.553 0 36.134-17.491 70.386-46.788 91.625-10.302 7.47-18.205 17.483-22.854 28.959l-8.774 21.655h-69.351l-8.776-21.66c-4.688-11.571-12.448-21.48-22.439-28.655-29.969-21.522-47.611-56.377-47.194-93.236.335-29.501 12.084-57.353 33.085-78.424z"/><path d="m422.417 425.437h29.163c4.142 0 7.5-3.357 7.5-7.5v-259.5c0-4.143-3.358-7.5-7.5-7.5h-35.595c-4.142 0-7.5 3.357-7.5 7.5s3.358 7.5 7.5 7.5h28.095v244.5h-21.663c-4.142 0-7.5 3.357-7.5 7.5s3.358 7.5 7.5 7.5z"/><path d="m103.282 158.437c0-4.143-3.358-7.5-7.5-7.5h-35.595c-4.142 0-7.5 3.357-7.5 7.5v259.5c0 4.143 3.358 7.5 7.5 7.5h330.268c4.142 0 7.5-3.357 7.5-7.5s-3.358-7.5-7.5-7.5h-322.768v-244.5h28.095c4.142 0 7.5-3.358 7.5-7.5z"/><path d="m504.267 440.437h-15.188v-283.217c0-20.007-16.276-36.283-36.283-36.283h-36.812c-4.142 0-7.5 3.357-7.5 7.5s3.358 7.5 7.5 7.5h36.812c11.735 0 21.283 9.548 21.283 21.283v283.217h-336.657c-4.142 0-7.5 3.357-7.5 7.5s3.358 7.5 7.5 7.5h359.344v26.208c0 8.084-6.577 14.661-14.661 14.661h-452.444c-8.084 0-14.661-6.577-14.661-14.661v-26.208h90.46c4.142 0 7.5-3.357 7.5-7.5s-3.358-7.5-7.5-7.5h-67.772v-283.217c0-11.735 9.547-21.283 21.283-21.283h36.811c4.142 0 7.5-3.357 7.5-7.5s-3.358-7.5-7.5-7.5h-36.811c-20.007 0-36.283 16.276-36.283 36.283v283.217h-15.188c-4.142 0-7.5 3.357-7.5 7.5v33.708c0 16.355 13.306 29.661 29.661 29.661h452.444c16.355 0 29.661-13.306 29.661-29.661v-33.708c.001-4.143-3.357-7.5-7.499-7.5z"/><path d="m186.952 226.039c0 16.859 13.716 30.576 30.576 30.576s30.576-13.717 30.576-30.576v-51.621c0-4.143-3.358-7.5-7.5-7.5s-7.5 3.357-7.5 7.5v51.621c0 8.589-6.987 15.576-15.576 15.576s-15.576-6.987-15.576-15.576v-14.324c0-5.547-4.513-10.06-10.06-10.06-9.564 0-17.345-7.781-17.345-17.346 0-9.563 7.781-17.344 17.345-17.344h2.359c3.56.083 6.758-2.327 7.546-5.871.84-3.784-1.341-7.585-5.033-8.769-4.673-1.497-7.813-5.801-7.813-10.708 0-12.173 9.903-22.076 22.076-22.076s22.076 9.903 22.076 22.076v.837c0 4.143 3.358 7.5 7.5 7.5s7.5-3.357 7.5-7.5v-.837c0-20.444-16.632-37.076-37.076-37.076s-37.076 16.632-37.076 37.076c0 4.937 1.361 9.611 3.784 13.613-10.76 5.259-18.188 16.317-18.188 29.078 0 16.156 11.907 29.583 27.405 31.969z"/><path d="m295.239 256.615c16.859 0 30.576-13.717 30.576-30.576v-9.761c15.499-2.386 27.405-15.813 27.405-31.968 0-12.771-7.438-23.836-18.21-29.091 2.415-3.97 3.806-8.626 3.806-13.602 0-20.444-16.632-37.076-37.076-37.076s-37.076 16.632-37.076 37.076v84.421c-.001 16.86 13.715 30.577 30.575 30.577zm-15.576-114.997c0-12.173 9.903-22.076 22.076-22.076s22.076 9.903 22.076 22.076c0 4.956-3.222 9.174-7.681 10.669-.083.024-.165.051-.246.079-1.05.325-2.166.5-3.321.5-4.142 0-7.5 3.357-7.5 7.5s3.358 7.5 7.5 7.5c2.362 0 4.652-.313 6.831-.901h1.476c9.564 0 17.345 7.781 17.345 17.346 0 9.563-7.781 17.345-17.345 17.345-5.547 0-10.06 4.513-10.06 10.06v14.324c0 8.589-6.987 15.576-15.576 15.576s-15.576-6.987-15.576-15.576v-84.422z"/><path d="m81.2 246.9c0 4.143 3.358 7.5 7.5 7.5h25.974c4.142 0 7.5-3.357 7.5-7.5s-3.358-7.5-7.5-7.5h-25.974c-4.142 0-7.5 3.358-7.5 7.5z"/><path d="m154.183 280.39h-65.483c-4.142 0-7.5 3.357-7.5 7.5s3.358 7.5 7.5 7.5h65.482c4.142 0 7.5-3.357 7.5-7.5s-3.357-7.5-7.499-7.5z"/><path d="m167.047 321.379h-78.347c-4.142 0-7.5 3.357-7.5 7.5s3.358 7.5 7.5 7.5h78.347c4.142 0 7.5-3.357 7.5-7.5s-3.358-7.5-7.5-7.5z"/><path d="m81.2 369.868c0 4.143 3.358 7.5 7.5 7.5h93.651c4.142 0 7.5-3.357 7.5-7.5s-3.358-7.5-7.5-7.5h-93.651c-4.142 0-7.5 3.358-7.5 7.5z"/><path d="m397.16 254.4h25.974c4.142 0 7.5-3.357 7.5-7.5s-3.358-7.5-7.5-7.5h-25.974c-4.142 0-7.5 3.357-7.5 7.5s3.358 7.5 7.5 7.5z"/><path d="m423.134 295.39c4.142 0 7.5-3.357 7.5-7.5s-3.358-7.5-7.5-7.5h-65.483c-4.142 0-7.5 3.357-7.5 7.5s3.358 7.5 7.5 7.5z"/><path d="m337.287 328.879c0 4.143 3.358 7.5 7.5 7.5h78.347c4.142 0 7.5-3.357 7.5-7.5s-3.358-7.5-7.5-7.5h-78.347c-4.142 0-7.5 3.357-7.5 7.5z"/><path d="m430.634 369.868c0-4.143-3.358-7.5-7.5-7.5h-93.651c-4.142 0-7.5 3.357-7.5 7.5s3.358 7.5 7.5 7.5h93.651c4.142 0 7.5-3.357 7.5-7.5z"/><path d="m255.883 25.579c4.142 0 7.5-3.357 7.5-7.5v-10.118c0-4.143-3.358-7.5-7.5-7.5s-7.5 3.357-7.5 7.5v10.118c0 4.143 3.358 7.5 7.5 7.5z"/><path d="m173.011 30.478c.919 3.324 3.936 5.504 7.225 5.504.662 0 1.334-.088 2.003-.273 3.992-1.104 6.334-5.234 5.23-9.227l-2.696-9.753c-1.104-3.993-5.236-6.338-9.228-5.23-3.992 1.104-6.334 5.234-5.23 9.227z"/><path d="m325.994 35.708c.669.186 1.341.273 2.003.273 3.289 0 6.306-2.18 7.225-5.504l2.696-9.753c1.104-3.992-1.238-8.123-5.23-9.227-3.994-1.108-8.124 1.237-9.228 5.23l-2.696 9.753c-1.104 3.994 1.237 8.124 5.23 9.228z"/></g></svg>