<svg width="84" height="29" viewBox="0 0 84 29" fill="none" xmlns="http://www.w3.org/2000/svg">
<g clip-path="url(#clip0_1068_9882)">
<path d="M25.4395 23.8947H26.5141C27.5027 23.8947 28.1475 24.5803 28.1475 25.4374C28.1475 26.2944 27.4597 26.9801 26.5141 26.9801H25.4395V23.8947ZM26.5141 26.6801C27.2878 26.6801 27.8036 26.1659 27.8036 25.4374C27.8036 24.7518 27.2878 24.1947 26.5141 24.1947H25.7833V26.6373H26.5141V26.6801Z" fill="#8D96F4"/>
<path d="M29.8691 23.8947H30.213V27.0229H29.8691V23.8947Z" fill="#8D96F4"/>
<path d="M31.8457 25.4801C31.8457 24.623 32.4905 23.8517 33.3931 23.8517C33.909 23.8517 34.2528 24.0231 34.5537 24.2802L34.3388 24.5373C34.0809 24.3231 33.823 24.1945 33.3931 24.1945C32.7054 24.1945 32.1896 24.7944 32.1896 25.4801C32.1896 26.2086 32.6624 26.7656 33.4361 26.7656C33.78 26.7656 34.1239 26.6371 34.3388 26.4657V25.6943H33.3931V25.3515H34.6827V26.5942C34.3818 26.8513 33.9519 27.0656 33.4361 27.0656C32.4475 27.0656 31.8457 26.3371 31.8457 25.4801Z" fill="#8D96F4"/>
<path d="M36.4004 23.8947H36.7443V27.0229H36.4004V23.8947Z" fill="#8D96F4"/>
<path d="M39.3656 24.2375H38.334V23.8947H40.7841V24.2375H39.7525V27.0229H39.4086L39.3656 24.2375Z" fill="#8D96F4"/>
<path d="M43.0611 23.8947H43.4049L44.8234 27.0229H44.4366L44.0927 26.2087H42.4163L42.0294 27.0229H41.6426L43.0611 23.8947ZM43.9637 25.8659L43.276 24.2803L42.5453 25.8659H43.9637Z" fill="#8D96F4"/>
<path d="M46.3301 23.8947H46.674V26.68H48.4363V27.0229H46.3301V23.8947Z" fill="#8D96F4"/>
<path d="M52.7363 23.8947H53.0802V25.2659H54.8855V23.8947H55.2294V27.0229H54.8855V25.6087H53.0802V27.0229H52.7363V23.8947Z" fill="#8D96F4"/>
<path d="M56.9863 23.8947H59.2215V24.1946H57.3302V25.2659H59.0496V25.5659H57.3302V26.6372H59.2645V26.9372H56.9863V23.8947Z" fill="#8D96F4"/>
<path d="M62.0181 23.8947H62.362L63.7804 27.0229H63.3936L63.0497 26.2087H61.3733L60.9865 27.0229H60.6426L62.0181 23.8947ZM62.8778 25.8659L62.19 24.2803L61.4593 25.8659H62.8778Z" fill="#8D96F4"/>
<path d="M65.2832 23.8947H65.6271V26.68H67.3894V27.0229H65.2832V23.8947Z" fill="#8D96F4"/>
<path d="M69.3265 24.2375H68.2949V23.8947H70.745V24.2375H69.7134V27.0229H69.3695V24.2375H69.3265Z" fill="#8D96F4"/>
<path d="M72.248 23.8947H72.5919V25.2659H74.3973V23.8947H74.7411V27.0229H74.3973V25.6087H72.5919V27.0229H72.248V23.8947Z" fill="#8D96F4"/>
<path d="M79.471 20.5097V18.1956C79.471 17.7671 78.9552 17.5529 78.6543 17.8957L76.6341 20.2097C76.3762 20.5097 76.5911 20.981 76.9779 20.981H78.9982C79.2561 20.981 79.471 20.7668 79.471 20.5097Z" fill="url(#paint0_linear_1068_9882)"/>
<path d="M39.4082 13.8671V13.4814C39.4082 9.58188 42.5461 6.41082 46.4576 6.45368C50.8421 6.53938 53.0343 10.0104 53.0343 14.0385C53.0343 14.2956 53.0343 14.5099 52.9913 14.767C52.9913 14.8527 52.9053 14.9384 52.8193 14.9384H42.632C42.9759 17.2524 44.6093 18.4951 46.6726 18.4951C48.22 18.4951 49.2946 17.9381 50.4122 16.9096C50.4552 16.8668 50.5412 16.8668 50.5842 16.9096L52.3035 18.4523C52.3465 18.4951 52.3465 18.5808 52.3035 18.6237C50.971 20.1664 49.1657 21.1948 46.6296 21.1948C42.5461 21.152 39.4082 18.1952 39.4082 13.8671ZM49.6815 12.7958C49.7674 12.7958 49.8104 12.7529 49.8104 12.6672C49.5525 10.6532 48.349 9.11051 46.2427 9.11051C44.3084 9.11051 42.9329 10.5675 42.589 12.6672C42.589 12.7529 42.632 12.7958 42.718 12.7958H49.6815Z" fill="#393392"/>
<path d="M55.4005 8.5538L57.9796 6.75401C58.1515 6.62545 58.3235 6.75401 58.3235 6.92542V9.28228C60.1288 7.48249 61.5903 6.92542 63.9114 6.32549C63.9974 6.28263 64.0834 6.36834 64.0834 6.45404L64.1264 7.22538C64.1264 7.61105 64.0834 7.99672 63.9544 8.33954C63.4816 9.36799 62.6219 9.41084 61.4613 10.225C59.8709 11.3392 58.3235 12.9247 58.3235 15.5387V20.7667C58.3235 20.8095 58.2805 20.8952 58.1945 20.8952H55.1856C55.1426 20.8952 55.0566 20.8524 55.0566 20.7667V9.11088C55.0996 8.89662 55.2286 8.68235 55.4005 8.5538Z" fill="#393392"/>
<path d="M38.7662 6.92503C38.7662 6.83933 38.7232 6.79648 38.6373 6.79648H37.8206H35.0266V3.23974C35.0266 3.02548 34.8116 2.93978 34.6397 3.06834L32.0177 5.38235C31.8887 5.51091 31.8027 5.68232 31.8027 5.89658V9.53901V16.9524C31.8027 20.0378 33.4791 21.0662 35.8433 21.0662C37.0039 21.0662 37.8635 20.8091 38.6802 20.3806C38.7232 20.3378 38.7662 20.2949 38.7662 20.2521V17.938C38.7662 17.8523 38.6802 17.7666 38.5943 17.8095C38.0355 18.0666 37.4337 18.1952 36.7889 18.1952C35.7143 18.1952 35.0695 17.6809 35.0695 16.4382V9.53901H36.1012C37.1758 9.53901 38.6802 8.38201 38.7662 6.92503Z" fill="#393392"/>
<path d="M68.942 8.98226C71.1772 9.58219 71.693 10.4821 71.693 12.4104V12.6675C70.6184 12.3247 69.5008 12.0676 67.7814 12.0676C64.5146 12.0676 62.0645 13.5674 62.0645 16.6956V16.7814C62.0645 19.6096 64.4286 21.1094 67.0936 21.1094C69.2429 21.1094 70.7043 20.2095 71.65 19.0954V20.7238C71.65 20.7666 71.693 20.8523 71.7789 20.8523H74.7449C74.7878 20.8523 74.8738 20.8095 74.8738 20.7238V12.4961C74.8738 8.72514 71.8649 6.53968 68.0823 6.11116C67.3515 6.02546 66.3629 6.02546 65.3313 6.06831C65.2453 6.06831 65.2023 6.15401 65.2023 6.23972L65.2883 7.01106C65.3313 8.12521 66.4918 8.51088 67.5235 8.72514C68.77 8.98226 68.942 8.98226 68.942 8.98226ZM71.7359 15.7529C71.7359 17.5098 70.1455 18.7097 67.9963 18.7097C66.4919 18.7097 65.2883 17.9812 65.2883 16.6099V16.5671C65.2883 15.1958 66.4918 14.3816 68.5121 14.3816C69.6727 14.3816 70.7473 14.5959 71.521 14.853C71.65 14.8959 71.7359 15.0244 71.7359 15.153V15.7529Z" fill="#393392"/>
<path d="M19.1195 15.9667H10.2647C10.0928 15.9667 9.92085 16.0524 9.79189 16.1809L7.25581 19.2234C5.9233 20.8518 5.40748 20.8518 3.77407 20.8518H2.3126C2.09768 20.8518 2.01171 20.6376 2.14067 20.4661L16.9273 3.02531L17.3572 2.55394C18.0449 1.65404 19.0765 0.796997 20.409 0.796997H22.5153V20.7233C22.5153 20.7661 22.4723 20.8518 22.3863 20.8518H19.3774C19.3344 20.8518 19.2485 20.809 19.2485 20.7233V16.0524C19.2485 16.0095 19.2055 15.9667 19.1195 15.9667ZM19.2485 12.667L19.3344 5.03936C19.3344 4.91081 19.2055 4.86795 19.1195 4.95366L12.7578 12.5813C12.6719 12.667 12.7578 12.7956 12.8438 12.7956H19.1195C19.2055 12.7956 19.2485 12.7528 19.2485 12.667Z" fill="#393392"/>
<path d="M25.7403 2.46842L28.3194 -0.702639C28.4483 -0.874047 28.7492 -0.788343 28.7492 -0.574082V20.7234C28.7492 20.7663 28.7063 20.852 28.6203 20.852H25.6114C25.5684 20.852 25.4824 20.8092 25.4824 20.7234V3.06835C25.4824 2.85409 25.5684 2.63983 25.7403 2.46842Z" fill="#393392"/>
</g>
<defs>
<linearGradient id="paint0_linear_1068_9882" x1="76.5082" y1="19.3534" x2="79.471" y2="19.3534" gradientUnits="userSpaceOnUse">
<stop stop-color="#F28D98"/>
<stop offset="1" stop-color="#EF6E7B"/>
</linearGradient>
<clipPath id="clip0_1068_9882">
<rect width="83" height="28" fill="white" transform="translate(0.236328 0.0899658)"/>
</clipPath>
</defs>
</svg>
