<svg width="205" height="29" viewBox="0 0 205 29" fill="none" xmlns="http://www.w3.org/2000/svg">
<g clip-path="url(#clip0_1068_9863)">
<path d="M43.7646 26.7129H40.6232V25.03C39.6342 26.3067 38.1798 27.1191 36.1437 27.1191C32.1297 27.1191 28.9883 23.9855 28.9883 19.6333C28.9883 15.2811 32.1297 12.1476 36.1437 12.1476C38.1798 12.1476 39.6342 12.96 40.6232 14.2366V12.4958H43.7646V26.7129ZM32.246 19.5753C32.246 22.0705 33.8749 24.1596 36.551 24.1596C39.1106 24.1596 40.8559 22.1866 40.8559 19.5753C40.8559 16.964 39.1106 14.991 36.551 14.991C33.8749 14.991 32.246 17.08 32.246 19.5753Z" fill="#582C83"/>
<path d="M56.6205 15.2808H51.1521V21.4899C51.1521 23.4048 52.1411 24.1592 53.4209 24.1592C54.4099 24.1592 55.457 23.753 56.2715 23.1727L57.4931 25.6679C56.3296 26.4223 54.8753 27.0606 53.13 27.0606C49.8723 27.0606 48.0107 25.3198 48.0107 21.5479V15.2808H45.1602V12.4373H48.0107V8.14319H51.1521V12.4373H56.6205V15.2808Z" fill="#582C83"/>
<path d="M61.9188 14.1203C63.0823 12.4954 64.8275 12.0312 66.2818 12.0312C69.656 12.0312 72.0993 14.3524 72.0993 17.7181V26.6545H68.9579V18.7626C68.9579 16.3834 67.7362 15.0487 65.6419 15.0487C63.6058 15.0487 61.9188 16.3834 61.9188 18.8206V26.7125H58.7773V5.24182H61.9188V14.1203Z" fill="#582C83"/>
<path d="M88.0365 19.5173C88.0365 19.9235 87.9783 20.3297 87.9783 20.6779H77.3906C77.7978 23.2312 79.6012 24.3337 81.6373 24.3337C83.0917 24.3337 84.6042 23.7534 85.7677 22.825L87.3384 25.0301C85.5932 26.5388 83.6152 27.0611 81.4628 27.0611C77.1579 27.0611 74.1328 24.1016 74.1328 19.5753C74.1328 15.1071 77.0415 12.0896 81.2301 12.0896C85.3023 12.0316 88.0365 15.1071 88.0365 19.5173ZM77.4488 18.3567H84.8369C84.4879 16.1516 83.208 14.817 81.2301 14.817C79.0195 14.817 77.7396 16.2677 77.4488 18.3567Z" fill="#582C83"/>
<path d="M103.568 17.7187V26.6551H100.427V18.7632C100.427 16.384 99.205 15.0493 97.1107 15.0493C95.0746 15.0493 93.3875 16.384 93.3875 18.8212V26.7131H90.2461V12.438H93.3293V14.1789C94.4928 12.496 96.2381 12.0898 97.6924 12.0898C101.125 12.0318 103.568 14.411 103.568 17.7187Z" fill="#582C83"/>
<path d="M120.323 26.7127H117.182V25.0299C116.193 26.3065 114.738 27.1189 112.702 27.1189C108.688 27.1189 105.547 23.9854 105.547 19.6332C105.547 15.281 108.688 12.1475 112.702 12.1475C114.738 12.1475 116.193 12.9599 117.182 14.2365V12.4956H120.323V26.7127ZM108.805 19.5752C108.805 22.0704 110.434 24.1595 113.11 24.1595C115.669 24.1595 117.414 22.1865 117.414 19.5752C117.414 16.9639 115.669 14.9909 113.11 14.9909C110.434 14.9909 108.805 17.0799 108.805 19.5752Z" fill="#582C83"/>
<path d="M125.27 15.1067C126.375 13.2498 128.353 12.4374 130.273 12.4374C133.821 12.4374 136.206 14.5845 136.206 18.0662V26.6545H134.519V18.6465C134.519 15.8031 132.89 14.1203 130.04 14.1203C127.422 14.1203 125.328 16.0352 125.328 18.7626V26.7125H123.641V5.24182H125.328V15.1067H125.27Z" fill="#582C83"/>
<path d="M152.086 19.6332C152.086 19.8653 152.086 20.0974 152.028 20.3295H140.277C140.51 23.5791 142.837 25.4361 145.687 25.4361C147.665 25.4361 149.178 24.6817 150.457 23.4631L151.388 24.6236C149.585 26.4225 147.665 26.9448 145.629 26.9448C141.499 26.9448 138.59 23.9853 138.59 19.7492C138.59 15.5131 141.615 12.4956 145.571 12.4956C149.236 12.4376 152.028 15.397 152.086 19.6332ZM140.335 18.8207H150.399C150.167 15.9193 148.189 13.9463 145.513 13.9463C142.604 13.9463 140.626 15.9773 140.335 18.8207Z" fill="#582C83"/>
<path d="M167.854 26.7126H166.167V24.0433C165.061 25.7842 163.142 26.9448 160.582 26.9448C156.626 26.9448 153.543 23.8692 153.543 19.7492C153.543 15.5711 156.626 12.4955 160.582 12.4955C163.142 12.4955 165.003 13.6561 166.167 15.397V12.7277H167.854V26.7126ZM155.346 19.6911C155.346 22.8247 157.615 25.3199 160.815 25.3199C164.014 25.3199 166.283 22.8827 166.283 19.6911C166.283 16.4995 164.014 14.0623 160.815 14.0623C157.615 14.0623 155.346 16.4995 155.346 19.6911Z" fill="#582C83"/>
<path d="M173.027 5.24182H171.34V26.6545H173.027V5.24182Z" fill="#582C83"/>
<path d="M186.117 14.2366H179.66V21.8384C179.66 24.2176 180.94 25.2621 182.801 25.2621C184.023 25.2621 185.128 24.8559 185.942 24.2176L186.757 25.4943C185.768 26.3067 184.372 26.887 182.685 26.887C179.776 26.887 177.973 25.2621 177.973 21.8965V14.2366H174.715V12.6699H177.914V8.08557H179.601V12.6699H186.059V14.2366H186.117Z" fill="#582C83"/>
<path d="M190.016 15.1067C191.121 13.2498 193.099 12.4374 195.019 12.4374C198.567 12.4374 200.952 14.5845 200.952 18.0662V26.6545H199.265V18.6465C199.265 15.8031 197.636 14.1203 194.786 14.1203C192.168 14.1203 190.074 16.0352 190.074 18.7626V26.7125H188.387V5.24182H190.074V15.1067H190.016Z" fill="#582C83"/>
<path d="M12.2972 12.4378C12.2972 12.4378 9.56304 9.13011 9.50486 5.47428C9.44669 1.81846 12.0645 -0.792847 12.0645 -0.792847C12.0645 -0.792847 14.7987 2.5148 14.8569 6.17063C14.9151 9.82646 12.2972 12.4378 12.2972 12.4378Z" fill="#B5C428"/>
<path d="M26.9524 8.25986C26.9524 8.25986 27.2433 15.6295 23.5783 20.6781C19.9133 25.7266 13.6305 26.539 13.6305 26.539C13.6305 26.539 13.3396 19.1693 17.0046 14.1208C20.6696 9.07227 26.9524 8.25986 26.9524 8.25986ZM16.7137 7.38943C16.7137 8.37592 17.47 9.1303 18.4589 9.1303C19.4479 9.1303 20.2042 8.37592 20.2042 7.38943C20.2042 6.40294 19.4479 5.64856 18.4589 5.64856C17.47 5.64856 16.7137 6.40294 16.7137 7.38943Z" fill="#7A9A01"/>
<path d="M12.177 19.9812C12.177 19.9232 12.177 19.9232 12.177 19.9232C12.177 18.4725 11.9443 14.0623 9.61736 10.8707C6.76682 7.04079 1.93834 6.40247 1.93834 6.40247C1.93834 6.40247 1.70565 12.0313 4.49802 15.9192C6.53412 18.6466 9.50102 19.8072 11.0717 20.2134V26.3064C11.0717 26.5965 11.3044 26.8287 11.5953 26.8287C11.8862 26.8287 12.1189 26.5965 12.1189 26.3064V20.1553C12.177 20.0973 12.177 20.0393 12.177 19.9812Z" fill="#B5C428"/>
</g>
<defs>
<clipPath id="clip0_1068_9863">
<rect width="204" height="28" fill="white" transform="translate(0.0898438 0.0899658)"/>
</clipPath>
</defs>
</svg>
