<svg id="Capa_1" enable-background="new 0 0 512 512" height="512" viewBox="0 0 512 512" width="512" xmlns="http://www.w3.org/2000/svg"><g><path d="m431.234 371.611c-4.155 0-7.523 3.368-7.523 7.523v99.564c0 10.066-8.189 18.255-18.255 18.255h-298.913c-10.065 0-18.254-8.189-18.254-18.255v-445.396c0-10.066 8.188-18.255 18.254-18.255h54.761c4.155 0 7.523-3.368 7.523-7.523s-3.368-7.524-7.523-7.524h-54.761c-18.362 0-33.301 14.939-33.301 33.302v445.397c0 18.363 14.939 33.302 33.301 33.302h298.913c18.363 0 33.302-14.939 33.302-33.302v-99.564c0-4.155-3.368-7.524-7.524-7.524z"/><path d="m405.456 0h-209.643c-4.155 0-7.523 3.368-7.523 7.523s3.368 7.523 7.523 7.523h209.643c10.065 0 18.255 8.189 18.255 18.255v309.716c0 4.155 3.368 7.523 7.523 7.523s7.523-3.368 7.523-7.523v-309.715c.001-18.363-14.938-33.302-33.301-33.302z"/><path d="m397.123 424.774v-369.397c0-6.914-5.625-12.539-12.539-12.539h-257.169c-6.914 0-12.539 5.625-12.539 12.539v369.396c0 6.914 5.625 12.539 12.539 12.539h257.169c6.915.001 12.539-5.624 12.539-12.538zm-15.046-2.508h-252.154v-364.381h252.154z"/><circle cx="256" cy="467.625" r="14.859"/><path d="m356.521 261.408h-28.998l-12.388-32.34c-1.115-2.91-3.909-4.832-7.026-4.832s-5.911 1.921-7.026 4.832l-17.016 44.421-26.334-68.744c-1.115-2.91-3.909-4.832-7.026-4.832s-5.911 1.921-7.026 4.832l-35.524 92.738-11.951-31.199c-1.115-2.91-3.909-4.832-7.026-4.832h-32.174c-4.155 0-7.523 3.368-7.523 7.523s3.368 7.523 7.523 7.523h27l17.125 44.708c1.115 2.91 3.909 4.832 7.026 4.832s5.911-1.921 7.026-4.832l35.524-92.738 26.334 68.744c1.115 2.91 3.909 4.832 7.026 4.832s5.911-1.921 7.026-4.832l17.016-44.421 7.214 18.832c1.115 2.91 3.909 4.832 7.026 4.832h34.172c4.155 0 7.523-3.368 7.523-7.523 0-4.156-3.368-7.524-7.523-7.524z"/><path d="m159.558 183.766h191.687c5.862 0 10.632-4.769 10.632-10.632v-19.937c0-5.862-4.77-10.632-10.632-10.632h-38.844v-38.501c0-5.862-4.77-10.632-10.632-10.632h-43.259c-5.862 0-10.632 4.769-10.632 10.632v13.83h-34.548c-.735-5.15-5.163-9.126-10.512-9.126h-43.259c-5.862 0-10.632 4.769-10.632 10.632v53.735c0 5.862 4.769 10.631 10.631 10.631zm187.272-26.154v11.107h-34.429v-11.107zm-83.905-49.132h34.429v60.24h-34.429v-43.302zm-15.047 60.239h-34.429v-35.779h34.429zm-83.905-44.904h34.429v1.603 43.302h-34.429z"/><path d="m174.121 401.326c17.216 0 31.222-14.006 31.222-31.222s-14.006-31.222-31.222-31.222-31.222 14.006-31.222 31.222 14.006 31.222 31.222 31.222zm0-47.397c8.919 0 16.175 7.256 16.175 16.175s-7.256 16.175-16.175 16.175-16.175-7.256-16.175-16.175 7.256-16.175 16.175-16.175z"/><path d="m283.627 338.882c-17.216 0-31.222 14.006-31.222 31.222s14.006 31.222 31.222 31.222 31.222-14.006 31.222-31.222-14.007-31.222-31.222-31.222zm0 47.397c-8.919 0-16.175-7.256-16.175-16.175s7.256-16.175 16.175-16.175 16.175 7.256 16.175 16.175-7.256 16.175-16.175 16.175z"/><path d="m232.492 349.039h-15.99c-4.155 0-7.523 3.368-7.523 7.523s3.368 7.523 7.523 7.523h15.99c4.155 0 7.523-3.368 7.523-7.523.001-4.155-3.367-7.523-7.523-7.523z"/><path d="m232.492 378.881h-15.99c-4.155 0-7.523 3.368-7.523 7.523s3.368 7.523 7.523 7.523h15.99c4.155 0 7.523-3.368 7.523-7.523.001-4.154-3.367-7.523-7.523-7.523z"/><path d="m341.998 349.039h-15.99c-4.155 0-7.523 3.368-7.523 7.523s3.368 7.523 7.523 7.523h15.99c4.155 0 7.523-3.368 7.523-7.523.001-4.155-3.367-7.523-7.523-7.523z"/><path d="m341.998 378.881h-15.99c-4.155 0-7.523 3.368-7.523 7.523s3.368 7.523 7.523 7.523h15.99c4.155 0 7.523-3.368 7.523-7.523.001-4.154-3.367-7.523-7.523-7.523z"/></g></svg>