<?xml version="1.0" encoding="UTF-8" standalone="no"?>
<!-- Created with Inkscape (http://www.inkscape.org/) -->

<svg
   version="1.1"
   id="svg1122"
   xml:space="preserve"
   width="682.66669"
   height="682.66669"
   viewBox="0 0 682.66669 682.66669"
   xmlns="http://www.w3.org/2000/svg"
   xmlns:svg="http://www.w3.org/2000/svg"><defs
     id="defs1126"><clipPath
       clipPathUnits="userSpaceOnUse"
       id="clipPath1136"><path
         d="M 0,512 H 512 V 0 H 0 Z"
         id="path1134" /></clipPath></defs><g
     id="g1128"
     transform="matrix(1.3333333,0,0,-1.3333333,0,682.66667)"><g
       id="g1130"><g
         id="g1132"
         clip-path="url(#clipPath1136)"><g
           id="g1138"
           transform="translate(439.75,415.9253)"><path
             d="m 0,0 v 45.695 c 0,23.682 -19.197,42.88 -42.879,42.88 h -281.742 c -23.682,0 -42.879,-19.198 -42.879,-42.88 v -411.241 c 0,-23.682 19.197,-42.879 42.879,-42.879 h 281.742 c 23.682,0 42.879,19.197 42.879,42.879 v 335.553"
             style="fill:none;stroke:#000000;stroke-width:15;stroke-linecap:round;stroke-linejoin:round;stroke-miterlimit:10;stroke-dasharray:none;stroke-opacity:1"
             id="path1140" /></g><g
           id="g1142"
           transform="translate(112.25,159.0669)"><path
             d="m 0,0 v -48.688 c 0,-1.588 1.291,-2.879 2.879,-2.879 h 281.742 c 1.588,0 2.879,1.291 2.879,2.879 v 331.242 c 0,1.588 -1.291,2.879 -2.879,2.879 H 2.879 C 1.291,285.433 0,284.142 0,282.554 V 29.319"
             style="fill:none;stroke:#000000;stroke-width:15;stroke-linecap:round;stroke-linejoin:round;stroke-miterlimit:10;stroke-dasharray:none;stroke-opacity:1"
             id="path1144" /></g><g
           id="g1146"
           transform="translate(263.4482,474.5)"><path
             d="m 0,0 c 0,-4.114 -3.335,-7.448 -7.448,-7.448 -4.114,0 -7.448,3.334 -7.448,7.448 0,4.113 3.334,7.448 7.448,7.448 C -3.335,7.448 0,4.113 0,0"
             style="fill:#000000;fill-opacity:1;fill-rule:nonzero;stroke:none"
             id="path1148" /></g><g
           id="g1150"
           transform="translate(183.5605,389.6729)"><path
             d="M 0,0 V -13.11"
             style="fill:none;stroke:#000000;stroke-width:15;stroke-linecap:round;stroke-linejoin:round;stroke-miterlimit:10;stroke-dasharray:none;stroke-opacity:1"
             id="path1152" /></g><g
           id="g1154"
           transform="translate(328.4395,389.6729)"><path
             d="M 0,0 V -13.11"
             style="fill:none;stroke:#000000;stroke-width:15;stroke-linecap:round;stroke-linejoin:round;stroke-miterlimit:10;stroke-dasharray:none;stroke-opacity:1"
             id="path1156" /></g><g
           id="g1158"
           transform="translate(273.8789,377.4746)"><path
             d="m 0,0 c -4.218,-4.826 -10.66,-7.91 -17.879,-7.91 -7.219,0 -13.661,3.084 -17.879,7.91"
             style="fill:none;stroke:#000000;stroke-width:15;stroke-linecap:round;stroke-linejoin:round;stroke-miterlimit:10;stroke-dasharray:none;stroke-opacity:1"
             id="path1160" /></g><g
           id="g1162"
           transform="translate(326.6016,270.1172)"><path
             d="m 0,0 h -44.375 v 44.375 c 0,6.055 -4.908,10.963 -10.963,10.963 h -30.527 c -6.055,0 -10.963,-4.908 -10.963,-10.963 V 0 h -44.375 c -6.055,0 -10.963,-4.908 -10.963,-10.963 V -41.49 c 0,-6.054 4.908,-10.963 10.963,-10.963 h 44.375 v -44.375 c 0,-6.054 4.908,-10.963 10.963,-10.963 h 30.527 c 6.055,0 10.963,4.909 10.963,10.963 v 44.375 H 0 c 6.055,0 10.963,4.909 10.963,10.963 v 30.527 C 10.963,-4.908 6.055,0 0,0 Z"
             style="fill:none;stroke:#000000;stroke-width:15;stroke-linecap:round;stroke-linejoin:round;stroke-miterlimit:10;stroke-dasharray:none;stroke-opacity:1"
             id="path1164" /></g><g
           id="g1166"
           transform="translate(278.1504,57.5)"><path
             d="m 0,0 c 0,-12.233 -9.917,-22.151 -22.15,-22.151 -12.234,0 -22.151,9.918 -22.151,22.151 0,12.233 9.917,22.15 22.151,22.15 C -9.917,22.15 0,12.233 0,0 Z"
             style="fill:none;stroke:#000000;stroke-width:15;stroke-linecap:round;stroke-linejoin:round;stroke-miterlimit:10;stroke-dasharray:none;stroke-opacity:1"
             id="path1168" /></g></g></g></g></svg>
