<svg enable-background="new 0 0 512 512" viewBox="0 0 512 512" xmlns="http://www.w3.org/2000/svg"><g id="_x32_3_x2C__folder_x2C__data_storage_x2C__file_x2C__wifi_signal_x2C__archive_x2C__files_and_folders"><g><g><path d="m442.9 511h-239.4c-4.143 0-7.5-3.357-7.5-7.5s3.357-7.5 7.5-7.5h239.4c29.279 0 53.1-23.82 53.1-53.1v-253.8c0-29.279-23.82-53.1-53.1-53.1h-137.265l-35.427 70.854c-1.271 2.54-3.867 4.146-6.708 4.146h-194.4c-29.28 0-53.1 23.82-53.1 53.1v178.8c0 29.28 23.82 53.1 53.1 53.1h74.4c4.143 0 7.5 3.357 7.5 7.5s-3.357 7.5-7.5 7.5h-74.4c-37.55 0-68.1-30.55-68.1-68.1v-178.8c0-37.55 30.55-68.1 68.1-68.1h189.766l35.427-70.854c1.271-2.54 3.867-4.146 6.708-4.146h141.9c37.55 0 68.1 30.55 68.1 68.1v253.8c-.001 37.55-30.551 68.1-68.101 68.1z"/></g><g><path d="m268.803 381.304c-2.927-2.929-7.675-2.932-10.605 0-2.93 2.928-7.678 2.928-10.607 0-2.929-2.93-2.929-7.678 0-10.607 8.793-8.791 23.026-8.793 31.82 0 2.929 2.93 2.929 7.678 0 10.607-2.932 2.928-7.678 2.928-10.608 0z"/></g><g><path d="m290.016 360.09c-14.653-14.655-38.376-14.657-53.031 0-2.93 2.93-7.679 2.929-10.606.001-2.93-2.929-2.93-7.678-.001-10.606 20.516-20.518 53.726-20.522 74.246 0 2.929 2.929 2.929 7.678-.001 10.606-2.929 2.928-7.678 2.929-10.607-.001z"/></g><g><path d="m311.229 338.877c-26.318-26.318-69.141-26.318-95.459 0-2.93 2.928-7.678 2.928-10.607 0-2.929-2.93-2.929-7.678 0-10.607 32.168-32.166 84.506-32.166 116.674 0 2.929 2.93 2.929 7.678 0 10.607-2.931 2.929-7.678 2.928-10.608 0z"/></g><g><path d="m263.5 428.5c-49.626 0-90-40.374-90-90s40.374-90 90-90 90 40.374 90 90-40.374 90-90 90zm0-165c-41.355 0-75 33.645-75 75s33.645 75 75 75 75-33.645 75-75-33.645-75-75-75z"/></g><g><path d="m503.5 428.5h-495c-4.143 0-7.5-3.357-7.5-7.5s3.357-7.5 7.5-7.5h495c4.143 0 7.5 3.357 7.5 7.5s-3.357 7.5-7.5 7.5z"/></g><g><path d="m503.5 353.5h-157.85c-4.143 0-7.5-3.357-7.5-7.5s3.357-7.5 7.5-7.5h157.85c4.143 0 7.5 3.357 7.5 7.5s-3.357 7.5-7.5 7.5z"/></g><g><path d="m181.35 353.5h-172.85c-4.143 0-7.5-3.357-7.5-7.5s3.357-7.5 7.5-7.5h172.85c4.143 0 7.5 3.357 7.5 7.5s-3.358 7.5-7.5 7.5z"/></g><g><path d="m428.5 136c-4.143 0-7.5-3.357-7.5-7.5v-60h-122.3c-4.143 0-7.5-3.357-7.5-7.5s3.357-7.5 7.5-7.5h129.8c4.143 0 7.5 3.357 7.5 7.5v67.5c0 4.143-3.357 7.5-7.5 7.5z"/></g><g><path d="m98.5 211c-4.143 0-7.5-3.357-7.5-7.5v-142.5c0-4.143 3.357-7.5 7.5-7.5h140.2c4.143 0 7.5 3.357 7.5 7.5s-3.357 7.5-7.5 7.5h-132.7v135c0 4.143-3.357 7.5-7.5 7.5z"/></g><g><path d="m53.5 213.03c-4.143 0-7.5-3.357-7.5-7.5v-197.03c0-4.143 3.357-7.5 7.5-7.5h330c4.143 0 7.5 3.357 7.5 7.5v52.5c0 4.143-3.357 7.5-7.5 7.5s-7.5-3.357-7.5-7.5v-45h-315v189.53c0 4.143-3.357 7.5-7.5 7.5z"/></g><g><path d="m233.5 166h-97.5c-4.143 0-7.5-3.357-7.5-7.5s3.357-7.5 7.5-7.5h97.5c4.143 0 7.5 3.357 7.5 7.5s-3.357 7.5-7.5 7.5z"/></g><g><path d="m233.5 128.5h-97.5c-4.143 0-7.5-3.357-7.5-7.5s3.357-7.5 7.5-7.5h97.5c4.143 0 7.5 3.357 7.5 7.5s-3.357 7.5-7.5 7.5z"/></g><g><circle cx="268.7" cy="61" r="7.5"/></g><g><circle cx="173.5" cy="503.5" r="7.5"/></g></g></g><g id="Layer_1"/></svg>