<svg height="681pt" viewBox="-21 -21 681.33495 681" width="681pt" xmlns="http://www.w3.org/2000/svg"><path d="m592.0625 310.183594c-5.171875 0-9.359375 4.183594-9.359375 9.355468v165.457032h-114.21875c23.175781-45.066406 37.316406-94.648438 41.164063-144.960938.722656-9.414062-4.609376-18.304687-13.265626-22.113281-12.570312-5.542969-25.226562-10.464844-37.957031-14.765625 2.480469-4.191406 3.878907-9.0625 3.878907-14.1875 0-14.664062-11.472657-26.890625-26.128907-27.828125l-10.824219-.671875c-.625-.039062-1.183593-.441406-1.417968-1.011719l-9.722656-23.5c-.242188-.585937-.136719-1.246093.28125-1.71875l7.167968-8.128906c9.714844-11.007813 9.191406-27.765625-1.195312-38.148437-10.386719-10.386719-27.140625-10.910157-38.144532-1.199219l-8.066406 7.109375c-.332031.195312-1.03125.34375-1.539062.34375v-137.925782h51.875c1.765625 8.703126 6.007812 16.992188 12.746094 23.726563 18.238281 18.242187 47.921874 18.242187 66.164062 0 18.238281-18.242187 18.238281-47.921875 0-66.167969-18.242188-18.242187-47.925781-18.242187-66.164062 0-6.738282 6.734375-10.984376 15.03125-12.746094 23.726563h-61.230469c-5.167969 0-9.359375 4.1875-9.359375 9.359375v139.644531l-5.023438-2.082031c-.578124-.238282-.980468-.800782-1.019531-1.417969l-.675781-10.847656c-.9375-14.644531-13.15625-26.113281-27.828125-26.113281-14.667969 0-26.890625 11.46875-27.824219 26.128906l-.679687 10.828125c-.039063.621093-.4375 1.179687-1.011719 1.417969l-5.03125 2.085937v-139.644531c0-5.167969-4.1875-9.359375-9.355469-9.359375h-15.984375c-5.164062 0-9.355468 4.191406-9.355468 9.359375 0 5.164062 4.191406 9.355468 9.355468 9.355468h6.628906v137.925782c-.507812 0-1.210937-.148438-1.546874-.34375l-8.058594-7.109375c-11.003906-9.710938-27.761719-9.1875-38.148438 1.199219-10.386718 10.382812-10.910156 27.140624-1.199218 38.144531l7.175781 8.132812c.417969.472657.523437 1.132813.28125 1.722657l-9.683594 23.40625c-.261719.40625-1.082031.984374-1.550781 1.109374l-10.75.664063c-14.644532.9375-26.109375 13.160156-26.109375 27.828125 0 6.714844 2.402343 12.917969 6.414062 17.757812-13.964843 5.210938-27.773437 11.199219-41.414062 17.964844-8.226563 4.078125-13.179688 12.953125-12.316407 22.074219 4.578126 48.367187 18.390626 95.195313 40.554688 138.230469h-113.398438v-254.421875c8.609376-1.796875 16.8125-6.023438 23.488282-12.695313 18.238281-18.242187 18.238281-47.925781 0-66.164062-18.246094-18.246094-47.925782-18.246094-66.167969 0-18.242187 18.238281-18.242187 47.921875 0 66.164062 6.796875 6.792969 15.179687 11.054688 23.964844 12.785156v263.6875c0 5.167969 4.1875 9.359376 9.355469 9.359376h133.066406c8.304687 14.140624 17.554687 27.816406 27.699218 40.929687 3.164063 4.082031 9.039063 4.835937 13.125 1.671875 4.085938-3.164062 4.839844-9.039062 1.675782-13.125-41.351563-53.433594-68.113282-118.191406-74.730469-188.1875-.136719-1.460938.660156-2.882812 1.992187-3.546875 108.601563-53.855469 227.460938-55.515625 338.925782-6.414063 1.402344.621094 2.265625 2.054688 2.15625 3.5625-8.882813 115.875-72.960938 218.730469-169.863282 281.027344-1.199218.777344-2.753906.777344-3.953124 0-25.285157-16.25-48.539063-35.40625-69.128907-56.941406-3.566406-3.738281-9.492187-3.871094-13.226562-.296875-3.738281 3.570313-3.867188 9.492187-.296875 13.230469 21.605468 22.597656 46.007812 42.699218 72.53125 59.75 3.671875 2.363281 7.886718 3.542968 12.097656 3.542968s8.421875-1.179687 12.097656-3.542968c49.910156-32.089844 92.511719-75.46875 123.191406-125.4375 1.265626-2.0625 2.515626-4.144532 3.742188-6.226563h133.875c5.164062 0 9.355469-4.191406 9.355469-9.359375v-174.808594c0-5.171874-4.191407-9.355468-9.355469-9.355468zm-141.496094-283.101563c10.945313-10.945312 28.75-10.945312 39.703125 0 10.9375 10.945313 10.9375 28.753907 0 39.699219-10.945312 10.945312-28.757812 10.945312-39.703125 0-10.945312-10.945312-10.945312-28.753906 0-39.699219zm-423.566406 137.863281c10.941406-10.945312 28.75-10.945312 39.699219 0 10.945312 10.945313 10.945312 28.75 0 39.695313-10.949219 10.945313-28.753907 10.945313-39.699219 0-10.945312-10.9375-10.945312-28.75 0-39.695313zm176.910156 133.175782c-4.820312-.308594-8.59375-4.328125-8.59375-9.148438 0-4.824218 3.773438-8.84375 8.578125-9.152344l10.832031-.671874c7.351563-.460938 14.722657-5.734376 17.546876-12.539063l9.710937-23.484375c3-7.234375 1.648437-15.382812-3.535156-21.265625l-7.171875-8.132813c-3.191406-3.617187-3.015625-9.117187.394531-12.535156 3.417969-3.410156 8.917969-3.585937 12.535156-.394531l8.136719 7.179687c5.527344 4.867188 14.476562 6.351563 21.253906 3.53125 4.699219-1.945312 15.773438-6.523437 23.5-9.722656 7.128906-2.957031 12.050782-9.84375 12.527344-17.542968l.679688-10.8125c.304687-4.820313 4.324218-8.59375 9.144531-8.59375 4.824219 0 8.84375 3.773437 9.152343 8.578124l.671876 10.828126c.484374 7.699218 5.402343 14.585937 12.539062 17.546874 1.355469.5625 22.121094 9.152344 23.480469 9.714844 6.792969 2.820313 15.734375 1.339844 21.273437-3.535156l8.132813-7.171875c3.613281-3.191406 9.121093-3.015625 12.527343.394531 3.417969 3.417969 3.59375 8.917969.402344 12.535156l-7.179687 8.136719c-5.179688 5.878907-6.535157 14.027344-3.535157 21.253907l9.722657 23.503906c2.960937 7.128906 9.84375 12.046875 17.542969 12.523437l10.816406.675781c4.820312.308594 8.589844 4.328126 8.589844 9.148438 0 3.421875-1.886719 6.488281-4.785157 8.0625-21.964843-6.296875-44.113281-10.765625-66.355469-13.390625-2.679687-26.875-25.425781-47.933594-52.996093-47.933594-28.097657 0-51.179688 21.867188-53.128907 49.480469-19.730468 2.917969-39.273437 7.320312-58.5625 13.171875zm112.511719-17.164063c-10.363281.222657-20.683594.847657-30.96875 1.867188 2.910156-16.125 17.046875-28.402344 34-28.402344 16.605469 0 30.511719 11.777344 33.808594 27.421875-12.261719-.855469-24.546875-1.15625-36.839844-.886719zm0 0"/><path d="m625.152344 151.714844c-18.242188-18.246094-47.925782-18.246094-66.167969 0-18.242187 18.238281-18.242187 47.921875 0 66.164062 6.730469 6.734375 15.027344 10.976563 23.726563 12.742188v48.367187c0 5.164063 4.1875 9.355469 9.355468 9.355469 5.171875 0 9.359375-4.191406 9.359375-9.355469v-48.367187c8.699219-1.765625 16.996094-6.007813 23.726563-12.742188 18.242187-18.242187 18.242187-47.925781 0-66.164062zm-13.234375 52.925781c-10.945313 10.945313-28.753907 10.945313-39.699219 0-10.945312-10.9375-10.945312-28.75 0-39.695313 10.945312-10.945312 28.753906-10.945312 39.699219 0 10.945312 10.945313 10.945312 28.757813 0 39.695313zm0 0"/><path d="m201.570312 80.015625c6.734376-6.734375 10.980469-15.027344 12.742188-23.726563h5.328125c5.171875 0 9.359375-4.1875 9.359375-9.355468 0-5.167969-4.1875-9.359375-9.359375-9.359375h-5.328125c-1.761719-8.695313-6.007812-16.988281-12.742188-23.722657-18.242187-18.238281-47.925781-18.238281-66.167968 0-18.242188 18.242188-18.242188 47.925782 0 66.164063 18.242187 18.242187 47.925781 18.242187 66.167968 0zm-52.933593-52.933594c10.941406-10.945312 28.753906-10.945312 39.703125 0 10.941406 10.945313 10.941406 28.753907 0 39.699219-10.949219 10.945312-28.757813 10.945312-39.703125 0-10.945313-10.945312-10.945313-28.753906 0-39.699219zm0 0"/><path d="m313.742188 594.734375c1.617187 1.148437 3.519531 1.722656 5.414062 1.722656 1.898438 0 3.792969-.574219 5.414062-1.722656 77.546876-55.019531 133.113282-140.253906 145.921876-239.585937.550781-4.257813-1.871094-8.347657-5.871094-9.914063-45.75-17.878906-92.691406-26.941406-139.527344-26.941406-51.566406 0-102.359375 10.917969-150.964844 32.464843-3.84375 1.707032-6.082031 5.765626-5.46875 9.921876 14.074219 95.207031 67.222656 178.824218 145.082032 234.054687zm-125.4375-229.714844c44.191406-18.59375 90.175781-28.015625 136.789062-28.015625 42.148438 0 84.4375 7.75 125.8125 23.042969-6.484375 42.65625-21.378906 83.167969-44.308594 120.519531-22.347656 36.402344-52.488281 69.121094-87.445312 94.980469-34.746094-25.703125-64.722656-58.164063-86.957032-94.230469-21.792968-35.355468-36.902343-75.417968-43.890624-116.296875zm0 0"/><path d="m351.890625 504.203125c7.914063 0 14.351563-6.4375 14.351563-14.351563v-19.960937c0-16.457031-8.542969-30.957031-21.425782-39.300781 5.554688-6.09375 8.945313-14.199219 8.945313-23.078125 0-18.917969-15.390625-34.3125-34.308594-34.3125s-34.3125 15.394531-34.3125 34.3125c0 8.878906 3.394531 16.984375 8.949219 23.078125-12.878906 8.34375-21.421875 22.84375-21.421875 39.300781v19.960937c0 7.914063 6.4375 14.351563 14.34375 14.351563zm-48.03125-96.691406c0-8.601563 6.992187-15.59375 15.59375-15.59375 8.597656 0 15.597656 6.992187 15.597656 15.59375 0 8.601562-7 15.59375-15.597656 15.59375-8.601563 0-15.59375-6.992188-15.59375-15.59375zm-12.480469 62.378906c0-15.480469 12.59375-28.070313 28.074219-28.070313s28.070313 12.589844 28.070313 28.070313v15.597656h-56.144532zm0 0"/></svg>