<svg height="512pt" viewBox="-1 -46 512.00232 512" width="512pt" xmlns="http://www.w3.org/2000/svg"><path d="m486.683594 221.085938c-5.417969-1.035157-10.664063 2.515624-11.703125 7.9375l-.050781.265624c-1.042969 5.421876 2.511718 10.664063 7.9375 11.703126.632812.125 1.269531.183593 1.894531.183593 4.699219 0 8.890625-3.332031 9.808593-8.117187l.050782-.265625c1.042968-5.425781-2.511719-10.664063-7.9375-11.707031zm0 0"/><path d="m489.566406 112.714844c-13.433594-2.792969-29.882812 3.988281-33.914062 22.050781l-13.964844 62.550781c-10.222656-3.285156-21.894531-.414062-29.359375 8.203125l-18.230469 21.0625c-13.214844 15.265625-13.214844 15.265625-27.011718 18.9375-3.222657.855469-7.230469 1.921875-12.097657 3.347657-56.285156 16.496093-78.367187 68.230468-80.753906 110.707031-7.601563 3.652343-12.859375 11.429687-12.859375 20.410156v17.355469c0 12.484375 10.152344 22.636718 22.636719 22.636718h91.703125c12.480468 0 22.636718-10.152343 22.636718-22.636718v-17.355469c0-4.273437-1.195312-8.277344-3.261718-11.691406l41.109375-22.078125c.042969-.023438.082031-.046875.125-.070313 35.890625-19.945312 42.046875-28.917969 50.683593-73.84375 1.042969-5.421875-2.507812-10.664062-7.929687-11.707031-5.421875-1.039062-10.664063 2.507812-11.707031 7.933594-7.800782 40.578125-11.300782 43.761718-40.695313 60.101562l-53.476562 28.71875h-78.761719c2.914062-35.039062 21.367188-76.15625 66.179688-89.285156 4.625-1.359375 8.335937-2.347656 11.613281-3.21875 17.515625-4.660156 20.707031-6.359375 36.988281-25.171875l18.234375-21.0625c2.746094-3.171875 7.570313-3.519531 10.742187-.769531 3.925782 3.394531 1.855469 8.980468.011719 11.746094-9.488281 14.246093-18.839843 27.835937-27.882812 40.976562-4.625 6.722656-9.246094 13.441406-13.910157 20.273438-3.113281 4.5625-1.9375 10.785156 2.625 13.898437 4.5625 3.109375 10.78125 1.9375 13.894532-2.625 4.648437-6.8125 9.257812-13.511719 13.867187-20.210937 9.082031-13.203126 18.476563-26.855469 28.050781-41.226563 5.808594-8.722656 6.964844-18.898437 3.773438-27.40625l16.550781-74.144531c1.820313-8.160156 8.914063-7.117188 10.320313-6.824219 2.351562.488281 7.664062 2.410156 6.257812 9.703125l-11.332031 58.804688c-1.042969 5.425781 2.503906 10.667968 7.925781 11.710937 5.421875 1.039063 10.667969-2.503906 11.710938-7.925781l11.332031-58.804688c3.46875-18.011718-8.355469-30.269531-21.824219-33.070312zm-111.214844 284.625c0 1.429687-1.210937 2.636718-2.640624 2.636718h-91.703126c-1.429687 0-2.636718-1.207031-2.636718-2.636718v-17.355469c0-1.429687 1.207031-2.636719 2.636718-2.636719h91.683594.027344.007812c1.421876.011719 2.625 1.214844 2.625 2.636719zm0 0"/><path d="m237.765625 359.570312c-2.382813-42.476562-24.46875-94.207031-80.753906-110.703124-4.867188-1.425782-8.875-2.492188-12.097657-3.347657-13.796874-3.671875-13.796874-3.671875-27.011718-18.9375l-18.230469-21.0625c-7.464844-8.617187-19.136719-11.488281-29.363281-8.203125l-13.960938-62.554687c-4.03125-18.0625-20.480468-24.832031-33.910156-22.046875-13.472656 2.800781-25.296875 15.058594-21.824219 33.070312 1.042969 5.421875 6.289063 8.96875 11.710938 7.925782 5.421875-1.046876 8.96875-6.289063 7.925781-11.710938-1.40625-7.292969 3.90625-9.21875 6.253906-9.703125 1.402344-.292969 8.503906-1.335937 10.324219 6.824219l16.550781 74.144531c-3.195312 8.507813-2.035156 18.683594 3.773438 27.402344 9.574218 14.375 18.96875 28.027343 28.050781 41.230469 4.609375 6.695312 9.21875 13.394531 13.867187 20.207031 3.113282 4.5625 9.332032 5.738281 13.894532 2.625s5.738281-9.332031 2.625-13.894531c-4.664063-6.835938-9.289063-13.554688-13.910156-20.273438-9.042969-13.140625-18.394532-26.730469-27.886719-40.980469-1.839844-2.761719-3.910157-8.347656.011719-11.746093 3.175781-2.746094 7.996093-2.402344 10.746093.773437l18.234375 21.0625c16.28125 18.8125 19.472656 20.511719 36.988282 25.171875 3.273437.871094 6.984374 1.859375 11.613281 3.21875 44.8125 13.128906 63.261719 54.246094 66.175781 89.285156h-78.761719l-53.472656-28.71875c-29.394531-16.339844-32.894531-19.523437-40.695313-60.105468l-11.332031-58.808594c-1.046875-5.421875-6.289062-8.964844-11.710937-7.925782-5.421875 1.046876-8.972656 6.289063-7.925782 11.710938l11.332032 58.800781c8.636718 44.925781 14.792968 53.898438 50.683594 73.84375.039062.023438.082031.046875.125.070313l41.109374 22.078125c-2.070312 3.414062-3.261718 7.417969-3.261718 11.691406v17.355469c0 12.484375 10.15625 22.636718 22.636718 22.636718h91.703126c12.480468 0 22.636718-10.152343 22.636718-22.636718v-17.355469c0-8.980469-5.261718-16.757813-12.863281-20.414063zm-7.136719 37.769532c0 1.429687-1.207031 2.636718-2.636718 2.636718h-91.703126c-1.429687 0-2.640624-1.207031-2.640624-2.636718v-17.355469c0-1.425781 1.203124-2.625 2.625-2.636719h.003906.03125 91.683594c1.429687 0 2.636718 1.207032 2.636718 2.636719zm0 0"/><path d="m19.929688 193.21875c5.421874-1.039062 8.976562-6.28125 7.933593-11.703125l-.050781-.265625c-1.039062-5.421875-6.28125-8.976562-11.703125-7.933594-5.425781 1.039063-8.976563 6.277344-7.9375 11.703125l.050781.265625c.921875 4.785156 5.109375 8.117188 9.808594 8.117188.625 0 1.261719-.0625 1.898438-.183594zm0 0"/><path d="m169.339844 153.324219h43.328125v43.332031c0 12.863281 10.46875 23.332031 23.332031 23.332031h40c12.863281 0 23.328125-10.46875 23.328125-23.332031v-43.332031h43.332031c12.867188 0 23.332032-10.464844 23.332032-23.332031v-39.996094c0-12.867188-10.464844-23.332032-23.332032-23.332032h-43.332031v-43.332031c0-12.863281-10.464844-23.332031-23.328125-23.332031h-40c-12.863281 0-23.332031 10.46875-23.332031 23.332031v43.332031h-43.328125c-12.867188 0-23.332032 10.464844-23.332032 23.332032v39.996094c0 12.867187 10.464844 23.332031 23.332032 23.332031zm-3.332032-63.328125c0-1.808594 1.523438-3.335938 3.332032-3.335938h53.328125c5.523437 0 10-4.476562 10-9.996094v-53.332031c0-1.804687 1.527343-3.332031 3.332031-3.332031h40c1.804688 0 3.332031 1.527344 3.332031 3.332031v53.332031c0 5.519532 4.476563 9.996094 10 9.996094h53.328125c1.808594 0 3.332032 1.527344 3.332032 3.335938v39.996094c0 1.808593-1.523438 3.332031-3.332032 3.332031h-53.328125c-5.523437 0-10 4.480469-10 10v53.332031c0 1.808594-1.527343 3.332031-3.332031 3.332031h-40c-1.804688 0-3.332031-1.523437-3.332031-3.332031v-53.332031c0-5.519531-4.476563-10-10-10h-53.328125c-1.808594 0-3.332032-1.523438-3.332032-3.332031zm0 0"/></svg>