<svg id="Capa_1" enable-background="new 0 0 511.996 511.996" height="512" viewBox="0 0 511.996 511.996" width="512" xmlns="http://www.w3.org/2000/svg"><g><path d="m133.593 93.274c0 22.14 18.013 40.152 40.153 40.152s40.152-18.012 40.152-40.152-18.013-40.153-40.152-40.153c-22.14 0-40.153 18.013-40.153 40.153zm65.306 0c0 13.869-11.283 25.152-25.152 25.152s-25.153-11.283-25.153-25.152 11.284-25.153 25.153-25.153 25.152 11.284 25.152 25.153z"/><path d="m296.107 60.621v40.196l-29.062-44.309c-1.819-2.773-5.242-4.021-8.418-3.073-3.177.949-5.354 3.871-5.354 7.187v65.306c0 4.142 3.357 7.5 7.5 7.5s7.5-3.358 7.5-7.5v-40.197l29.062 44.309c1.819 2.773 5.241 4.021 8.418 3.073 3.177-.949 5.354-3.871 5.354-7.187v-65.305c0-4.142-3.357-7.5-7.5-7.5s-7.5 3.358-7.5 7.5z"/><path d="m225.728 60.621v65.306c0 4.142 3.357 7.5 7.5 7.5s7.5-3.358 7.5-7.5v-65.306c0-4.142-3.357-7.5-7.5-7.5s-7.5 3.358-7.5 7.5z"/><path d="m108.671 60.621v49.483c0 4.108-2.718 6.671-5.261 7.699-1.154.466-5.177 1.721-8.507-1.725-1.058-1.095-2.064-2.289-2.991-3.548-2.455-3.336-7.151-4.049-10.485-1.595-3.336 2.456-4.051 7.15-1.595 10.486 1.321 1.796 2.764 3.505 4.285 5.08 6.527 6.754 16.065 8.784 24.914 5.208 8.894-3.595 14.64-12.075 14.64-21.605v-49.483c0-4.142-3.357-7.5-7.5-7.5s-7.5 3.358-7.5 7.5z"/><path d="m380.8 57.477c-12.166-11.07-31.206-11.073-42.921.167-12.772 12.258-12.807 32.563-.141 44.854l30.538 29.635c3.511 3.407 8.017 5.111 12.523 5.111s9.015-1.705 12.526-5.113l30.536-29.632c12.65-12.277 12.645-32.584-.141-44.854-11.709-11.24-30.75-11.239-42.92-.168zm32.617 34.257-30.536 29.633c-1.164 1.131-2.991 1.133-4.157.002l-30.538-29.634c-6.543-6.35-6.578-16.878.081-23.268 3.01-2.889 6.975-4.323 10.991-4.323 4.247 0 8.553 1.606 11.839 4.796l2.115 2.052c4.256 4.131 10.924 4.128 15.18 0l2.112-2.051c6.396-6.207 16.638-6.417 22.832-.473 6.691 6.421 6.589 16.949.081 23.266z"/><path d="m470.655 83.167c4.143 0 7.5-3.358 7.5-7.5v-20.752c0-30.28-24.635-54.915-54.915-54.915h-334.485c-30.279 0-54.914 24.635-54.914 54.915v78.865c0 30.28 24.635 54.915 54.914 54.915h334.485c30.28 0 54.915-24.635 54.915-54.915v-23.113c0-4.142-3.357-7.5-7.5-7.5s-7.5 3.358-7.5 7.5v23.113c0 22.009-17.906 39.915-39.915 39.915h-334.485c-22.009 0-39.914-17.906-39.914-39.915v-78.865c0-22.009 17.906-39.915 39.914-39.915h334.485c22.009 0 39.915 17.906 39.915 39.915v20.752c0 4.142 3.357 7.5 7.5 7.5z"/><path d="m168.464 360.884c-.15.071-.179.046-.282-.042-9.741-8.325-24.657-19.34-40.396-24.54-10.132-3.349-20.979-.071-26.996 8.15-6.457 8.823-6.079 20.793.918 29.109 12.729 15.129 37.225 44.053 58.258 67.783 2.452 2.766 6.272 8.628 10.551 20.845 10.423 29.767 38.452 49.766 69.748 49.766 3.112 0 5.956.02 8.585.038l.143.001c.189.001.377.002.566.002 42.025-.002 78.134-32.095 81.944-74.952.377-4.241.575-8.236.574-11.548v-81.629c0-14.372-11.331-26.404-25.259-26.823-6.365-.19-12.449 1.886-17.313 5.888-4.632-6.166-11.787-10.251-19.803-10.491-6.344-.187-12.447 1.888-17.312 5.89-4.632-6.165-11.788-10.252-19.804-10.491-4.164-.127-8.197.719-11.848 2.433v-16.273c0-4.142-3.357-7.5-7.5-7.5s-7.5 3.358-7.5 7.5v53.721c0 4.142 3.357 7.5 7.5 7.5s7.5-3.358 7.5-7.5v-13.834c0-6.242 5.157-11.254 11.4-11.052 5.906.176 10.711 5.484 10.712 11.833.001 4.83.001 2.184.001 13.055 0 4.142 3.357 7.5 7.5 7.5s7.5-3.358 7.5-7.5v-9.233c0-6.203 5.107-11.249 11.401-11.052 5.906.177 10.711 5.484 10.711 11.831v8.455c0 4.142 3.357 7.5 7.5 7.5s7.5-3.358 7.5-7.5v-4.632c0-3.016 1.192-5.834 3.358-7.936 2.164-2.099 5.004-3.206 8.044-3.115 5.905.177 10.71 5.484 10.71 11.83v81.631c.001 2.878-.178 6.412-.516 10.218-3.118 35.077-32.695 61.279-67.002 61.279-.153 0-.309 0-.463-.002l-.144-.001c-2.66-.018-5.539-.038-8.688-.038-24.932 0-47.271-15.963-55.591-39.724-4.14-11.82-8.55-20.271-13.483-25.837-21.701-24.485-47.794-55.355-58.005-67.491-2.532-3.01-2.652-7.366-.29-10.593 2.127-2.907 6.312-4.045 10.185-2.766 13.426 4.435 26.638 14.249 35.356 21.7 4.582 3.917 10.829 4.786 16.305 2.263 5.48-2.525 8.886-7.845 8.886-13.884l-.001-122.872c0-3.016 1.192-5.834 3.357-7.935 2.164-2.101 5.022-3.213 8.044-3.116 5.907.177 10.712 5.483 10.712 11.83v20.467c0 4.142 3.357 7.5 7.5 7.5s7.5-3.358 7.5-7.5v-20.471c0-14.374-11.333-26.406-25.263-26.823-7.144-.221-13.841 2.396-18.939 7.345-5.102 4.951-7.911 11.592-7.911 18.699l.001 122.872c.002.136.002.187-.161.262z"/></g></svg>