<svg id="Capa_1" enable-background="new 0 0 511.993 511.993" height="512" viewBox="0 0 511.993 511.993" width="512" xmlns="http://www.w3.org/2000/svg"><g><path d="m326.244 384.868-34.633 21.067c-33.261 20.232-73.455 24.588-110.276 11.946-4.802-1.648-8.096-5.634-8.809-10.661-.714-5.028 1.341-9.772 5.496-12.692l36.019-25.312c10.204-7.171 12.78-20.918 5.865-31.298-5.25-7.878-14.618-11.653-23.86-9.628l-90.349 19.821c-.577-8.583-7.726-15.395-16.453-15.395h-75.84c-7.391 0-13.404 6.013-13.404 13.405v68.149c0 4.143 3.357 7.5 7.5 7.5s7.5-3.357 7.5-7.5v-66.554h74.243c.832 0 1.51.677 1.51 1.509v127.949c0 .832-.678 1.509-1.51 1.509h-74.243v-34.427c0-4.143-3.357-7.5-7.5-7.5s-7.5 3.357-7.5 7.5v36.022c0 7.392 6.013 13.404 13.404 13.404h75.839c9.104 0 16.51-7.406 16.51-16.509v-.422l.954.275c25.443 7.341 51.449 10.936 77.278 10.936 63.831 0 126.587-21.95 177.113-63.542 5.27-4.339 8.407-10.74 8.609-17.563.617-20.897-25.276-33.059-43.463-21.989zm25.32 27.973c-116.321 95.75-243.888 48.375-245.812 48.3v-97.685l93.508-20.515c3.165-.693 6.367.6 8.163 3.294 2.365 3.551 1.483 8.254-2.008 10.707l-36.019 25.312c-8.729 6.136-13.222 16.509-11.723 27.073 1.499 10.563 8.699 19.277 18.79 22.741 41.05 14.092 85.861 9.238 122.941-13.319l34.634-21.067c9.038-5.496 20.911.68 20.675 8.732-.073 2.534-1.192 4.816-3.149 6.427z"/><path d="m65.739 441.528v-12.265c0-4.143-3.357-7.5-7.5-7.5s-7.5 3.357-7.5 7.5v12.265c0 4.143 3.357 7.5 7.5 7.5s7.5-3.358 7.5-7.5z"/><path d="m498.588 18.31h-75.839c-9.103 0-16.509 7.406-16.509 16.509v.422l-.955-.275c-14.656-4.229-29.792-7.268-44.985-9.031-4.112-.475-7.837 2.471-8.315 6.585-.478 4.115 2.471 7.838 6.585 8.315 25.476 2.956 45.516 9.478 47.671 10.019v97.683l-93.507 20.515c-3.167.696-6.368-.599-8.164-3.293-2.365-3.551-1.484-8.254 2.008-10.707l36.019-25.312c8.729-6.136 13.222-16.509 11.723-27.072-1.499-10.564-8.699-19.278-18.792-22.743-41.047-14.091-85.859-9.237-122.939 13.32l-34.633 21.066c-9.277 5.647-20.909-.893-20.676-8.733.075-2.532 1.193-4.814 3.149-6.425 47.097-38.768 106.604-60.074 167.705-60.074.425 0 .854.001 1.278.003h.037c4.124 0 7.479-3.334 7.499-7.464.021-4.142-3.321-7.516-7.464-7.536-65.04-.28-128.466 22.231-178.589 63.491-5.27 4.338-8.408 10.739-8.609 17.562-.616 20.779 25.042 33.197 43.464 21.991l34.633-21.067c33.262-20.232 73.454-24.585 110.275-11.947 4.803 1.648 8.097 5.635 8.81 10.662.714 5.028-1.341 9.773-5.496 12.692l-36.018 25.312c-10.205 7.17-12.782 20.918-5.866 31.297 4.307 6.465 11.387 10.169 18.898 10.169 1.642 0 3.304-.177 4.962-.54l90.349-19.822c.577 8.583 7.725 15.396 16.452 15.396h75.839c7.392 0 13.405-6.013 13.405-13.404v-134.16c0-7.391-6.014-13.404-13.405-13.404zm-1.595 145.967h-74.244c-.832 0-1.509-.677-1.509-1.509v-127.949c0-.832.677-1.509 1.509-1.509h74.244z"/><path d="m453.753 90.23c4.143 0 7.5-3.357 7.5-7.5v-12.265c0-4.143-3.357-7.5-7.5-7.5s-7.5 3.357-7.5 7.5v12.265c0 4.143 3.357 7.5 7.5 7.5z"/><path d="m319.188 271.671c3.725 1.823 8.213.281 10.033-3.439 4.134-8.446 6.229-17.011 6.229-25.456 0-25.955-19.097-46.286-43.476-46.286-17.339 0-29.332 7.886-35.976 13.926-6.644-6.04-18.637-13.926-35.976-13.926-24.379 0-43.476 20.331-43.476 46.286 0 41.669 47.752 70.726 76.216 84.337 1.022.489 2.129.733 3.235.733s2.213-.245 3.235-.733c20.749-9.922 37.621-20.969 50.147-32.834 3.007-2.849 3.136-7.596.287-10.604-2.851-3.008-7.598-3.135-10.604-.287-10.746 10.18-25.222 19.798-43.065 28.618-41.017-20.303-64.452-45.422-64.452-69.23 0-17.836 12.242-31.286 28.476-31.286 19.445 0 29.423 13.683 29.81 14.225 1.401 2.022 3.691 3.25 6.151 3.25 2.461 0 4.751-1.187 6.152-3.21.415-.582 10.393-14.265 29.838-14.265 16.233 0 28.476 13.45 28.476 31.286 0 6.141-1.582 12.486-4.702 18.862-1.818 3.721-.278 8.213 3.442 10.033z"/></g></svg>