<svg version="1.1" id="Layer_1" xmlns="http://www.w3.org/2000/svg" xmlns:xlink="http://www.w3.org/1999/xlink" x="0px" y="0px" viewBox="0 0 512 512" style="enable-background:new 0 0 512 512;" xml:space="preserve">
<g>
	
		<line style="fill:none;stroke:#000000;stroke-width:15;stroke-linecap:round;stroke-linejoin:round;stroke-miterlimit:10;" x1="256" y1="504.422" x2="256" y2="368.638"/>
	
		<line style="fill:none;stroke:#000000;stroke-width:15;stroke-linecap:round;stroke-linejoin:round;stroke-miterlimit:10;" x1="129.003" y1="434.406" x2="161.575" y2="315.465"/>
	
		<line style="fill:none;stroke:#000000;stroke-width:15;stroke-linecap:round;stroke-linejoin:round;stroke-miterlimit:10;" x1="382.997" y1="434.406" x2="350.425" y2="315.465"/>
	
		<circle style="fill:none;stroke:#000000;stroke-width:15;stroke-linecap:round;stroke-linejoin:round;stroke-miterlimit:10;" cx="256" cy="127.5" r="60"/>
	
		<circle style="fill:none;stroke:#000000;stroke-width:15;stroke-linecap:round;stroke-linejoin:round;stroke-miterlimit:10;" cx="256" cy="127.5" r="30"/>
	<path style="fill:none;stroke:#000000;stroke-width:15;stroke-linecap:round;stroke-linejoin:round;stroke-miterlimit:10;" d="&#10;&#9;&#9;M161.207,53.92C145.411,74.24,136,99.77,136,127.5c0,24.713,7.474,47.678,20.279,66.766c-0.005,0,87.264,130.093,87.264,130.093&#10;&#9;&#9;c5.942,8.858,18.971,8.858,24.914,0l87.269-130.093C368.527,175.178,376,152.213,376,127.5c0-66.274-53.726-120-120-120&#10;&#9;&#9;c-27.73,0-53.26,9.411-73.58,25.207"/>
	<path style="fill:none;stroke:#000000;stroke-width:15;stroke-linecap:round;stroke-linejoin:round;stroke-miterlimit:10;" d="&#10;&#9;&#9;M78.143,462.496l43.827-26.011c4.719-2.801,10.592-2.801,15.311,0l111.063,65.913c4.719,2.801,10.592,2.801,15.311,0&#10;&#9;&#9;l111.063-65.913c4.719-2.801,10.591-2.801,15.311,0L504.5,504.422l-61-135.784l-86.094-51.095c-4.719-2.801-10.592-2.801-15.311,0&#10;&#9;&#9;L256,368.638l-86.094-51.095c-4.719-2.801-10.592-2.801-15.311,0L68.5,368.638l-61,135.784l44.845-26.614"/>
</g>
<g>
</g>
<g>
</g>
<g>
</g>
<g>
</g>
<g>
</g>
<g>
</g>
<g>
</g>
<g>
</g>
<g>
</g>
<g>
</g>
<g>
</g>
<g>
</g>
<g>
</g>
<g>
</g>
<g>
</g>
</svg>