<?xml version="1.0" encoding="iso-8859-1"?>
<!-- Generator: Adobe Illustrator 19.0.0, SVG Export Plug-In . SVG Version: 6.00 Build 0)  -->
<svg version="1.1" id="Layer_1" xmlns="http://www.w3.org/2000/svg" xmlns:xlink="http://www.w3.org/1999/xlink" x="0px" y="0px"
	 viewBox="0 0 512 512" style="enable-background:new 0 0 512 512;" xml:space="preserve">
<g>
	<g>
		<path d="M275.676,256l111.169-111.169c5.435-5.433,5.435-14.242,0.001-19.675c-5.435-5.433-14.243-5.433-19.677,0L256.001,236.325
			L144.832,125.156c-5.433-5.433-14.243-5.433-19.678,0c-5.435,5.433-5.433,14.243,0,19.677l111.169,111.169L125.154,367.169
			c-5.433,5.433-5.433,14.243,0,19.677c2.717,2.717,6.278,4.075,9.838,4.075c3.561,0,7.122-1.358,9.838-4.075l111.169-111.169
			l111.169,111.169c2.716,2.717,6.278,4.075,9.838,4.075s7.122-1.358,9.838-4.075c5.433-5.433,5.433-14.243,0-19.677L275.676,256z"
			/>
	</g>
</g>
<g>
	<g>
		<path d="M255.999,0.001C114.841,0.001,0,114.841,0,256s114.841,255.999,255.999,255.999S512,397.159,512,256
			S397.158,0.001,255.999,0.001z M255.999,484.173C130.185,484.173,27.827,381.816,27.827,256
			c0-125.815,102.357-228.172,228.172-228.172S484.173,130.186,484.173,256C484.173,381.816,381.815,484.173,255.999,484.173z"/>
	</g>
</g>
<g>
</g>
<g>
</g>
<g>
</g>
<g>
</g>
<g>
</g>
<g>
</g>
<g>
</g>
<g>
</g>
<g>
</g>
<g>
</g>
<g>
</g>
<g>
</g>
<g>
</g>
<g>
</g>
<g>
</g>
</svg>
