<svg version="1.1" id="Capa_1" xmlns="http://www.w3.org/2000/svg" xmlns:xlink="http://www.w3.org/1999/xlink" x="0px" y="0px" viewBox="0 0 511.573 511.573" style="enable-background:new 0 0 511.573 511.573;" xml:space="preserve">
<g>
	<path style="fill:none;stroke:#000000;stroke-width:15;stroke-linecap:round;stroke-linejoin:round;stroke-miterlimit:10;" d="&#10;&#9;&#9;M378.329,399.162H27.5c-11.046,0-20-8.954-20-20V68.3c0-11.046,8.954-20,20-20h456.573c11.046,0,20,8.954,20,20v310.863&#10;&#9;&#9;c0,11.046-8.954,20-20,20h-69.744"/>
	
		<line style="fill:none;stroke:#000000;stroke-width:15;stroke-linecap:round;stroke-linejoin:round;stroke-miterlimit:10;" x1="310.667" y1="399.162" x2="330.667" y2="463.273"/>
	
		<line style="fill:none;stroke:#000000;stroke-width:15;stroke-linecap:round;stroke-linejoin:round;stroke-miterlimit:10;" x1="180.905" y1="463.273" x2="200.905" y2="399.162"/>
	
		<line style="fill:none;stroke:#000000;stroke-width:15;stroke-linecap:round;stroke-linejoin:round;stroke-miterlimit:10;" x1="144.7" y1="463.273" x2="366.872" y2="463.273"/>
	
		<line style="fill:none;stroke:#000000;stroke-width:15;stroke-linecap:round;stroke-linejoin:round;stroke-miterlimit:10;" x1="7.5" y1="348.68" x2="502.073" y2="348.68"/>
	<path style="fill:none;stroke:#000000;stroke-width:15;stroke-linecap:round;stroke-linejoin:round;stroke-miterlimit:10;" d="&#10;&#9;&#9;M343.548,179.037c-7.258,0-13.739,3.318-18.017,8.517c-0.613,0.745-1.749,0.745-2.362,0c-4.277-5.2-10.758-8.517-18.017-8.517&#10;&#9;&#9;c-12.882,0-23.324,10.443-23.324,23.324c0,12.886,10.728,20.32,20.175,27.012c6.688,4.738,13.553,9.245,20.516,13.573&#10;&#9;&#9;c1.117,0.694,2.529,0.695,3.648,0.005c6.845-4.216,30.786-19.229,35.377-25.75c3.01-4.276,5.329-9.202,5.329-14.84&#10;&#9;&#9;C366.872,189.479,356.43,179.037,343.548,179.037z"/>
	<path style="fill:none;stroke:#000000;stroke-width:15;stroke-linecap:round;stroke-linejoin:round;stroke-miterlimit:10;" d="&#10;&#9;&#9;M268.832,147.468h142.296c4.006,0,7.253,3.247,7.253,7.253V348.68H93.192V273.94"/>
	
		<line style="fill:none;stroke:#000000;stroke-width:15;stroke-linecap:round;stroke-linejoin:round;stroke-miterlimit:10;" x1="149.51" y1="316.58" x2="195.42" y2="316.58"/>
	
		<line style="fill:none;stroke:#000000;stroke-width:15;stroke-linecap:round;stroke-linejoin:round;stroke-miterlimit:10;" x1="232.832" y1="284.039" x2="278.741" y2="284.039"/>
	
		<line style="fill:none;stroke:#000000;stroke-width:15;stroke-linecap:round;stroke-linejoin:round;stroke-miterlimit:10;" x1="232.832" y1="316.58" x2="278.741" y2="316.58"/>
	
		<line style="fill:none;stroke:#000000;stroke-width:15;stroke-linecap:round;stroke-linejoin:round;stroke-miterlimit:10;" x1="316.153" y1="284.039" x2="362.062" y2="284.039"/>
	
		<line style="fill:none;stroke:#000000;stroke-width:15;stroke-linecap:round;stroke-linejoin:round;stroke-miterlimit:10;" x1="316.153" y1="316.58" x2="362.062" y2="316.58"/>
	<path style="fill:none;stroke:#000000;stroke-width:15;stroke-linecap:round;stroke-linejoin:round;stroke-miterlimit:10;" d="&#10;&#9;&#9;M109.583,224.299c-13.512,7.691-24.08,19.958-29.602,34.691"/>
	<path style="fill:none;stroke:#000000;stroke-width:15;stroke-linecap:round;stroke-linejoin:round;stroke-miterlimit:10;" d="&#10;&#9;&#9;M205.206,258.99c-5.73-15.29-16.896-27.924-31.147-35.543"/>
	<path style="fill:none;stroke:#000000;stroke-width:15;stroke-linecap:round;stroke-linejoin:round;stroke-miterlimit:10;" d="&#10;&#9;&#9;M182.588,187.751v9.448c0,21.917-17.767,39.684-39.684,39.684h0c-21.917,0-39.684-17.767-39.684-39.684v-8.934"/>
	
		<circle style="fill:none;stroke:#000000;stroke-width:15;stroke-linecap:round;stroke-linejoin:round;stroke-miterlimit:10;" cx="142.594" cy="187.037" r="95.407"/>
	<path style="fill:none;stroke:#000000;stroke-width:15;stroke-linecap:round;stroke-linejoin:round;stroke-miterlimit:10;" d="&#10;&#9;&#9;M182.588,187.751v-12.987c0-21.917-17.767-39.684-39.684-39.684h0c-21.917,0-39.684,17.767-39.684,39.684v12.987"/>
	<path style="fill:none;stroke:#000000;stroke-width:15;stroke-linecap:round;stroke-linejoin:round;stroke-miterlimit:10;" d="&#10;&#9;&#9;M103.22,184.93c25.59,0,35.128-8.795,38.29-13.169c0.663-0.918,2.124-0.918,2.788,0c3.161,4.374,12.7,13.169,38.29,13.169"/>
</g>
<g>
</g>
<g>
</g>
<g>
</g>
<g>
</g>
<g>
</g>
<g>
</g>
<g>
</g>
<g>
</g>
<g>
</g>
<g>
</g>
<g>
</g>
<g>
</g>
<g>
</g>
<g>
</g>
<g>
</g>
</svg>