<svg id="Layer_1" enable-background="new 0 0 518.711 518.711" height="512" viewBox="0 0 518.711 518.711" width="512" xmlns="http://www.w3.org/2000/svg"><g fill="#020202"><g><path d="m511.186 389.976c-3.788 0-7.505 3.787-7.51 7.49l-.073 54.074c-.008 6.603-1.906 12.989-5.354 18.459-7.142-14.901-18.364-27.711-32.564-36.703 18.84-14.302 31.077-36.936 31.155-62.374.01-3.422-2.297-6.418-5.61-7.28-31.108-8.103-38.205-38.847-38.486-40.125-1.599-7.529-12.829-7.797-14.635-.17-9.597 40.542-43.232 47.739-71.922 45.866.41-2.653.645-5.349.645-8.083 0-11.829-3.834-23.003-11.087-32.313-3.094-3.97-3.132-10.762-2.626-15.647 0-3.695-.215-7.34-.62-10.928 16.251-20.161 40.216-31.673 66.134-31.673 46.912 0 85.078 38.314 85.078 85.408 0 9.697 15 9.697 15 0 0-55.365-44.895-100.408-100.078-100.408-26.56 0-51.372 10.267-69.96 28.579-12.309-39.096-48.798-67.52-91.782-67.52-41.225 0-76.474 26.146-90.148 62.743-17.963-20.599-43.946-32.604-71.582-32.604-52.472-.002-95.161 42.881-95.161 95.591 0 24.379 9.137 47.595 25.729 65.369 0 0 12.598 18.124 22.35 25.537-25.418 16.096-41.368 44.536-41.368 75.086 0 9.697 15 9.697 15 0 0-28.025 16.139-53.912 41.186-66.221 20.323 9.299 44.244 9.353 64.589.08 24.41 12.068 41.638 38.632 40.968 66.141 0 9.344 15.06 10.221 15.06 0 0-12.86-.06-25.723-.06-38.584 0-28.238 16.064-53.896 41.178-66.224 20.342 9.31 44.222 9.33 64.589.078 24.957 12.338 41.033 38.184 41.033 66.146 0 12.861-.06 25.724-.06 38.584 0 9.344 15.06 10.221 15.06 0-.073-27.668 16.19-53.911 41.012-66.164 20.368 9.253 44.239 9.261 64.592-.035 25.052 12.331 41.137 38.094 41.137 66.199 0 9.697 15 9.697 15 0 0-7.492-.954-14.846-2.762-21.918 9.148-9.241 14.353-21.763 14.369-34.873l.073-54.073c.006-4.142-3.347-7.504-7.489-7.51zm-493.437-26.704c-1.799-6.754-2.749-13.771-2.749-20.914 0-44.439 35.96-80.593 80.161-80.593 26.665 0 51.511 13.279 66.465 35.523.087.13.184.249.278.371-.811 5.028-1.239 10.183-1.239 15.436.631 4.603 0 10.359-3.069 13.996-2.49 2.952-4.628 6.17-6.391 9.583-4.786-2.153-9.981-3.277-15.348-3.277h-81.393c-18.059.002-33.176 12.835-36.715 29.875zm77.46 70.905c-34.767 0-63.138-28.396-63.245-63.278 0-12.406 10.093-22.5 22.5-22.5h81.393c3.681 0 7.227.879 10.422 2.556-.641 3.327-.981 6.732-.981 10.174 0 11.078 3.459 21.652 9.663 30.409-8.754 25.24-32.932 42.639-59.752 42.639zm73.805 25.621c-6.857-10.512-15.922-19.576-26.707-26.432.024-.018.049-.035.073-.053 10.344-7.852 18.629-18.297 24.01-30.065.761.569 1.532 1.128 2.328 1.659.933.622 1.383 1.909 1.118 3.204-1.895 9.274-.044 18.86 5.35 27.722-3.129 7.578-5.234 15.633-6.172 23.965zm87.937-64.205c-32.93 0-60.122-25.472-62.994-57.821 18.471-6.585 29.444-19.497 35.751-30.521 8.711 17.112 23.002 28.936 42.105 34.628 16.247 4.842 33.371 4.594 47.124 2.913-5.867 29.135-31.501 50.801-61.986 50.801zm78.141-3.167c-6.048 4.031-8.99 11.366-7.495 18.687.403 1.974.501 3.989.314 6.018-6.45-8.785-14.517-16.401-23.866-22.349 17.849-13.502 29.788-34.503 31.043-58.52-.442-5.456-3.397-8.044-8.863-7.765-28.054 5.227-76.897 6.493-88.788-43.735-1.8-7.604-13.01-7.479-14.635.169-.067.319-7.13 31.959-38.486 40.126-3.312.862-5.62 3.858-5.61 7.28.077 25.411 12.289 48.023 31.096 62.328-10.077 6.358-18.649 14.623-25.334 24.195-.453-2.616-.45-5.219.066-7.747 1.496-7.32-1.446-14.655-7.494-18.688-10.483-6.988-16.741-18.688-16.741-31.297 0-9.014 3.112-17.666 8.763-24.365 5.661-6.712 6.838-15.145 6.603-23.596 0-44.963 36.438-81.543 81.227-81.543s81.228 36.58 81.228 81.543c-.313 8.729.167 17.644 5.793 24.866 5.181 6.65 7.92 14.637 7.92 23.095 0 7.635-2.307 14.929-6.445 21.053-3.877 3.024-5.942 7.342-10.296 10.245zm9.594 67.429c-1.008-8.88-3.36-17.475-6.876-25.524 4.72-8.436 6.278-17.436 4.484-26.22-.264-1.294.185-2.582 1.119-3.204 1.226-.817 2.395-1.697 3.537-2.603 5.449 12.468 13.961 23.08 24.484 31.043-10.8 6.866-19.879 15.965-26.748 26.508zm73.909-25.678c-27.772 0-52.051-18.049-60.302-44.325 1.246-1.912 2.369-3.899 3.355-5.955 19.252 1.717 36.137-.406 50.215-6.339 15.251-6.427 26.635-17.039 34.01-31.66 6.313 11.011 17.278 23.886 35.716 30.458-2.873 32.35-30.065 57.821-62.994 57.821z"/><path d="m430.188 403.333c-3.102 3.112-7.219 4.826-11.593 4.826s-8.491-1.714-11.593-4.826c-6.845-6.871-17.47 3.72-10.625 10.588 5.937 5.958 13.827 9.238 22.218 9.238s16.281-3.28 22.218-9.238c6.845-6.869-3.782-17.46-10.625-10.588z"/><path d="m106.705 403.333c-3.102 3.112-7.219 4.826-11.593 4.826-4.375 0-8.492-1.714-11.593-4.826-2.924-2.936-7.673-2.943-10.606-.019-2.934 2.924-2.942 7.673-.019 10.606 5.937 5.958 13.827 9.238 22.218 9.238s16.281-3.28 22.218-9.238c2.924-2.934 2.916-7.683-.019-10.606s-7.683-2.917-10.606.019z"/><path d="m268.446 364.748c-3.102 3.113-7.218 4.827-11.592 4.827s-8.491-1.714-11.592-4.827c-2.925-2.936-7.673-2.944-10.607-.019-2.934 2.923-2.942 7.672-.019 10.606 5.937 5.958 13.828 9.239 22.218 9.239s16.281-3.281 22.218-9.239c2.923-2.935 2.915-7.684-.019-10.606-2.935-2.926-7.684-2.917-10.607.019z"/></g><path d="m353.396 100.364c44.846 28.036 74.739 74.013 82.014 126.14 1.313 9.41 16.21 7.63 14.856-2.074-7.89-56.533-40.3-106.39-88.919-136.784-8.221-5.145-16.174 7.579-7.951 12.718z"/><path d="m74.617 232.48c3.731.53 7.951-2.651 8.479-6.372 7.454-52.543 37.799-98.668 83.256-126.547 8.266-5.071.424-17.856-7.842-12.787-49.281 30.224-82.182 80.242-90.266 137.226-.581 4.102 2.272 7.898 6.373 8.48z"/><path d="m220.471 140.177v6.865c0 5.982 3.344 11.197 8.259 13.87v12.641c0 12.329 10.03 22.359 22.359 22.359h16.946c12.329 0 22.359-10.03 22.359-22.359v-12.892c4.684-2.737 7.846-7.81 7.846-13.62v-6.865c21.763-13.47 35.101-37.228 35.101-63.051 0-20.149-7.933-38.994-22.338-53.063-14.367-14.031-33.356-21.472-53.43-21.023-9.318.22-18.409 2.196-27.021 5.875-8.917 3.811-3.025 17.603 5.893 13.795 6.851-2.927 14.079-4.499 21.483-4.674 16.019-.413 31.143 5.572 42.596 16.758 11.491 11.223 17.819 26.257 17.819 42.332 0 21.82-11.937 41.79-31.152 52.118-2.432 1.308-3.949 3.846-3.949 6.606v11.191c0 .427-.341.774-.759.774h-46.253c-.418 0-.759-.348-.759-.774v-11.191c0-2.761-1.517-5.299-3.949-6.606-19.421-10.439-31.357-30.63-31.149-52.692.105-11.168 3.405-22.059 9.543-31.494 5.287-8.129-7.285-16.307-12.574-8.18-7.697 11.834-11.835 25.504-11.968 39.533-.247 26.125 13.092 50.156 35.097 63.767zm23.259 22.639h31.664v10.737c0 4.058-3.301 7.359-7.359 7.359h-16.946c-4.058 0-7.359-3.302-7.359-7.359z"/><path d="m236.74 87.234-2.77 16.14c-1.031 6.013 5.479 10.748 10.881 7.907l14.504-7.621 14.504 7.621c5.375 2.828 11.912-1.892 10.881-7.907l-2.77-16.14 11.731-11.431c4.37-4.26 1.885-11.917-4.156-12.794l-16.215-2.355-7.25-14.687c-2.701-5.471-10.749-5.471-13.45 0l-7.25 14.687-16.215 2.355c-6.041.877-8.526 8.534-4.156 12.794zm14.698-12.302c2.442-.354 4.554-1.889 5.647-4.102l2.271-4.601 2.271 4.601c1.093 2.213 3.205 3.747 5.647 4.102l5.073.737-3.669 3.574c-1.769 1.724-2.576 4.207-2.158 6.641l.867 5.052-4.542-2.387c-2.326-1.148-4.652-1.148-6.978 0l-4.542 2.387.867-5.052c.417-2.434-.39-4.917-2.158-6.641l-3.669-3.574z"/></g></svg>