<?xml version="1.0" encoding="UTF-8" standalone="no"?>
<!-- Created with Inkscape (http://www.inkscape.org/) -->

<svg
   version="1.1"
   id="svg3216"
   xml:space="preserve"
   width="682.66669"
   height="682.66669"
   viewBox="0 0 682.66669 682.66669"
   xmlns="http://www.w3.org/2000/svg"
   xmlns:svg="http://www.w3.org/2000/svg"><defs
     id="defs3220"><clipPath
       clipPathUnits="userSpaceOnUse"
       id="clipPath3230"><path
         d="M 0,512 H 512 V 0 H 0 Z"
         id="path3228" /></clipPath></defs><g
     id="g3222"
     transform="matrix(1.3333333,0,0,-1.3333333,0,682.66667)"><g
       id="g3224"><g
         id="g3226"
         clip-path="url(#clipPath3230)"><g
           id="g3232"
           transform="translate(340.1367,431.7891)"><path
             d="m 0,0 -67.575,66.323 c -9.399,8.517 -23.724,8.517 -33.123,0 L -168.273,0"
             style="fill:none;stroke:#000000;stroke-width:15;stroke-linecap:round;stroke-linejoin:round;stroke-miterlimit:10;stroke-dasharray:none;stroke-opacity:1"
             id="path3234" /></g><g
           id="g3236"
           transform="translate(468.4268,305.875)"><path
             d="M 0,0 -31.724,-31.668"
             style="fill:none;stroke:#000000;stroke-width:15;stroke-linecap:round;stroke-linejoin:round;stroke-miterlimit:10;stroke-dasharray:none;stroke-opacity:1"
             id="path3238" /></g><g
           id="g3240"
           transform="translate(294.2412,131.998)"><path
             d="M 0,0 181.674,-99.835"
             style="fill:none;stroke:#000000;stroke-width:15;stroke-linecap:round;stroke-linejoin:round;stroke-miterlimit:10;stroke-dasharray:none;stroke-opacity:1"
             id="path3242" /></g><g
           id="g3244"
           transform="translate(75.2969,274.207)"><path
             d="M 0,0 -31.724,31.668"
             style="fill:none;stroke:#000000;stroke-width:15;stroke-linecap:round;stroke-linejoin:round;stroke-miterlimit:10;stroke-dasharray:none;stroke-opacity:1"
             id="path3246" /></g><g
           id="g3248"
           transform="translate(217.7583,131.998)"><path
             d="M 0,0 -181.673,-99.835"
             style="fill:none;stroke:#000000;stroke-width:15;stroke-linecap:round;stroke-linejoin:round;stroke-miterlimit:10;stroke-dasharray:none;stroke-opacity:1"
             id="path3250" /></g><g
           id="g3252"
           transform="translate(370.3311,7.5)"><path
             d="m 0,0 h 80.921 c 13.621,0 24.663,11.042 24.663,24.663 v 255.87 c 0,6.711 -2.698,13.141 -7.488,17.842 l -31.724,31.136"
             style="fill:none;stroke:#000000;stroke-width:15;stroke-linecap:round;stroke-linejoin:round;stroke-miterlimit:10;stroke-dasharray:none;stroke-opacity:1"
             id="path3254" /></g><g
           id="g3256"
           transform="translate(36.085,169.7607)"><path
             d="m 0,0 v -137.598 c 0,-13.621 11.042,-24.663 24.663,-24.663 H 301.56"
             style="fill:none;stroke:#000000;stroke-width:15;stroke-linecap:round;stroke-linejoin:round;stroke-miterlimit:10;stroke-dasharray:none;stroke-opacity:1"
             id="path3258" /></g><g
           id="g3260"
           transform="translate(75.2969,337.0107)"><path
             d="m 0,0 -31.724,-31.136 c -4.789,-4.701 -7.488,-11.131 -7.488,-17.842 v -85.585"
             style="fill:none;stroke:#000000;stroke-width:15;stroke-linecap:round;stroke-linejoin:round;stroke-miterlimit:10;stroke-dasharray:none;stroke-opacity:1"
             id="path3262" /></g><g
           id="g3264"
           transform="translate(436.7031,389)"><path
             d="m 0,0 v 17.789 c 0,13.807 -11.193,25 -25,25 h -311.406 c -13.807,0 -25,-11.193 -25,-25 v -132.582 l 142.461,-142.209 26.364,14.487 c 7.397,4.066 16.359,4.066 23.756,0 l 26.363,-14.487 L 0,-114.793 v 82.868"
             style="fill:none;stroke:#000000;stroke-width:15;stroke-linecap:round;stroke-linejoin:round;stroke-miterlimit:10;stroke-dasharray:none;stroke-opacity:1"
             id="path3266" /></g><g
           id="g3268"
           transform="translate(279.6074,306.7764)"><path
             d="m 0,0 c 0,-20.053 -12.307,-35.069 -27.04,-35.069 -14.733,0 -27.763,14.808 -27.763,34.86 0,20.053 13.753,33.413 28.487,33.413 C -11.583,33.204 0,20.052 0,0 Z"
             style="fill:none;stroke:#000000;stroke-width:15;stroke-linecap:round;stroke-linejoin:round;stroke-miterlimit:10;stroke-dasharray:none;stroke-opacity:1"
             id="path3270" /></g><g
           id="g3272"
           transform="translate(254.5786,237.7646)"><path
             d="m 0,0 c -29.305,0.811 -56.025,20.645 -63.96,50.813 -9.158,34.822 10.872,71.192 45.181,82.113 36.287,11.552 74.878,-8.863 85.842,-45.191 3.88,-14.535 1.615,-27.18 -3.525,-40.107 -2.039,-5.125 -8.762,-17.124 -23.716,-17.124 -8.164,0 -14.97,7.824 -14.925,16.836 l 0.295,59.719"
             style="fill:none;stroke:#000000;stroke-width:15;stroke-linecap:round;stroke-linejoin:round;stroke-miterlimit:10;stroke-dasharray:none;stroke-opacity:1"
             id="path3274" /></g><g
           id="g3276"
           transform="translate(321.6416,325.5)"><path
             d="M 0,0 C 3.88,-14.535 1.615,-27.181 -3.525,-40.107"
             style="fill:none;stroke:#000000;stroke-width:15;stroke-linecap:round;stroke-linejoin:round;stroke-miterlimit:10;stroke-dasharray:none;stroke-opacity:1"
             id="path3278" /></g></g></g></g></svg>
